<svg id="Capa_1" data-name="Capa 1" xmlns="http://www.w3.org/2000/svg" viewBox="0 0 511.68 207.93"><defs><style>.cls-1{fill:#8e3cfe;}.cls-2{fill:#fff;stroke:#492fc9;stroke-miterlimit:10;}</style></defs><title>hero-footer1</title><path class="cls-1" d="M50.6,521.79a1.92,1.92,0,0,1,.06.89c-4.17-.91-6.23-3.63-6.23-7.74s2.13-6.79,6.23-7.77l1,.91C44.09,512,43.73,516.55,50.6,521.79Z" transform="translate(-39.11 -320.61)"/><path class="cls-2" d="M102.49,508c-.64,1-1.72.74-2.66.93-3.23.68-5.43,2.25-5.44,5.95s2.11,5.45,5.38,6c2.69.42,5.07.9,4.63,4.38s-3.31,2.6-5.45,2.61c-13.93.06-27.88-.31-41.8.16-7.92.27-13.82-2-17.54-9.09V511c3.84-7.34,10-9.39,18-9.1,14.08.51,28.2.14,42.3.15,1.63,0,3.64-.35,4.22,1.68.46,1.62,1,3.75-1.69,4.34q-.55-.62-1.08-1.23c-1.28-1.91-3.28-1.32-5-1.32q-21.42-.11-42.85,0c-6.35,0-10.42,3.78-10.44,9.4s4,9.48,10.31,9.53c14.12.09,28.24,0,42.36,0,.94,0,2,.36,2.75-.52-.75-1.13-2.15-.78-3.1-1.41a6.78,6.78,0,0,1-3-3.74,16.22,16.22,0,0,1-.7-2,7.2,7.2,0,0,1,0-3.6,16.26,16.26,0,0,1,.71-2.14,6.49,6.49,0,0,1,3.73-3.91C98.4,506.58,100.59,506.35,102.49,508Z" transform="translate(-39.11 -320.61)"/><path class="cls-2" d="M181.18,325c.26-1.89,2.55-2.22,3-3.92H273c.49,1.71,2.78,2,3,3.93.68,1.54.35,2.33-1.5,2a14.28,14.28,0,0,0-8.4-2.42c-25.15,0-50.3.07-75.45,0a20.14,20.14,0,0,0-7.69,1.69C182,326.39,181.06,326.48,181.18,325Z" transform="translate(-39.11 -320.61)"/><path class="cls-2" d="M139.38,350.79l1.93-2.75c4.79-1.7,9.77-1.12,14.66-1,8.06.14,16.15-.75,24.18.52,2.34,2.89,1.55,6.23,1.12,9.4-.39,2.91-2.88,3.23-5.27,3.29-5.25.13-10.5,0-15.75.07a15.84,15.84,0,0,0-5.36.43,4,4,0,0,0-1.71,2c-.75,2.1-.44,4.28-.45,6.42q0,35,0,70c0,9.75-4,12.2-13.55,8.36-.56-1.61-.3-3.28-.3-4.92q0-43.47,0-86.93C138.88,354,138.42,352.32,139.38,350.79Z" transform="translate(-39.11 -320.61)"/><path class="cls-2" d="M226.08,519.84c.67-6.69,1.26-13.4,2-20.08.36-3.09-.78-3.95-3.83-3.93q-29.58.18-59.17,0c-3.41,0-4.18,1.22-4.09,4.31.19,6.44,0,12.89.06,19.33,0,3.16-.62,5.91-3.77,7.43-1.08.7-1.9.61-2.28-.76A12.75,12.75,0,0,0,158,516c0-.54,0-1.06,0-1.6s-.05-1.13-.1-1.7c.47-6.25-1.26-12.64,1.21-18.76a4.57,4.57,0,0,1,1.69-.92,22.36,22.36,0,0,1,6.42-.49q58.41,0,116.82,0a23.93,23.93,0,0,1,6.43.45,4.71,4.71,0,0,1,1.73.87c2.26,6.83,1.73,13.73.43,20.64A1.17,1.17,0,0,1,291,515c-1.73-4.83-.73-9.83-.71-14.74,0-3.56-1.16-4.52-4.58-4.39-6.47.24-13,.37-19.43,0-4.51-.28-6.11,1.13-5.23,5.5a21.08,21.08,0,0,1,.13,3.47c.15,2.2,1.43,4.54-.85,6.42-2.2-1.65-1.59-4.19-1.92-6.39-1.1-7.26-1-7.27-8.23-7.29-5,0-9.94.1-14.9-.07-2.4-.08-3.82.86-4.06,3.28-.56,5.87-1.38,11.73-.81,17.63.48.46.93,1,1.63,1,8.87,0,17.75.78,26.58-.43a3.7,3.7,0,0,0,1.13-2.48c.4-1.34-.06-3.22,2.14-3.43.09,1.56.19,3.11.28,4.67.44,1.53,1.08,3.07-.13,4.56a3.48,3.48,0,0,1-1.79.81c-11.4.46-22.8,1-34.18-.33C224.32,521.74,224.91,520.79,226.08,519.84Z" transform="translate(-39.11 -320.61)"/><path class="cls-2" d="M159.25,513.87l-.06,1.34c-1.86,1.45-4.06,1.11-6.17,1.12-8.23,0-16.46,0-24.68,0-1.93,0-4-.48-5.55,1.24-1.09,5.06-.19,6.52,4.7,6.71,7.11.27,14.23,0,21.35.12,2.25,0,4.7-.43,6.48,1.62l2,.83c-1.35,1.37-3.1,1-4.71,1q-12.71,0-25.41,0c-6.66,0-8.78-2.19-8.78-9,0-12.4,0-24.8,0-38.06-12,7.55-24,8.75-36.08,2a31.07,31.07,0,0,1-15.44-21c-4-17.66,8.33-36,25.67-38.2.73.33,1.33.74,1,1.7-1.11,1.43-2.86,1.55-4.4,2.09-13.44,4.74-21,16.82-19.45,31,1.42,12.67,12.17,23.84,24.34,25.28,14.78,1.75,27.48-5.79,32.4-19.13.68-1.84.4-4.56,3.48-4.73a1.77,1.77,0,0,1,1.13,1.12c.46,5.76-2.81,10.11-5.86,14.36a16.66,16.66,0,0,0-3.36,10.6c.16,7.11.15,14.23,0,21.34-.08,3.88,1.56,5.28,5.34,5.23,8.47-.12,16.94-.07,25.4,0C154.88,512.52,157.28,512.22,159.25,513.87Z" transform="translate(-39.11 -320.61)"/><path class="cls-2" d="M475.33,385.93c3.06,1.12,4.13,3.4,4.13,6.52q0,41.08,0,82.17c0,3.68-1.17,6.45-5.14,7.32-11.07-.22-22.15-1-33.21.48-3.28.45-6.63.13-9.95.14-18.08,0-36.17,0-54.25-.05-2.29,0-5.12.83-6.33-2.33,2.36-2.16,5.31-1.58,8.06-1.58q42.6-.09,85.18,0c1.5,0,3,0,4.49,0,6.66-.16,7.48-.87,7.5-7.49.06-20.68,0-41.37,0-62.06,0-3,0-6,.23-8.9-1.36-2-3.38-1-5.05-1-32.49-.06-65,0-97.48-.09-2.47,0-5.43.94-7-2.14,2.23-2.42,5.22-1.73,7.94-1.73q45.45,0,90.9,0c1.33,0,2.65,0,4,0,6.5-.1,7-.74,5-6.9A1.69,1.69,0,0,1,475.33,385.93Z" transform="translate(-39.11 -320.61)"/><path class="cls-2" d="M453.45,524.88c-1.07,2.53-3.16,3-5.66,3q-80.57,0-161.13,0c-6.22,0-8.05-3.3-5.83-10.05l.91.36a4.17,4.17,0,0,1,1.21,1.49c.76,4.33,3.93,4.67,7.48,4.67,28,0,56.08.13,84.12,0,25.72-.09,51.43.24,77.15-.23A3.33,3.33,0,0,1,453.45,524.88Z" transform="translate(-39.11 -320.61)"/><path class="cls-2" d="M275.17,327l.84-2c2.18,5.09,1,10.44.82,15.6-.14,4.76,1.51,5.7,5.9,5.65,18.95-.23,37.9-.11,56.84-.08,1.78,0,3.67-.5,5.33.66-2,2.09-4.64,1.45-7,1.45-18.39.06-36.78,0-55.16.08-1.5,0-3.31-1-4.51.81a22.11,22.11,0,0,1,.3,3c-.15,3.9,1.93,5.16,5.55,5.14q14.43-.06,28.86,0c5.64,0,11.28-.15,16.91.1,1.94.09,4.55-.5,5.07,2.6-2,1.68-4.4,1.21-6.66,1.22-15.22.05-30.43,0-45.65.08-1.46,0-3.29-1.08-4.42.84.78,19.71.38,39.4.22,59.08,0,3.22-1,6.27-4.66,7.46a2,2,0,0,1-2-1.7c1.54-4.25,1.76-8.65,1.75-13.14-.08-23.12,0-46.23,0-69.35a56.43,56.43,0,0,1,.27-7.91,10.89,10.89,0,0,0,.22-4.18C273.8,330.51,273.32,328.49,275.17,327Z" transform="translate(-39.11 -320.61)"/><path class="cls-2" d="M153.21,359.78c6.87-1.56,13.83-.41,20.74-.64,6.33-.21,6.35-.05,6.29-6.51,0-1.48-.13-3-.2-4.45-1.15-1.47-2.74-.69-4.1-.7-9-.08-18,0-27.06-.08-1.58,0-3.29.6-4.73-.61,9.35-1.4,18.76-.36,28.14-.59,7.59-.18,7.6,0,8.11-7.3.48-.89.18-1.91.45-2.82.55-1.84,1.37-1.37,2.21-.17,1,2.55.72,5.22.73,7.85q0,35.44,0,70.89c0,4.16.18,8.24,1.72,12.17a2,2,0,0,1-1.81,1.92c-4.79-1.65-4.92-5.75-5-9.72-.13-14.15-.08-28.3,0-42.45,0-4.77-.43-9.55.42-14.25-.66-1.85-2.25-1-3.39-1-5.65-.09-11.3,0-16.95-.06C156.83,361.21,154.73,361.55,153.21,359.78Z" transform="translate(-39.11 -320.61)"/><path class="cls-2" d="M475.33,385.93l-1,.86c-1.91,1.78-4.32,1.51-6.6,1.51q-45.78.07-91.56,0c-2,0-4,.06-5.84-.9a1.23,1.23,0,0,1-.59-1.64c1.66-1,3.53-.74,5.33-.74q47.24,0,94.46,0C471.52,385,473.54,384.77,475.33,385.93Z" transform="translate(-39.11 -320.61)"/><path class="cls-2" d="M539.18,489.15c0,3.23.31,5.65,4.25,7.12,4.89,1.82,6.92,6.34,6.86,11.62s-2.53,9.27-7.25,11.49c-2.27,1.06-3.83,1.85-3.91,4.77-.07,2.35-2.06,3.73-4.53,3.74q-14.21.06-28.4,0c-3.23,0-5-1.94-5-5,.07-11.57-.63-23.14.36-34.7,1.18-.14,1.5.73,1.86,1.56,1,9,.26,18.09.44,27.13.15,7.57,1,8.44,8.67,8.48,5.61,0,11.23,0,16.85,0,2.33,0,4.67-.08,6.36-2,1.41-1.7,1.13-3.73,1.14-5.69,0-7.74-.08-15.48.06-23.22C537,492.47,536.2,489.94,539.18,489.15Z" transform="translate(-39.11 -320.61)"/><path class="cls-2" d="M182.21,335c-1.64.82-.4,3-1.81,3.89v-4.85a3.85,3.85,0,0,1,3-2.28c7.92-.65,15.87-.26,23.8-.3,20-.11,40.06-.06,60.09,0,2.6,0,5.36-.45,7.59,1.5,1.06.63,1.22,1.31.12,2.07-1.91,1.7-4.28,1.59-6.59,1.6q-39.8,0-79.58,0C186.49,336.62,184.12,336.71,182.21,335Z" transform="translate(-39.11 -320.61)"/><path class="cls-2" d="M262,521.76c.05-1.35.09-2.7.13-4,.64,1.84,1.95,2.4,3.86,2.28a21.9,21.9,0,0,1,5.95.19c2.68.61,3.49,2.75,3.31,5.36-.2,2.82-2.31,2.34-4.05,2.34q-26.67,0-53.33,0c-1.93,0-4.32.48-4.4-2.56-.08-2.8,1.21-4.92,4.16-5.26,2.8-.31,5.64-.17,8.46-.23-.31.64-.63,1.28-1,1.91-1.47,2-4,1.08-5.85,2.38,16.62.32,33.24.33,51,.29C267,522.63,263.86,524.15,262,521.76Z" transform="translate(-39.11 -320.61)"/><path class="cls-2" d="M453.45,524.88l-1.46-.09c-.77-3.65-3.05-4.93-6.68-4.54a10.52,10.52,0,0,1-5.71-.72,2.83,2.83,0,0,1-1.37-1.93c2.67-4.06,3.07-8.58,2.91-13.29-.17-5.29-.1-10.6,0-15.89.05-3.28-1.18-5.05-4.64-4.85l-1.77,0c-19.78.19-39.56.08-59.33.06-4.06,0-8.13-.26-9.89-4.94a2.37,2.37,0,0,1,.24-1.69c2.91-.69,3.87,1.43,4.93,3.41,1.78,1.38,3.85.74,5.77.74q46.31.07,92.61.07c1.76,0,3.66-.59,5.28.68-8.46.07-16.94.36-25.39.11-4-.12-5.33.83-5.35,5.09,0,9.56,1.16,19.18-.69,28.68-.32,1.62.57,1.63,1.56,1.68,1.32.08,2.65,0,4,0C455,517.57,455.39,518.22,453.45,524.88Z" transform="translate(-39.11 -320.61)"/><path class="cls-2" d="M366.87,396.45c1.37,2.27,3.61,1.22,5.42,1.22q51.81.1,103.62.06a5.51,5.51,0,0,1,1.41.19c.07,0,0,.51,0,.79-2.42,2-5.36,1.49-8.13,1.5q-44.86.06-89.73,0c-1.49,0-3,0-4.48,0-6.13.12-6.52.53-6.67,6.47-.08,3.3.32,6.63-.55,9.89a3.94,3.94,0,0,1-1.63,2.13,86.39,86.39,0,0,1-16-.16,3.63,3.63,0,0,1-1.42-.79,1.27,1.27,0,0,1,.14-1.48,2.19,2.19,0,0,1,2.26.08c3.46,0,6.94-.24,10.39,0,3.14.21,3.86-1.09,3.89-4,.05-7.55-.59-15.11.4-22.64,1-.17,1.45.49,1.8,1.26C368.07,392.9,368.28,394.78,366.87,396.45Z" transform="translate(-39.11 -320.61)"/><path class="cls-2" d="M351.12,416.38l-2.49.05c-1.78-2.11-1.37-4.67-1.38-7.1q-.08-24.68,0-49.37a25.79,25.79,0,0,0-1.93-11.06,2.49,2.49,0,0,1,.42-1.8c4.39.88,5.05,4.09,5,7.82q0,27.78,0,55.54C350.8,412.43,351,414.4,351.12,416.38Z" transform="translate(-39.11 -320.61)"/><path class="cls-2" d="M502.61,489.48l-1.06-1.27c2-2.2,4.66-.85,7-1.06,3.52-.32,7.27.81,10.15-2.47a3,3,0,0,1,3.74-.27c4,3.9,8.94,2.41,13.57,2.69,1.46.09,3.16-.23,3.18,2-1.64,2-.8,4.42-.83,6.62-.11,8.18,0,16.37-.06,24.55,0,1.57.54,3.32-1,4.58-1.83-1.87-1.5-4.27-1.52-6.54-.07-6.93,0-13.85,0-20.77,0-6.65-.3-6.88-7-7a29.45,29.45,0,0,1-3-.08H523.9C516.81,490.17,509.6,491.85,502.61,489.48Z" transform="translate(-39.11 -320.61)"/><path class="cls-2" d="M478.48,527.89c-3.32,0-6.65-.13-10,0-2.93.15-3.33-1.32-2.92-3.69,1.06-6,7.11-10.55,13.91-10.33A13.56,13.56,0,0,1,492,525.41c.28,2.33-.85,2.48-2.52,2.47Z" transform="translate(-39.11 -320.61)"/><path class="cls-2" d="M139.38,350.79q0,48.13.05,96.27a1.17,1.17,0,0,1,.12,1.42c-2.61,2.07-6.13.4-8.82,2.14a2.38,2.38,0,0,1-1.56,0,3.64,3.64,0,0,1-1.26-4.92.92.92,0,0,1,1.36-.28c2,3.21,5.15,2,7.61,1.49,2.19-.46,1.1-3.13,1.1-4.77.07-28.46,0-56.92.09-85.38C138.08,354.73,137.17,352.38,139.38,350.79Z" transform="translate(-39.11 -320.61)"/><path class="cls-2" d="M345.75,347.1l0,1.18c-1.7,1.33-3.73,1.25-5.71,1.25q-28.57.06-57.15,0c-2,0-4,.07-5.65-1.37.61-2.36,2.5-1,3.63-1,19.53-.11,39.07-.07,58.6-.09,1.81,0,3.63-.12,5.45-.18A1.28,1.28,0,0,1,345.75,347.1Z" transform="translate(-39.11 -320.61)"/><path class="cls-2" d="M129.27,445.4h-1.2c-1.62-.08-2.18-1.39-2.73-2.53-4-8.16-10.48-13.32-19-16.2a3.36,3.36,0,0,1-2.31-1.69,1.56,1.56,0,0,1,.33-1.33C115.75,424.83,126.25,434,129.27,445.4Z" transform="translate(-39.11 -320.61)"/><path class="cls-2" d="M144.15,346.79l35.24.27c.28,0,.68.1.8.3s-.09.54-.15.82L141.31,348C141.74,346.46,143.17,347.14,144.15,346.79Z" transform="translate(-39.11 -320.61)"/><path class="cls-2" d="M104.39,423.65l0,1a10.44,10.44,0,0,1-10.86-.11l-1-.88A19.73,19.73,0,0,1,104.39,423.65Z" transform="translate(-39.11 -320.61)"/><path class="cls-2" d="M182.35,333l-1.95,1.09c0-3-1.07-6.15.78-9l1,1C184,328.33,184,330.63,182.35,333Z" transform="translate(-39.11 -320.61)"/><path class="cls-2" d="M291,515l1.4-.11c1.46.65,1.33,1.74.84,2.94-3.86,2.46-7.85,1.81-11.86.46l-.5-.44c2.34-1.19,4.85-.41,7.28-.58C289.67,517.12,291.2,517.2,291,515Z" transform="translate(-39.11 -320.61)"/><path class="cls-2" d="M261.84,513c-1.27,1.18-.57,2.83-1,4.21-2.82-1.82-2.48-4-.67-6.29,1.64-1.86.45-4.16,1-6.19C262.33,507.44,261.89,510.26,261.84,513Z" transform="translate(-39.11 -320.61)"/><path class="cls-2" d="M366.86,390.86l-1.06-1.13a4.15,4.15,0,0,1,3.95-4v1.33C369.64,389,369,390.52,366.86,390.86Z" transform="translate(-39.11 -320.61)"/><path class="cls-2" d="M95.26,508.19l-1.82,3.32c-.65,1.47-2,.91-3,.92q-17.41.06-34.85,0c-.75,0-1.71.4-2.13-.68.56,1.53,1.86.67,2.75.68,10.45.07,20.91,0,31.36.07,1.61,0,3.33-.52,4.83.55l-.06,3.71c-1.81,1.29-3.86.61-5.78.62-11.34.07-22.69,0-34,.18-.64.3.2,1.23,0,.62-.09-.22.31-.69.55-.69,6.47-.08,12.95,0,19.42,0,5.81,0,11.62-.05,17.42,0,1.21,0,2.7-.68,3.59.85l1.81,3.38c-1,1.4-2.5,1.53-4,1.53-13.21,0-26.42.37-39.62-.2-4.11-1.26-7.08-3.76-7-8.26.1-4.87,3.63-6.92,7.93-7.94,12.72-.53,25.45-.16,38.18-.21C92.41,506.64,94.12,506.63,95.26,508.19Z" transform="translate(-39.11 -320.61)"/><path class="cls-2" d="M99.37,522.8c1,.56,3.08-.23,2.95,1.82s-2,1.35-3.13,1.36c-15.58,0-31.16.12-46.73,0a11,11,0,0,1,.09-22c15.58-.11,31.16,0,46.74-.08,2.21,0,3.56.44,3.14,3-1.49,1.11-3.2.56-4.8.57q-22.56.06-45.12,0c-5.32,1.55-7.74,3.88-7.38,7.69.41,4.27,2.94,6.73,7.28,7.26q21,0,42.07,0C96.11,522.44,97.78,522.11,99.37,522.8Z" transform="translate(-39.11 -320.61)"/><path class="cls-2" d="M50.66,507.17l51.77-.28.06,1.16h0l-7.23.15-43.57-.11C50.63,508.58,50.51,508,50.66,507.17Z" transform="translate(-39.11 -320.61)"/><path class="cls-2" d="M99.37,522.8c-16.24.19-32.48.47-48.71-.12-.31-.18-.42-.37-.34-.58s.19-.31.28-.31l44.65-.07C96.59,522.22,98.25,521.48,99.37,522.8Z" transform="translate(-39.11 -320.61)"/><path class="cls-2" d="M93.44,518.34H51.72v-1.57H92.3Z" transform="translate(-39.11 -320.61)"/><path class="cls-2" d="M92.36,513.06H51.93v-1.55H93.44Z" transform="translate(-39.11 -320.61)"/><path class="cls-2" d="M182.35,333l-.15-6.89c1.32-2.55,3.52-3.15,6.23-3.15q40.14.07,80.27,0c3.14,0,5.57.76,6.47,4.1q-.15,3-.32,5.94Z" transform="translate(-39.11 -320.61)"/><path class="cls-2" d="M139.36,448.29c0-.41,0-.82.07-1.23,11.74.8,11.74.8,11.74-10.65q0-35.25,0-70.51c0-1.7-.81-3.66.91-5.1a.94.94,0,0,1,1.52.42c.66,4.92.18,9.87.19,14.81q.12,31.67,0,63.33c0,3.31.24,6.16,3.92,7.68a6.33,6.33,0,0,1,3.77,5.48c.36,4.09.92,8.22-.61,12.22a1.4,1.4,0,0,1-1.45.75c-1.26-7.75-7.09-7-12.65-6.73s-11.21-1-16.55,1.48l-1.05,0c-1.9-3.34-2-6.65.17-9.93a7.48,7.48,0,0,0,.82,0,2.51,2.51,0,0,1,1,1.12,16.39,16.39,0,0,1,.71,2.15c.48,1.14,1.49,1.18,2.49,1.2,6.46.13,12.91.09,19.36,0,1.26,0,3,.21,3.23-1.52s-1.25-2.6-2.72-3.07c-2.57-.81-5.26-.36-7.89-.52C144,449.59,141.38,450.32,139.36,448.29Z" transform="translate(-39.11 -320.61)"/><path class="cls-2" d="M153.33,360.88l-1.21-.08,1.09-1,26.47.22c.14,0,.38.08.4.17a3.51,3.51,0,0,1,0,.8,5.82,5.82,0,0,1-4.09,1.4c-6.22.15-12.45.17-18.67,0A5.22,5.22,0,0,1,153.33,360.88Z" transform="translate(-39.11 -320.61)"/><path class="cls-2" d="M290.59,494H160.71c-.56-.35-1.23-.8-1.27-1.41-.56-8.55-1.61-17.11.62-25.59,1.88-1.42,4.1-1.14,6.23-1.14q59.24,0,118.46,0c2.13,0,4.34-.28,6.27,1,1.33,1.47,1.28,3.31,1.3,5.1.05,5.72.06,11.44,0,17.16C292.29,490.94,292.31,492.79,290.59,494Z" transform="translate(-39.11 -320.61)"/><path class="cls-2" d="M292.93,517c-.19-.7-.38-1.4-.58-2.11q-.24-10.39-.5-20.79c-.09-.66-.16.2-.17-.46-.26-24.15-2-48.27-.93-72.44a6.08,6.08,0,0,1,4.65-4.75c16.41-.57,32.83-.16,49.24-.22a5.75,5.75,0,0,1,4.14,1.38c5.6,1,11.37-.89,16.9,1.05,3,6.24,1.32,9.19-5.38,9.23-18.1.12-36.2,0-54.3.06-2.14,0-4.33-.31-6.37.65-1.67,1.38-1.28,3.31-1.28,5.08q0,34.5,0,69c0,5.48.45,5.94,6,5.94q62.49.06,125,0c1.78,0,3.7.38,5.16-1.13,1.5-6.21.32-12.5.7-18.73.14-2.26-.42-4.7,1.59-6.51,4.68-.93,5.8,1.19,5.6,5.59-.35,7.56-.2,15.14,0,22.71.06,3.3-1,5.73-3.91,7.34-1.51,1.75-3.6,1.48-5.56,1.49q-66.9,0-133.81,0C296.73,519.31,294.24,519.57,292.93,517Z" transform="translate(-39.11 -320.61)"/><path class="cls-2" d="M130.27,460.24c-.09-2.4,1.15-3,3.4-2.92,6.79.14,13.6.39,20.36-.07,4.58-.3,6,1.28,5.27,5.49a12,12,0,0,0,.1,2.46,3.76,3.76,0,0,1,.38,2.71c-.24,8.71.46,17.44-.39,26.14q-.07,9.92-.14,19.82c-11.94.12-23.88.2-35.82.39-2.43,0-3.13-1-3.11-3.26q.11-14.88,0-29.78c0-2.07,1-3.33,2.23-4.72C126.65,471.82,129.71,466.61,130.27,460.24Z" transform="translate(-39.11 -320.61)"/><path class="cls-2" d="M260.15,511c-.11,2.13-.23,4.26.67,6.29,0,.77.07,1.53.1,2.3-.57,1.21-1.68.84-2.61.84q-13.69,0-27.38,0c-1,0-2,.24-2.77-.69.61-7.06,1.3-14.12,1.78-21.2.16-2.33.91-3,3.32-2.9,7.12.23,14.26.29,21.37,0,3.53-.13,4.59,1.11,4.59,4.47C259.22,503.73,259.82,507.35,260.15,511Z" transform="translate(-39.11 -320.61)"/><path class="cls-2" d="M155.32,526.06q-12.6,0-25.19,0c-9.81,0-9.9-.11-9.72-10,8.35-1.29,16.76-.39,25.14-.49,4.56,0,9.19-.83,13.7.55C158.85,519.77,160.55,524.28,155.32,526.06Z" transform="translate(-39.11 -320.61)"/><path class="cls-2" d="M262,521.76c2.65.06,5.31.14,8,.18,1.6,0,3.11.22,3.13,2.27s-1.61,1.77-2.87,1.77q-25.87,0-51.77,0c-1.19,0-3,.47-2.9-1.65.07-1.9,1.47-2.36,3.13-2.38,2.16,0,4.31-.12,6.46-.19Z" transform="translate(-39.11 -320.61)"/><path class="cls-2" d="M292,420.33q-.09,36.85-.16,73.72l-1.26-.05q.07-13.23.14-26.48a7.82,7.82,0,0,1-1.1-2.71c-.62-13.27-.25-26.54-.17-39.82C289.47,423.16,289.32,420.88,292,420.33Z" transform="translate(-39.11 -320.61)"/><path class="cls-2" d="M159.25,516.09,120.41,516c.79-1.16,2-.93,3.14-.93q17.82,0,35.64.11A4.29,4.29,0,0,0,159.25,516.09Z" transform="translate(-39.11 -320.61)"/><path class="cls-2" d="M228.16,519.71a226.72,226.72,0,0,0,32.76-.16c-.48,1.43-1.69,1.39-2.86,1.39H230.65C229.62,520.94,228.65,520.8,228.16,519.71Z" transform="translate(-39.11 -320.61)"/><path class="cls-2" d="M159.39,494.05l0-26.79a.87.87,0,0,1,1.31.08q0,13.34,0,26.65Z" transform="translate(-39.11 -320.61)"/><path class="cls-2" d="M129.39,450.34c-.06,3.31-.11,6.62-.17,9.93-2.9,9.49-7.66,17.61-17.12,21.93-11.19,5.1-22.11,4.38-31.94-3.09s-14-18-11.42-30.3c2.44-11.85,10-19.46,21.59-23.11,1.09-.34,2.15-.77,3.22-1.15l10.86.11c11.19,3.18,19.18,10,23.66,20.74Z" transform="translate(-39.11 -320.61)"/><path class="cls-2" d="M366.69,417.55c.08-4.78.43-9.58.14-14.33-.23-3.76,1-4.68,4.69-4.66,25.34.17,50.67.08,76,.09l29.8.06c0,25.31,0,50.62.15,75.93,0,5.21-3.14,5.77-7.23,5.76q-47.06-.07-94.11,0c-1.82,0-3.65.05-5.48.08-1.82-.48-2.59-2.18-3.86-3.3-1.68-1.73-1.46-3.93-1.46-6,0-13.15-.18-26.3.08-39.44C365.51,427,366.13,422.24,366.69,417.55Z" transform="translate(-39.11 -320.61)"/><path class="cls-2" d="M366.86,390.86c1-1.25,1.93-2.5,2.89-3.76,1.32-.11,2.64-.34,4-.34l100.63,0c.9,1,2.09,1.77,2.64,2.89,2.13,4.36.32,7.17-4.5,7.17q-50.34,0-100.67,0c-1.64,0-3.29-.26-4.94-.39C366.87,394.58,366.86,392.72,366.86,390.86Z" transform="translate(-39.11 -320.61)"/><path class="cls-2" d="M439.52,518.88a58.12,58.12,0,0,0,7.8.14c4.83-.53,6.27,1.3,4.67,5.77-1.66,1.44-3.69,1.24-5.67,1.24H288.15c-6.24,0-6.59-.45-6.09-7,3.7-1.23,7.54-.62,11.27-.6,19,.1,38.07,0,57.1,0,2,0,4-.15,5.8.9,6.2,3.56,12.67,2.55,19.16,1.07a11.67,11.67,0,0,1,1.57-1,10.39,10.39,0,0,1,4.83-1q27.66,0,55.32,0A4.46,4.46,0,0,1,439.52,518.88Z" transform="translate(-39.11 -320.61)"/><path class="cls-2" d="M439.52,518.88c-18.52.06-37,.15-55.55.14-2.66,0-5.17.11-7.31,1.89-5.31-1.47-10.78.07-16.12-.81,5.35,1.2,10.85-.45,16.21.71a3.48,3.48,0,0,1-4,2.27c-6.12-.76-13.08,2.63-18.17-3.64-.51-.62-2.2-.37-3.34-.37q-34.61-.06-69.21-.06l-.73-.77c3.82-.84,8,1.2,11.6-1.29,1.76,1.3,3.79.83,5.72.84l139.73,0Z" transform="translate(-39.11 -320.61)"/><path class="cls-2" d="M292,420.33c-2.12,1.2-1.24,3.25-1.25,4.92-.07,13.24,0,26.48,0,39.72-1.37,1.71-3.32,1.25-5.08,1.25q-60.16,0-120.34,0c-1.61,0-3.36.35-4.69-1-.05-3.47-.21-6.95-.11-10.42.11-4.07-1.44-6.92-5.64-7.37-2.45-.26-2.47-1.5-2.47-3.28q0-40,0-80a5.08,5.08,0,0,1,.92-3.26l26.8.09q.06,29.56.11,59.12c0,3.45.29,6.69,4.1,8.21a14,14,0,0,1,6.75-1.25q37.5,0,75,0a14.35,14.35,0,0,1,6.75,1.23c3.8-1.54,4.06-4.78,4.06-8.23q0-29.55.12-59.11c.84-.73,1.87-.54,2.85-.54q26.31,0,52.61,0c1.43,0,3.06-.43,4,1.22a9.4,9.4,0,0,1,.69,4.38q.06,22.85,0,45.7c0,1.65.07,3.34-1.05,4.75-4,1.25-8.15.38-12.23.55-9.68.39-19.39-.63-29.06.55A6.44,6.44,0,0,0,292,420.33Z" transform="translate(-39.11 -320.61)"/><path class="cls-2" d="M182.21,335,270,334.8c1.65,0,3.3.15,4.94.23q0,42.24,0,84.49c0,3.13-.24,5.94-3.14,7.8-1,1-2.18.62-3.3.62q-39.95,0-79.9,0c-1.12,0-2.35.34-3.3-.62-2.88-1.84-3.16-4.63-3.15-7.75Q182.28,377.29,182.21,335Z" transform="translate(-39.11 -320.61)"/><path class="cls-2" d="M277.22,348.15l68.51.13c1.58,1.43,3.23,2.69,3.21,5.24q-.22,31.46-.31,62.91l.14.08a28.43,28.43,0,0,1-11.18.09c-1.22-1.79-.74-3.82-.75-5.75-.09-16.09.07-32.18-.1-48.27a4.59,4.59,0,0,0-1.79-2.83c-2.34-1.22-4.87-.59-7.29-.6-15-.06-30.05-.19-45.07.07-4.46.08-6.46-1-5.71-5.67C277.16,351.78,277.11,350,277.22,348.15Z" transform="translate(-39.11 -320.61)"/><path class="cls-2" d="M185.35,427.32h86.5l1,1c-2.14.14-4.28.4-6.43.4q-37.83,0-75.66,0c-2.14,0-4.29-.25-6.43-.38Z" transform="translate(-39.11 -320.61)"/><path class="cls-2" d="M335,359.75l1.8,1.18c.45,1.05-.07,1.13-.9.91-1.14-1.42-2.74-.93-4.16-.93q-27.33,0-54.65,0c1-1.84,2.69-.87,4-.88C299,359.9,317,359.84,335,359.75Z" transform="translate(-39.11 -320.61)"/><path class="cls-2" d="M525.44,489.13c12-.27,12-.27,12,11.53,0,8.08-.1,16.16-.15,24.24a6.36,6.36,0,0,1-4,1.67c-8.6,0-17.2,0-25.8,0-4,0-4.84-2.5-4.82-5.93.06-10.38,0-20.77,0-31.15,7.11-.87,14.24-.29,21.36-.31,1.74,2.57.42,5.45.82,8.15-1.83,2.5-5.68,3.11-5.32,7.75.54,6.94,2,8.19,9.13,5.54.43-3.51.93-7-.38-10.44-1-1.13-3-1-3.38-2.8C525.12,494.62,524.16,491.8,525.44,489.13Z" transform="translate(-39.11 -320.61)"/><path class="cls-2" d="M548.9,507.6c-.52,4.36-2.2,7.85-6,9.95-1,.54-2.33,2-3.36.41-.72-1.13-.28-2.53,1.24-3.26a7.16,7.16,0,0,0,3.47-3.44c2-4.28.84-7.75-3-10.29-1.4-.94-2.69-2-1.79-3.5,1.11-1.87,2.62-.22,3.7.42C547,500.08,548.48,503.65,548.9,507.6Z" transform="translate(-39.11 -320.61)"/><path class="cls-2" d="M539.56,513.28V502.21C544.94,505.47,545,509.57,539.56,513.28Z" transform="translate(-39.11 -320.61)"/><path class="cls-2" d="M365.88,477.14c1.07,4.54,4.51,5.05,8.4,5.05q30.5,0,61,0c1.62,3.9.63,8,.67,12,.05,4.68.67,9.41-.39,14.08-1.66,1.1-3.54.73-5.33.73q-62.81,0-125.61,0c-6.64,0-6.69-.06-6.69-6.65q0-34.79,0-69.56c0-1.78-.38-3.66.74-5.31,1.56-.84,3.25-.45,4.88-.45q29.29,0,58.6,0c1.89,0,4.14-.61,4.08,2.67C366,445.49,366.67,461.32,365.88,477.14Z" transform="translate(-39.11 -320.61)"/><path class="cls-2" d="M365.88,477.14c-.09-15-.29-30-.17-45,0-3.58-.71-4.76-4.58-4.71-20.69.24-41.39.16-62.08.19-.88.25-1.32,0-1-1,9.91-.93,19.84-.25,29.76-.38s19.88,0,29.82,0c7.93,0,7.93,0,8.07-7.61l1-1.06q.06,29.81.11,59.6l-.46,0Z" transform="translate(-39.11 -320.61)"/><path class="cls-2" d="M435.35,507.78q0-12.78-.07-25.57l1.46,0q-.19,13.33-.38,26.66C435.37,509.1,435.1,508.68,435.35,507.78Z" transform="translate(-39.11 -320.61)"/><path class="cls-2" d="M337.94,416.43l10.83.08c0,.35,0,.7,0,1.05H294.86c1.31-2,3.33-1,5-1,11.94-.13,23.88-.11,35.82-.13A2,2,0,0,1,337.94,416.43Z" transform="translate(-39.11 -320.61)"/><path class="cls-2" d="M525.44,489.13q0,4.39,0,8.79c0,.44.09,1-.52,1.07-.86.09-.88-.55-.83-1.17,0-2.89-.07-5.77-.11-8.65Z" transform="translate(-39.11 -320.61)"/><path class="cls-2" d="M478.62,526c-2.32,0-4.65.11-7,0-1.35-.08-3.24.85-3.93-1-.57-1.48.63-2.82,1.37-4.08,2.8-4.77,7.47-5.37,12.25-4.83,3.92.45,6.38,3.22,7.93,6.77,1,2.27.53,3.35-2.2,3.2S481.44,526,478.62,526Z" transform="translate(-39.11 -320.61)"/><path class="cls-2" d="M139.36,448.29c4.44.06,8.89.17,13.33.17,2.26,0,4.23.46,5.68,2.33a4.67,4.67,0,0,1,.79,4.21c-.49,1.79-2.16,1.12-3.35,1.13-7.25.06-14.5,0-21.76,0-1.87,0-3.82.22-3.5-2.63,4.11-2.71,8.7-.34,12.24-1.21-3.56-.82-8.14,1.4-12.29-1.16a2.31,2.31,0,0,0-.29-.81C132.48,446.25,136.47,449.67,139.36,448.29Z" transform="translate(-39.11 -320.61)"/><path class="cls-2" d="M191.85,328.07c-.26.92-.75,1.61-1.69,1.56-1.1-.06-1.91-.69-1.8-1.87a1.65,1.65,0,0,1,1.66-1.51C191.24,326.21,191.69,327.07,191.85,328.07Z" transform="translate(-39.11 -320.61)"/><path class="cls-2" d="M198,327.65c-.07,1.25-.7,1.87-1.51,2a1.66,1.66,0,0,1-2-1.67,1.61,1.61,0,0,1,1.47-1.67C197.14,326.08,197.62,327,198,327.65Z" transform="translate(-39.11 -320.61)"/><path class="cls-2" d="M204.08,328a1.63,1.63,0,0,1-1.92,1.59,1.5,1.5,0,0,1-1.48-1.63,1.67,1.67,0,0,1,1.9-1.74A1.74,1.74,0,0,1,204.08,328Z" transform="translate(-39.11 -320.61)"/><path class="cls-2" d="M160.62,465.18q63.82,0,127.64.07a18.87,18.87,0,0,0,2.47-.28v2.55c-2-.09-4-.25-6-.25q-62.05,0-124.1.07l-1.31-.08,0-2.06Z" transform="translate(-39.11 -320.61)"/><path class="cls-2" d="M130.5,451.17h18.34l0,1.45c-6,1.34-12.28-.29-18.31.92C130.53,452.75,130.51,452,130.5,451.17Z" transform="translate(-39.11 -320.61)"/><path class="cls-2" d="M249.16,481.73c-.6,2.61-1.88,4.64-4.92,4.44a4.15,4.15,0,0,1-4.25-4.49,4.21,4.21,0,0,1,4.74-4.5C247.41,477.27,248.71,479.16,249.16,481.73Z" transform="translate(-39.11 -320.61)"/><path class="cls-2" d="M435.35,507.78c.33.36.67.71,1,1.07-1.16,1.81-3,1.11-4.54,1.11q-64.72.06-129.45.09c-3.65,0-5.41-.68-5.38-4.86.15-25,.07-50,.09-74.94,0-1.26-.43-2.7.95-3.62l1,1q-.06,38.27-.14,76.52c0,2.45.14,3.95,3.36,3.94Q368.81,507.81,435.35,507.78Z" transform="translate(-39.11 -320.61)"/><path class="cls-2" d="M127.37,484.12c1-3,3.25-.49,4.82-1a2.8,2.8,0,0,1,1.2,4.16,2.74,2.74,0,0,1-3,1.32C127.71,488.26,128.23,485.71,127.37,484.12Z" transform="translate(-39.11 -320.61)"/><path class="cls-2" d="M127.37,484.12c.28.11.77.19.8.35.39,2,.69,4.38,3.48,3.44,2.95-1,1.2-3.11.54-4.83,3,.33,2.55,2.56,2.07,4.33s-2.3,2.21-4,1.91C127.23,488.78,127,486.58,127.37,484.12Z" transform="translate(-39.11 -320.61)"/><path class="cls-2" d="M151.86,481.83H138.94l0-.59h12.92Z" transform="translate(-39.11 -320.61)"/><path class="cls-2" d="M138.9,485.34h8.71C144.74,486.87,141.8,486.32,138.9,485.34Z" transform="translate(-39.11 -320.61)"/><path class="cls-2" d="M142,520.78a2.09,2.09,0,0,1-2,2.24,2.09,2.09,0,1,1-.39-4.16C140.94,518.67,141.61,519.53,142,520.78Z" transform="translate(-39.11 -320.61)"/><path class="cls-2" d="M104.66,443.63c-.45,1.17-1,2.72-1.62,4.25l-7.47,18.89c-.63,1.6-1.34,3.32-3.5,2.47-1.83-.72-1.48-2.25-.87-3.77q4.51-11.27,9-22.56c.52-1.33,1.28-2.51,2.82-2.3C104.26,440.79,104.8,441.9,104.66,443.63Z" transform="translate(-39.11 -320.61)"/><path class="cls-2" d="M89.22,461.25c-.37,2.16-1.89,3.11-3.47,1.85A86.77,86.77,0,0,1,78,455.54a1.85,1.85,0,0,1,0-2.69c2.4-2.48,4.85-4.94,7.36-7.32a2.1,2.1,0,0,1,3.11,0c1,1,1.12,2.27,0,3-5.57,3.89-5.53,7.63,0,11.45C88.88,460.2,89,460.8,89.22,461.25Z" transform="translate(-39.11 -320.61)"/><path class="cls-2" d="M114.34,455.49c-.59-2.67-2.16-3.27-3-4.46-1.12-1.69-4.78-2.9-2.19-5.42,2.16-2.1,3.78.72,5.2,2.1,6.41,6.22,5.73,10.61-2.25,15.19-1.07.62-2.18,1-3.16,0-1.22-1.24-.66-2.45.43-3.4C111.16,458,113,456.58,114.34,455.49Z" transform="translate(-39.11 -320.61)"/><path class="cls-2" d="M415.34,433.14c1.47-6.68,5.81-10.9,11.78-13.8,2.07-1,4.77-.65,6.08-3.54.54-1.18,3.58-1.1,4.61-.22,5.48,4.67,13.85,5.56,17.1,13.27.28-2.94,1.27-5.66-.77-8.13-.79-1-.08-1.93.64-2.61a1.93,1.93,0,0,1,2.71-.05c.84.67,1.36,1.63.76,2.6-2.9,4.6-.94,9.66-1.5,14.48.1.68,0,1.36-.85,1.21-1.3-.21-1.56-1.45-2.13-2.38-1.6-4.08-3.86-7.69-7.63-10.12-2.66-1.71-5.32-3.46-8.72-1.55a5.3,5.3,0,0,1-3.42.15c-6.31-1-10.23.84-13.62,6.24-1.29,2.05-1.65,4.75-4.11,6C415.4,434.5,415,434,415.34,433.14Z" transform="translate(-39.11 -320.61)"/><path class="cls-2" d="M457.44,442.31c-.87,5.12-1.67,10.23.73,15.19a2,2,0,0,1-.89,2.92,1.92,1.92,0,0,1-2.3,0c-1-.76-1.63-1.81-.78-2.95,2-2.66.92-5.53,1.14-9.44-4.19,5.87-8.37,10.14-14.81,11.22a1.59,1.59,0,0,1-.43-1.31,3.35,3.35,0,0,1,2.12-1.94A19.74,19.74,0,0,0,454,441.73C455.4,440.58,456.7,439.82,457.44,442.31Z" transform="translate(-39.11 -320.61)"/><path class="cls-2" d="M415.34,433.14c.39.42.78.85,1.18,1.27,3.92,2.06,4.29,3.92,1.68,8.33-1.26.56-2.45,0-3.66-.26-3.05-1.27-4-4.45-1.66-6.49A19.77,19.77,0,0,0,415.34,433.14Z" transform="translate(-39.11 -320.61)"/><path class="cls-2" d="M457.44,442.31c-1.09-1.19-2.1-1.07-3,.2-2.45.77-2.84-1-3-2.65-.35-2.77.2-5.25,3.2-6.44,1.32-.17-.08,3.08,2.18,1.72C460.18,437.53,460.4,439.78,457.44,442.31Z" transform="translate(-39.11 -320.61)"/><path class="cls-2" d="M399,451.24c1.54,3.3.48,6.78.69,10.17.11,1.79-1.07,2.67-2.8,2.8-.17,0-.34,0-.5,0-10.35,1.25-13.29-2.59-9.91-13a1,1,0,0,1,1.37,0c.75,1.91.23,3.87.15,5.8-.14,3.56,1.42,5,5,4.92s4.41-1.95,4.35-5c0-1.92-.67-3.89.23-5.78A1.32,1.32,0,0,1,399,451.24Z" transform="translate(-39.11 -320.61)"/><path class="cls-2" d="M414.54,442.48c.7-1.05,1.4-1.06,2.11,0,2.89,6.34,7.52,11.17,13.17,15.13-.22.83-.63,1.3-1.55.81C420.5,455.84,416.42,450.1,414.54,442.48Z" transform="translate(-39.11 -320.61)"/><path class="cls-2" d="M399.56,433.5c.05.82.16,1.64.14,2.46-.23,10.79,2.18,9.58-10.25,9.7-2.67,0-4-.9-3.87-3.74s.14-5.6.2-8.41c1-.15,1.4.47,1.76,1.2a8,8,0,0,1,.47,3.36c-.22,3.39,1,5,4.73,5s4.7-2,4.58-5.21a6.86,6.86,0,0,1,.91-4.23A.87.87,0,0,1,399.56,433.5Z" transform="translate(-39.11 -320.61)"/><path class="cls-2" d="M428.27,458.42l1.29-1c5.65-3.21,7.4-3.12,10.89.56,0,.41.05.83.08,1.24-2.91,3-5.75,5.83-9.15.42C430.9,458.91,429.34,458.82,428.27,458.42Z" transform="translate(-39.11 -320.61)"/><path class="cls-2" d="M398.67,426.56c-3.52,2-7.31.57-11,.8a2.08,2.08,0,0,1-1.25-.69c-1.85-1.79-1-10.81,1.22-12.95a2.32,2.32,0,0,1,.64,1.33,8.18,8.18,0,0,1,0,1c-.78,9.12-.78,9.12,8.4,8.95a5.24,5.24,0,0,1,2,.28A.8.8,0,0,1,398.67,426.56Z" transform="translate(-39.11 -320.61)"/><path class="cls-2" d="M386.84,434.56l-1.06-1.05c3.17-2.95,10.58-2.95,13.78,0l-1.45,0C394.51,435.56,390.66,434.94,386.84,434.56Z" transform="translate(-39.11 -320.61)"/><path class="cls-2" d="M398.67,426.56l-.09-1.21c-2.15-3-1.36-6.26-.94-9.5a3.19,3.19,0,0,1,1-1.44A15.23,15.23,0,0,1,398.67,426.56Z" transform="translate(-39.11 -320.61)"/><path class="cls-2" d="M398.68,414.41l-.06,1.2c-3.74.61-7.47,1.12-10.94-1.06v-.83C391.36,413.7,395.12,412.53,398.68,414.41Z" transform="translate(-39.11 -320.61)"/><path class="cls-2" d="M399,451.24l-1.38.11a8.58,8.58,0,0,1-9.92,0l-1.22-.07A15.83,15.83,0,0,1,399,451.24Z" transform="translate(-39.11 -320.61)"/><path class="cls-2" d="M382.81,391.69c-.13,1.29-.75,1.88-1.61,1.86a1.55,1.55,0,0,1-1.58-2,1.44,1.44,0,0,1,1.79-1.21C382.32,390.49,382.83,391.05,382.81,391.69Z" transform="translate(-39.11 -320.61)"/><path class="cls-2" d="M387,390.38c1-.08,1.69.32,1.83,1.21a1.54,1.54,0,0,1-1.55,2,1.6,1.6,0,0,1-.28-3.16Z" transform="translate(-39.11 -320.61)"/><path class="cls-2" d="M376.75,520.81a39.17,39.17,0,0,1-19.3.1l0-1.79c6,0,12,0,18,0,1.17,0,1,1.06,1.21,1.78Z" transform="translate(-39.11 -320.61)"/><path class="cls-2" d="M337.94,416.43l-2.28,0q.09-27.29.19-54.57l.9-.91c1.76,1.61,1,3.72,1,5.6C337.86,383.17,337.89,399.8,337.94,416.43Z" transform="translate(-39.11 -320.61)"/><path class="cls-2" d="M224.81,401.29H199.5l0-.9h25.29Z" transform="translate(-39.11 -320.61)"/><path class="cls-2" d="M216,359.45h23.16l0,.88H215.94Z" transform="translate(-39.11 -320.61)"/><path class="cls-2" d="M247.54,352.21H232l0-.75h15.57Z" transform="translate(-39.11 -320.61)"/><path class="cls-2" d="M212.61,392.94h-13l0-.88h13.06Z" transform="translate(-39.11 -320.61)"/><path class="cls-2" d="M199.49,360.06a23.94,23.94,0,0,1,13.24-.15C208.33,361.41,203.89,360.81,199.49,360.06Z" transform="translate(-39.11 -320.61)"/><path class="cls-2" d="M216,392h12.82c-4.22,1.73-8.48,1.49-12.73,1.29Z" transform="translate(-39.11 -320.61)"/><ellipse class="cls-2" cx="195.97" cy="63.72" rx="17.69" ry="0.41"/><path class="cls-2" d="M228.67,351.39a12.25,12.25,0,0,1-10.7,0Z" transform="translate(-39.11 -320.61)"/><path class="cls-2" d="M199.72,384h19v.61h-19Z" transform="translate(-39.11 -320.61)"/><path class="cls-2" d="M251.61,360.08a13.71,13.71,0,0,1-9.16-.06A10.62,10.62,0,0,1,251.61,360.08Z" transform="translate(-39.11 -320.61)"/><path class="cls-2" d="M199.67,375.9h18.61l0,.49H199.82Z" transform="translate(-39.11 -320.61)"/><path class="cls-2" d="M239.22,392.33c-2.22,1.71-4.48.86-6.74.53C234.59,391,237,391.81,239.22,392.33Z" transform="translate(-39.11 -320.61)"/><path class="cls-2" d="M205.64,351.86c-2.12,1.17-4.17,1.32-7.55-.3C201.63,350.66,203.68,350.57,205.64,351.86Z" transform="translate(-39.11 -320.61)"/><path class="cls-2" d="M214.78,351.61c-2.07,1.51-4.14,1.5-7.08.34C210.53,350.26,212.69,351.05,214.78,351.61Z" transform="translate(-39.11 -320.61)"/><path class="cls-2" d="M234.65,376.61h-12l0-.57h11.89Z" transform="translate(-39.11 -320.61)"/><path class="cls-2" d="M199.72,409.08c3.55-1,7.2-1,12.19-.21C207,410,203.4,409.46,199.72,409.08Z" transform="translate(-39.11 -320.61)"/><path class="cls-2" d="M211.89,368.33c2.86-1.05,5.83-1,9.91-.3C217.83,369.28,214.9,368.72,211.89,368.33Z" transform="translate(-39.11 -320.61)"/><path class="cls-2" d="M199.7,368.2a17.73,17.73,0,0,1,9.67,0A20.05,20.05,0,0,1,199.7,368.2Z" transform="translate(-39.11 -320.61)"/><path class="cls-2" d="M524.08,497.82c.41.6.84.85,1.35.1,1.28.41,2.86-.37,3.9,1a1,1,0,0,1,.1,1.33,4.14,4.14,0,0,1-2.72,1c-2.85.09-5.14.43-5.11,4.28s2.29,4.2,5.15,4.26a5.86,5.86,0,0,1,1.92.42,3.06,3.06,0,0,1,1.46,1.67c-2.9,2.35-6.23,1-9.36,1-1.66,0-2.32-1.6-2.34-3.23a45.92,45.92,0,0,0-.06-5.38C517.82,499.82,519.7,497.75,524.08,497.82Z" transform="translate(-39.11 -320.61)"/><path class="cls-2" d="M530.13,511.86l-.93-1a10.23,10.23,0,0,1,0-10.69c.05-.43.11-.85.16-1.28C532,503.08,530.47,507.51,530.13,511.86Z" transform="translate(-39.11 -320.61)"/><path class="cls-2" d="M244.63,484.64c-1.89-.37-3.16-1.31-3.1-2.95a2.82,2.82,0,0,1,3.26-2.9,2.66,2.66,0,0,1,2.47,3.09A2.88,2.88,0,0,1,244.63,484.64Z" transform="translate(-39.11 -320.61)"/><path class="cls-2" d="M103.43,443q-5,12.42-9.94,24.84l-1.37-.53,9.87-25Z" transform="translate(-39.11 -320.61)"/><path class="cls-2" d="M87.65,446.78c-7.3,5-7.15,9.9.29,14.81C77.69,456.36,77.62,453.29,87.65,446.78Z" transform="translate(-39.11 -320.61)"/><path class="cls-2" d="M110.28,462.21c-.21-.59-.33-.76-.29-.85,1.39-3,6.18-4.33,5.69-7.48-.39-2.5-3.83-4.54-5.65-7.07,3.53,1.48,7.6,4.36,7.71,7.16C117.87,457.33,113.41,459.75,110.28,462.21Z" transform="translate(-39.11 -320.61)"/><path class="cls-2" d="M440.45,458c-3.43-4-7.24-.7-10.89-.56-6.9-2.77-11.64-7.39-12.91-15,4.19-2.76,2-5.41-.13-8.07,2.05-7.45,6.75-12.34,14.22-14.54,4.53,4.44,10.5-2,15.38,2.25,3.73,3.25,7,6.5,8.45,11.3-.38,2.38-2.89,4-2.13,6.88.33,1.24.66,2.05,2,2.21C453.6,451.12,447.58,455.06,440.45,458Z" transform="translate(-39.11 -320.61)"/><path class="cls-2" d="M437.52,418.54c0,1.18-.56,1.78-1.8,1.64s-1.46-1.08-1.4-2.09.66-1.37,1.59-1.39C437.19,416.67,437.57,417.41,437.52,418.54Z" transform="translate(-39.11 -320.61)"/><path class="cls-2" d="M387.7,451.34h9.92c1.65,2.95.54,6.14.79,9.22.13,1.71-1,2.31-2.51,2.33-2,0-4,0-6,0s-3.25-.65-3-2.86C387.19,457.17,386.1,454.13,387.7,451.34Z" transform="translate(-39.11 -320.61)"/><path class="cls-2" d="M386.84,434.56c3.58-2.28,7.51-.73,11.27-1,.12,1.47.34,2.94.34,4.4,0,7.34.72,6.07-6.23,6.53-4.44.29-6.08-1.09-5.39-5.45A27.54,27.54,0,0,0,386.84,434.56Z" transform="translate(-39.11 -320.61)"/><path class="cls-2" d="M435.78,461a1.67,1.67,0,0,1-1.94-1.69,1.5,1.5,0,0,1,1.67-1.84c1.12,0,1.92.31,1.91,1.62C437.41,460.15,437.12,461,435.78,461Z" transform="translate(-39.11 -320.61)"/><path class="cls-2" d="M387.68,414.55c3.61.7,7.45-.93,10.94,1.06q0,4.86,0,9.74c-2.95,1.73-6.17.62-9.26.85a2,2,0,0,1-2.43-2.4C387.13,420.72,386,417.52,387.68,414.55Z" transform="translate(-39.11 -320.61)"/><path class="cls-2" d="M529.17,500.18l0,10.69c-.49.05-1,.14-1.47.16-7.3.24-9.12-2.1-7.37-9.17a2,2,0,0,1,2.4-1.8C524.9,500.09,527,500.14,529.17,500.18Z" transform="translate(-39.11 -320.61)"/></svg>