<?xml version="1.0" encoding="utf-8"?>
<!-- Generator: Adobe Illustrator 24.0.2, SVG Export Plug-In . SVG Version: 6.00 Build 0)  -->
<svg version="1.1" id="Capa_1" xmlns="http://www.w3.org/2000/svg" xmlns:xlink="http://www.w3.org/1999/xlink" x="0px" y="0px"
	 viewBox="0 0 595.3 841.9" style="enable-background:new 0 0 595.3 841.9;" xml:space="preserve">
<style type="text/css">
	.st0{fill:#951717;}
	.st1{fill:#BCBDC3;}
	.st2{fill:#9C9DA3;}
	.st3{fill:#B2B3B9;}
	.st4{fill:#94959A;}
	.st5{fill:#A2A3A9;}
	.st6{fill:#ADAEB4;}
	.st7{fill:#8F9096;}
	.st8{fill:#A5A6AB;}
	.st9{fill:#DAD7D9;}
	.st10{fill:#4A3428;}
	.st11{fill:#3B281D;}
	.st12{fill:#321F13;}
	.st13{fill:#3D291D;}
	.st14{fill:#737377;}
	.st15{fill:#261408;}
	.st16{fill:#CDCDCD;}
	.st17{fill:#CECECE;}
	.st18{fill:#402D21;}
	.st19{fill:#2E1E14;}
	.st20{fill:#BBBBBB;}
	.st21{fill:#3E2A1F;}
	.st22{fill:#BCBCBD;}
	.st23{fill:#5A4438;}
	.st24{fill:#2B1C12;}
	.st25{fill:#ACACAC;}
	.st26{fill:#A8A8A8;}
	.st27{fill:#DFBAA7;}
	.st28{fill:#E0B9A6;}
	.st29{fill:#CDA690;}
	.st30{fill:#24150A;}
	.st31{fill:#CEA892;}
	.st32{fill:#A98169;}
	.st33{fill:#B68F79;}
	.st34{fill:#C8A796;}
	.st35{fill:#C7A592;}
	.st36{fill:#775B4F;}
	.st37{fill:#D6D7DC;}
	.st38{fill:#C0C1C7;}
	.st39{fill:#D4D5DA;}
	.st40{fill:#818287;}
	.st41{fill:#F7D2BF;}
	.st42{fill:#D9B19A;}
	.st43{fill:#D9B19B;}
	.st44{fill:#CCA48C;}
	.st45{fill:#BD947C;}
	.st46{fill:#E7C0AB;}
	.st47{fill:#AE836A;}
	.st48{fill:#EAC4B1;}
	.st49{fill:#CDA48E;}
	.st50{fill:#A0755D;}
	.st51{fill:#C3967E;}
	.st52{fill:#311E12;}
	.st53{fill:#432D20;}
	.st54{fill:#C69E86;}
	.st55{fill:#B38A71;}
	.st56{fill:#63483C;}
	.st57{fill:#2B1609;}
	.st58{fill:#926850;}
	.st59{fill:#321C0E;}
	.st60{fill:#987057;}
	.st61{fill:#664A3E;}
	.st62{fill:#8F664E;}
	.st63{fill:#220D03;}
	.st64{fill:#A9816A;}
	.st65{fill:#321E10;}
	.st66{fill:#A77B62;}
	.st67{fill:#2E190B;}
	.st68{fill:#5C4135;}
	.st69{fill:#8A654E;}
	.st70{fill:#6F5447;}
	.st71{fill:#664B3F;}
	.st72{fill:#543D30;}
	.st73{fill:#E6C0AB;}
	.st74{fill:#EAE7E6;}
	.st75{fill:#EAE8E7;}
	.st76{fill:#E7E5E5;}
	.st77{fill:#A48870;}
	.st78{fill:#C79F88;}
	.st79{fill:#604C40;}
	.st80{fill:#5D473B;}
	.st81{fill:#B28E79;}
	.st82{fill:#857063;}
	.st83{fill:#614C41;}
	.st84{fill:#CAA18B;}
	.st85{fill:#8A7467;}
	.st86{fill:#E3BBA5;}
	.st87{fill:#EAE9E9;}
	.st88{fill:#3B261A;}
	.st89{fill:#442C20;}
	.st90{fill:#FBD7C4;}
	.st91{fill:#2D1B0E;}
	.st92{fill:#4C2F1F;}
	.st93{fill:#DDB8A5;}
	.st94{fill:#C8A08B;}
	.st95{fill:#493226;}
	.st96{fill:#684D40;}
	.st97{fill:#5C4235;}
	.st98{fill:#5A4033;}
	.st99{fill:#EFCAB5;}
	.st100{fill:#DBB49E;}
	.st101{fill:#DBB49F;}
	.st102{fill:#43301B;}
	.st103{fill:#24170F;}
	.st104{fill:#60482A;}
	.st105{fill:#584320;}
	.st106{fill:#A48A73;}
	.st107{fill:#745941;}
	.st108{fill:#907557;}
	.st109{fill:#846A5B;}
	.st110{fill:#41331D;}
	.st111{fill:#23150F;}
	.st112{fill:#584121;}
	.st113{fill:#7E6346;}
	.st114{fill:#59462B;}
	.st115{fill:#74573D;}
	.st116{fill:#030303;}
	.st117{fill:#90644C;}
	.st118{fill:#402A1E;}
	.st119{fill:#CAA58F;}
	.st120{fill:#89644E;}
	.st121{fill:#523A2C;}
	.st122{fill:#361A0B;}
	.st123{fill:#B38872;}
	.st124{fill:#FDD9C6;}
	.st125{fill:#EFEEE8;}
	.st126{fill:#030202;}
	.st127{fill:#826345;}
	.st128{fill:#F8F4ED;}
</style>
<ellipse class="st0" cx="288.6" cy="396.6" rx="200.6" ry="192"/>
<g>
	<path class="st1" d="M409.4,446.7c3.3,5.5,2.4,11.2,1.2,17c-2-3.1-1.1-6.2-0.6-9.4c-0.7,9-0.6,18-2.5,26.9
		c-1.1,4.9-1.2,9.9-2.9,14.6c-2.4,6.5-5.1,7.6-11.9,6.3c-14-2.6-27.5-7.5-41.8-9.1c-7.7-0.9-14.7-5-22.5-5.9
		c-2.8-0.3-5.5-1.2-8.3-0.8c-1,0.2-2.1,0.3-3-0.2c-8.5-4.7-18.1-4.7-27.3-6.2c-12.6-2-24.7-6.4-37.4-8.1c-6.5-0.9-12.8-3.3-19.6-3.4
		c-8.1-0.2-15.7-3.1-23.1-5.5c-8.5-2.7-16.9-4-25.5-5.3c-5.5-0.8-9.4-3.9-12.6-8.2c-0.2-1.5,0.6-2.4,1.9-3
		c8.9-0.9,17.9-0.7,26.8-0.2c3.8,0.2,7.6,0.6,11.4,0.6c37.8,0,75.6,0,113.4,0c10.3,0,20.6,2,30.9,0.9c11.8-1.3,23.6-0.6,35.4-0.9
		C397.5,446.9,403.5,448,409.4,446.7z"/>
	<path class="st2" d="M406.8,529.4c1,1,1.9,2,2.9,3c0.3,2.2-1.2,4-1.3,6c-0.5,1.6-0.6,3.2-1,4.8c-1.8,3-1.5,6-0.1,9.1
		c0.1,0.5,0.2,0.9,0.3,1.4c0,1-0.1,1.9-0.6,2.7c-0.4,0.3-0.8,0.5-1.3,0.7c-2,3.8-2.1,8-2.7,12c-0.4,2.8-1.1,5.5-2.4,8.1
		c-0.9,1.7-2,3.4-3.9,3.5c-4.1,0.3-8.5,1.3-12.4,0.3c-11-2.9-22.4-3-33.4-5.3c-10.1-2-20.1-4.4-30.1-6.9c-9.3-2.3-18.6-5.3-28.4-5.1
		c-2.3,0.1-4.7-0.5-6.8-1.5c-8.5-4.2-17.6-4.7-26.7-5.3c-4.7-0.3-8.5-2.7-12.7-4.3c-2.4-0.9-4.6-1.8-7.2-1.7
		c-4.9,0.1-9.6-0.5-13.9-3.1c-1.3-0.8-2.9-0.9-4.4-0.9c-6.2,0.2-12.1-1.3-18.1-2.4c-5.2-1-10-2.5-14.9-4.1c-4.6-1.5-7-4-8.3-8.3
		c-2.2-7.5-3.2-15.3-4.1-23c-0.4-3.6-0.1-7.4-2.4-10.5c-0.1-5.6-0.1-11.2-0.2-16.9c-0.1-2.2-1.9-5.8,1.1-6.2c2.8-0.4,2,3.4,2.4,5.5
		c0.6,2.9,1.2,5.8,1.1,8.8c0.1,7.9,2.1,15.4,4.1,22.9c0.6,2.3,2,3.6,4.4,4.3c11.8,3.3,23.9,6.1,35.9,8c7.6,1.2,15.2,2.8,22.8,4.2
		c10.4,2,20.8,3.9,30.9,7.5c6.1,2.2,12.9,2.5,19.4,3.9c13.6,3,27.4,5.2,41,8.1c13.4,2.9,27,5.2,40.4,8.4c5.1,1.3,10.5,1.6,15.5,3.4
		c4.3,1.6,7.5-0.7,8.3-5.4c1.1-6.6,2.8-13,3.4-19.7C403.5,533.1,403,529.9,406.8,529.4z"/>
	<path class="st3" d="M171.6,449.6c1.9,0,2.9,1.4,4.1,2.6c1.8,1.9,3.9,3.2,6.4,3.6c5.3,0.9,10.7,1.6,16,2.6
		c3.7,0.7,7.6-0.3,10.4,3.4c1,1.3,2.8,0.8,4.3,0.8c2.2-0.1,4.4,0,6.3,1.1c4.6,2.5,9.8,3.5,14.8,3.7c12.6,0.3,24.1,5.9,36.5,6.5
		c3.5,0.2,6.8,3.1,10.7,3.2c7.4,0.3,14.2,5,21.9,2.7c1.4-0.4,2.6,0.5,3.8,1.1c5.3,2.6,10.8,3.7,16.9,4.4c7.2,0.8,14.9,1.6,21.8,5.5
		c4,2.2,9.3,3,13.9,2.7c6.7-0.4,12.1,2.8,18.1,4.3c5.9,1.5,12.1,1.7,17.9,3.8c3,1.1,5.5-0.2,7.1-3.6c2.4-5.2,2-11,4-16.2
		c1.6,1.6,1.5,3.7,1.4,5.6c-0.4,9.6-1.5,19.2-3.3,28.7c-0.7,3.7-4,6.2-8.2,5.8c-7.1-0.7-14.2-1.5-21-4.1c-0.9-0.4-1.8-1-2.8-1
		c-10.1-0.7-19.8-4.1-29.7-5.5c-6.2-0.9-12.4-2.3-18.5-3.5c-8.2-1.6-16.3-4.9-24.9-4c-1.9-1.5-4.2-2.1-6.5-2.6
		c-12.3-1.1-23.3-7.5-35.8-8c-6.9-0.3-13.5-3.4-20.4-4.2c-9.7-1.1-18.7-4.8-28.4-6.2c-8.9-1.3-18.2-3.5-26.9-6.9
		c-3.7-1.4-4.8-4.8-6-8.1c-1.3-3.7-0.7-7.6-1.8-11.3c-0.2-0.6,0.1,0.1-0.3-0.4c-0.2-0.2-0.5,0.1-0.4,0.6c-0.3,2.9,0.9,6-1.5,8.5
		C170.3,459.7,170,454.6,171.6,449.6z"/>
	<path class="st4" d="M172.8,498.6c4.9,2.3,3.1,7.1,3.7,10.8c1.3,7.6,1.9,15.4,4.2,22.9c1.1,3.5,2.4,7,7.4,6.5
		c1.6-0.2,3.1,1,4.4,2.2c2.1,2.1,4.3,3,7.1,1.6c1.6-0.8,2.9,0,4.2,0.6c4.4,2.2,9.1,2.8,14,2.5c3.6-0.2,7.1-0.4,10.3,2.3
		c1.6,1.4,4.8,1.7,7.1,1.5c6.8-0.7,12.5,2.2,18.2,5c4.6,2.3,9.8,0.7,14.7,1.9c5.7,1.4,11.7,1.3,17.1,4.4c2.2,1.3,5.1,1.8,7.6,1.7
		c9.3-0.5,17.9,2.7,26.7,4.7c16.4,3.7,32.5,8.1,49.4,9.7c4.7,0.5,9.8,0.6,14.7,2.5c3.9,1.6,9.2,1.2,13.4,0c3.3-1,3.7-5.6,4.4-9
		c0.9-4.7,1.4-9.5,2.1-14.2c0.1-0.8,0.1-2.3,1.7-1.5c0.3,0.2,0.2,1.2,0.3,1.9c1.8,2.2,1.4,4.6,0.8,7c-1.3,2.1-1.4,4.3-1.5,6.7
		c-0.4,10.4-4.7,14.3-15,13.7c-0.5,0-1,0-1.5,0c-25.3,0.5-50.6-1.1-75.9-1.2c-14.9-0.1-30-0.1-44.8-2.1c-8.1-1.1-16.7-0.5-24.5-3.9
		c-2.4-1-5.2-1.4-7.8-1.4c-6,0-11.2-1.5-16.3-4.9c-4.4-2.9-10.4-1.6-15.6-2.2c-4.4-0.5-8.6-1-12.3-3.4c-0.8-0.5-1.7-1.2-2.7-1.3
		c-6.1-0.5-7.8-4.5-8.4-9.9c-0.9-6.6-2.7-13-3.1-19.7c-0.1-1.7-0.7-3.3-2.2-4.3C173,519.3,174.1,508.9,172.8,498.6z"/>
	<path class="st5" d="M406.8,529.4c-3.7,3.8-2.1,8.8-3,13.2c-1,4.5-2.1,9-2.5,13.6c-0.4,5.3-5.8,7.8-11,5.6
		c-6.3-2.8-13.4-2.1-19.7-4.4c-9-3.3-18.8-2.8-27.9-6c-7.8-2.8-16.4-3.5-24.6-4.8c-9.1-1.4-18-4.1-27-5.5c-4.2-0.7-8.2-3.8-12.8-1.8
		c-0.6,0.3-1.6-0.3-2.3-0.6c-6.8-3.8-14.5-4-21.6-6.2c-7.7-2.3-15.8-3.1-23.6-5.2c-5.6-1.5-12.3-1-18.1-2.9
		c-7.1-2.3-14.9-1.3-21.5-5.2c-0.7-0.4-1.6-0.8-2.4-0.6c-6.9,1.2-8.6-3.2-9.6-8.6c-1.3-6.5-2.9-12.9-3.3-19.5
		c2.7,0.3,2.6,2.6,3.2,4.4c0.8,2.5,1.3,5.2,2.4,7.6c1,2.1,2.5,3.2,4.9,3.6c13,2.3,26,4.7,38.9,7.7c10.6,2.4,21,6.3,32.1,6.8
		c8.2,0.4,15.8,3.6,23,7.7c0.6,0.4,1.2,0.9,1.7,1.4c1.6,2.5,3.5,4.6,6.8,2.6c1.7-0.9,3.5-1.3,5.3-0.7c4.1,1.3,7.1-0.1,9.3-3.6
		c0.4-0.4,0.7-0.7,1.1-1.1c2.4-4.5,5.5-5.5,10.6-4.1c8.3,2.2,17.1,2.8,25.4,4.8c8.6,2.1,17.9,2,26,6.2c1,0.5,2.2,1,3.3,1
		c7.8,0.4,15.4,2.5,23.1,3.8c4.7,0.8,6.4-0.2,7.7-4.8c1.9-6.9,3-13.9,4-21c0.7-4.3,0.7-8.7,3.7-12.9c1,2.7,0.9,4.7,0.3,6.8
		c0,1-0.1,1.9-0.1,2.9c-1.3,5.9,0.5,12-1,17.9C407.2,528.1,407,528.8,406.8,529.4z"/>
	<path class="st6" d="M408.5,506.7c0-1.6,0-3.3,0-5.9c-4.4,6.8-2.5,13.9-4,20.2c-1.3,5.4-1.5,11.1-3.9,16.3
		c-1.3,2.8-3.3,3.9-5.9,3.1c-10.9-3.4-22.7-2-33.2-7.2c-2-1-4.5-0.8-6.8-1.1c-9.2-1.3-18.1-4.3-27.5-4.9c-4.6-0.3-9.5-1.4-13.9-3.1
		c-4-1.5-5.8-0.9-7.1,2.8c-0.2,0.7-1.2,1-1.8,1.6c-1-1.9-1.2-4-2.7-5.8c-1.9-2.2-1.7-4.9-0.9-7.6c1.7-5.5,1.7-5.5-4.1-6.7
		c-1.4-0.5-1.7-1.6-1.2-2.9c0.6-1.4,1.4-2.6,3-2.9c5.3-2.1,10.3-0.1,15.4,1c12.3,2.7,24.7,4.8,36.9,7.3c7.4,1.5,15.3,1.5,22.1,4.1
		c7.1,2.7,14.3,3.7,21.5,5.1c5.7,1.1,8.1-1,9.1-6.5c1.8-10.6,3-21.2,2.9-32c0.9-9.3,1.9-18.6,2.8-27.9c0.4,0,0.9,0,1.3,0.1
		c0,3.3,0,6.7,0,10c-0.4,13.1-0.8,26.1-1.2,39.2C409.4,504.2,409.5,505.6,408.5,506.7z"/>
	<path class="st7" d="M174.7,529.5c1.8-2.1,2.7-1.3,3,1c0.7,4.2,1.4,8.5,1.9,12.7c0.5,4.6,2.1,9,2.4,13.7c0.2,3,1.9,5.4,5.6,4.7
		c3.7-0.7,4.8,3.7,8.2,4.1c6.4,0.7,12.7,2,19.1,1.9c2.6-0.1,4.8,0.4,6.7,2.5c2.6,2.8,5.9,3.8,9.9,3.7c5.7-0.3,11.2,0.7,16.5,3.1
		c0.6,0.3,1.3,0.8,1.9,0.7c7.4-1,14.4,1.8,21.6,2.2c25.9,1.4,51.8,1.6,77.7,2.2c12.6,0.3,25.2,0.5,37.9,0.7
		c14.8,0.2,15.2-0.3,16.5-15.2c0.1-1.6,0.4-3,2-3.7c2.5,3,1,6.5,1.4,9.7c-0.4,2.4-0.8,4.9-2.2,7c-4,5.4-9.7,6.5-16,5.8
		c-1.5-0.2-3-0.1-4.5-0.1c-63.4-0.7-126.7-1.3-190.1-0.9c-2.2,0-4.3,0-6.4-0.5c-6.8-1.6-8.9-4.1-9-11.1c-0.1-3.8-0.4-7.5-1-11.3
		c0.9,6.4,1.1,12.8,1.3,19.2c-0.1,1.3-0.3,2.5-1.4,3.4c-2.2-0.4-2.3-2.2-2.4-3.8c-0.8-13.5-1.5-27-2-40.6c0.1-2.9-0.5-5.9,0.4-8.8
		C173.9,530.9,174.3,530.2,174.7,529.5z"/>
	<path class="st8" d="M280.5,529.6c-7.6-3.1-15.1-7.2-23.5-7.6c-13.2-0.5-25.7-4.9-38.1-8.1c-9.3-2.4-19.2-1.7-27.9-6
		c-0.3-0.1-0.7-0.3-1-0.2c-9.5,1.8-10.8-5-12.3-11.6c-0.4-1.9-0.6-3.9-2.1-5.5c0.3-4.9-1.1-9.6-1.6-15.4c-2,2.7-1.1,4.8-1.5,6.6
		c-1.6-5.6-0.7-11.3-1.1-17c0.1-3.4,0.1-6.8,0.2-10.1c3.3,0.1,2.7,2.6,3,4.7c1.1,8.2,2.4,16.4,4.3,24.5c1.2,5.1,4.1,8,9.6,8.5
		c8.8,0.8,17.2,3,25.7,5.4c7.8,2.2,15.9,4.4,24.3,4.8c6.3,0.3,12.6,2.4,18.7,4.5c2.3,0.8,4.5,1.1,6.8,1.4
		c8.1,0.9,12.9,5.2,14.4,12.6C278.4,524,282,526.2,280.5,529.6z"/>
	<path class="st9" d="M409.4,446.7c-3,2.3-6.2,2.5-10.1,2.3c-13.1-0.6-26.2-0.9-39.4,0.2c-7.1,0.6-14.3,0.5-21.4,0.1
		c-2.6-0.1-5.2-0.6-7.9-0.6c-41,0-81.9,0.4-122.9-0.3c-11.3-0.2-22.9,0.6-34.2-1.7c3.3-3.8,7.7-1.1,11.5-2c1.8-0.4,4.4,1.5,5.4-1.7
		c2.1-2.3,4.9-1.5,7.6-1.6c0.9,0,1.7,0,2.6,0c2-0.1,3.9,0,5.9,0c1.4,0,2.8,0,4.1,0c1.9,0,3.9-0.1,5.8,0c1.4,0,2.8-0.1,4.2,0
		c1.1-0.1,2.3,0,3.4,0c2.3-0.1,4.6,0,7,0c3.3-0.3,6.7,0.1,10-0.1c11.1,0.1,22.1-0.3,33.2,0.2c5.3,1.4,10.5,0,15.7-0.2
		c6.4-0.2,12.8,1.6,19.2,0.2c13.4-0.4,26.8-0.3,40.1-0.1c9-0.1,17.8,1.8,26.8,1.1c2-0.1,4,0.1,6-0.4c1.4-0.4,2.9-0.6,4.4-0.5
		c2.3,0.1,4.8-0.4,6.1,2.3c3.3,2.3,6.9,0.7,10.4,1C405.2,444.8,407.7,444.3,409.4,446.7z"/>
	<path class="st10" d="M373.5,278.7c0.3,4.8,4.4,7.2,6.8,10.6c3.4,4.9,6.9,9.8,9,15.4c0.6,7.6,1.4,15.2,0.8,22.7
		c-0.6,7.3-2.8,14.6-4.6,21.8c-1.4,8-6.6,14.6-8.3,22.5c-1,1.9-2.1,3.7-3.2,5.5c-1.8,2.8-4,4.4-7.5,3c-2.7-1.6-1.8-4.8-3.1-7
		c-0.6-1.4-0.4-2.6,0.7-3.6c2.6-2.7,2.7-6.4,3.4-9.7c1.6-8.4,1.3-16.8-0.4-25.3c-1.5-7.8-1-15.9-1.9-23.8c-0.5-4.8-0.2-9.6-0.9-14.4
		c-0.5-3.7-0.6-7.5,4.6-8.2c-0.9-2.2-3-3.2-3-5.5c1.2-3.1,4.3-3.3,6.9-4.2C373,278.5,373.3,278.6,373.5,278.7z"/>
	<path class="st11" d="M178.9,332.6c0.3-6.2,1.4-12.2,4.1-17.9c0.5,0,1.1-0.2,1.4,0.2c3,3,5.6,6.5,11,4.4c1.9-0.7,2.5,2.2,2.3,4.1
		c-0.4,2.6-0.4,5.3-0.6,7.9c-1.4,14.4,2.1,27.9,6.9,41.2c0,6.9,0.1,13.8-0.5,20.8c-0.5,5.7,0.1,11.3-1.3,17.1
		c-1.1,4.7-3.1,6.1-7.3,5.8c-1.3-0.2-1.8-1.1-2.1-2.2c-0.4-2.1-0.3-4.2-0.7-6.3c-0.1-0.8,0-1.6,0.2-2.4c1.3-10.1-0.1-20.1-2.5-29.7
		c-3.4-13.7-6-27.6-9.8-41.3C179.5,333.8,179.3,333.1,178.9,332.6z"/>
	<path class="st12" d="M196.6,297.8c-0.7-4-3.5-5.1-7.1-5.3c-1.1,0-2.5,0.9-3.1-0.5c-0.6-1.3,0.5-2.4,1.3-3.5
		c2.7-3.7,6.6-4.6,10.8-4.9c1.9-0.2,3.9-0.1,5.9-0.1c4.1-1.3,5,1.9,5.7,4.4c1.6,5.6,5.1,10,8.7,14.3c2.2,2.7,4.7,3.5,8.3,2.9
		c8.8-1.6,17.3-0.4,25.8,2.5c6.2,2.1,11.8,5.1,17.5,8c9.4,5,16.1,12.9,22.4,21.2c1.7,2.2,3.7,4.2,5.2,6.6c0.9,1.5,2.6,2.7,1.8,4.9
		c-2.3,1.2-3.7-0.4-4.9-1.9c-1.6-1.8-3.2-3.6-5-5.3c-6-6.6-13-11.9-20.5-16.6c-1.3-0.8-2.7-1.3-3.5-2.7c-2.4-3.4-6.4-4.1-9.9-5.4
		c-8-3.1-16.3-5.7-25.2-3.6c-3.9,0.9-6.8,2.5-8.1,6.4c-0.6,1.7-1.3,3.6-2.7,4.7c-6.3,4.9-8.1,12.3-10.6,19.3
		c-1.6,2.5-2.5,5.5-5.9,6.3c-1.6-7.5,0.8-14.1,5.5-19.6c7.1-8.4,7.1-8.1,1-17c-3.3-4.7-7-8.7-11.5-12.2
		C197.4,300.2,196.2,299.5,196.6,297.8z"/>
	<path class="st13" d="M384.5,349.6c-0.1-6,2-11.7,3.4-17.3c1.9-7.6,0-15,0.4-22.5c0.1-1.8-0.2-3.6,1-5.1c4.3,8.2,7.2,16.9,9,26
		c-0.7,1.2-1.1,2.5-0.7,3.8c3.7,13.7-0.2,26.9-2.9,40.1c-1.5,7.3-2.4,14.7-3.7,22c-0.3,1.8-0.3,3.6,1,5.2c0.9,2.1-0.3,4.1-0.1,6.2
		c-0.1,2.7-1.1,5.3-1.1,8c-1.5,3.5,0.8,8-3,10.8c-2.1-1.6-2.5-4.1-2.4-6.3c0.3-12.6-3-25.2,0.7-37.8c-2.2,3.3-3.8,6.8-5,10.4
		c-0.3,0.5-0.8,0.7-1.4,0.7c-1.1-0.5-1.6-1.4-2-2.5c-1.1-8.4,0.9-16.5,3.1-24.5C382.3,361.2,385,355.8,384.5,349.6z"/>
	<path class="st14" d="M177.6,584.5c0-1,0.1-1.9,0.1-2.9c0.6-0.4,1.3-0.7,1.8-0.3c6.6,4.1,13.9,3.7,21.2,3.8
		c14.8,0.1,29.6-0.4,44.4-0.5c25.9-0.1,51.8,0.1,77.7,0.6c22.6,0.4,45.2-0.3,67.8,0.5c4.5,0.2,8.9-0.6,12.5-3.7
		c2.4,2.6,2.3,3.2-1.9,6.4c-2.3,1-4.8,1.1-7.3,1.1c-68.7,0-137.4,0-206.1,0c-2.5,0-5-0.3-7.3-1.1
		C179.3,587.5,176.9,587.2,177.6,584.5z"/>
	<path class="st10" d="M196.6,297.8c7.9,5.1,12.8,13,18.7,20c3.4,4.1,0.8,7.1-1.9,9.3c-7.2,5.9-8.9,14-9.8,22.5
		c1.6,1.6,1.4,3.6,1.3,5.6c-0.2,7.9,2.4,15.1,5.5,22.2c1.6,1.5,1.5,3.2,0.7,5c-0.5,0.7-1.2,0.9-2.1,0.8c-2.1-0.6-3.1-2.4-4.1-4.2
		c-0.9-2.1-1.4-4.3-2.4-6.4c-5.5-13.6-8.3-27.6-7-42.4c0.2-2.3,0.1-4.6,0.9-6.9c0.4-1,0.5-2.5-0.5-3.2c-1.1-0.9-2.1,0-3.1,0.7
		c-3.1,2.3-5.3,2.3-6.3-2.1c-0.4-1.8-2.1-2.9-3.5-4C185.2,307.2,190.2,302,196.6,297.8z"/>
	<path class="st10" d="M220.6,261.7c4.8-5.3,10.1-10.1,15.8-14.3c1.2-0.9,2.4-1.7,4-1.8c0.8-0.4,1.6-0.7,2.1,0.3
		c0.4,0.9-0.1,1.7-0.8,2.1c-2.3,1.3-4.6,2.6-7,3.5c7.5-3.5,14.9-7.3,22.9-9.7c7.6-2.3,15.5-3.7,23.1-6.1c2-0.6,4.7-1.5,6.2,1.4
		c-0.8,3.5-4,2.6-7.1,3.6c18.1-1.6,34,2.8,48.9,11.1c1.4,1.1,3,1.9,4.4,3c1,0.8,2.6,1.6,1.2,3.4c-2.4,0.6-4.3-0.6-6.1-1.7
		c-18.1-10.5-38-11.5-58-10.1c-10.3,0.7-19.7,5.6-28.6,10.8c-3.1,0.9-5.7,3-8.5,4.5c-5.5,3.5-10.5,7.5-13.3,13.7
		c-1.6,3.6-1.6,6.9,0,10.5c3.9,8.8,9.7,14.6,20.2,13.8c1.5,0.4,3,0.7,4,2.1c-1.2,3-3.8,2.2-6,2c-3.3-0.3-6.6-0.7-9.9-0.9
		c-4.1-0.3-7.3-2.1-9.4-5.6c-1.3-2.1-2.6-4.2-3.8-6.4c-2.7-5.2-3.1-10.3-0.5-15.7C216.4,270.7,219.3,266.5,220.6,261.7z"/>
	<path class="st15" d="M328.5,252.7c-8.3-3.5-16.3-7.8-25.3-9.6c-8.5-1.7-17.1-1.4-25.9-1.4c0.7-2.8,2.6-2.9,4.6-2.9
		c1.9,0,3.7,0.1,4.7-2c8.4-3.6,16.8-7.3,25.9-9c0.3,4-2.3,7.1-3.1,10.8c-0.4,1.7-0.9,3.3,0.7,4.5c1.4,1.1,2.4-0.4,3.5-0.9
		c5.1-2.2,8-6.5,10.2-11.4c6.4,0.4,15.1,8.8,15.7,15C339.9,250.6,334.4,254.1,328.5,252.7z"/>
	<path class="st16" d="M401.4,588.4c0.8-2.1,3.1-3.4,3-5.9c-0.7-1-0.8-2,0-3c0.4-2,0.8-4,1.1-6c1.3-5.6-0.4-11.4,1-17c0-1,0-2,0-2.9
		c-0.2-4.2-0.3-8.5,0.5-12.6c1.8-3.8,3.9-3,5.8-0.1c2.9,4.6,5.3,9.5,6,15.1c1.1,7.9,1.9,15.8,3.1,23.6c0.9,6.1,1.3,6.3,7.6,6.6
		c1.6,0.3,3.6-0.2,4,2.3C422.8,588.5,412.1,588.5,401.4,588.4z"/>
	<path class="st17" d="M177.6,584.5c1,1.3,2.1,2.6,3.1,3.9c-10.4,0-20.7,0-31.1,0c0.7-2.7,3.1-1.9,4.9-2.3c4.6,0.6,6.6-1.7,7.1-6.1
		c1.1-8.5,2.1-17.1,3.5-25.6c0.8-4.5,2.5-8.6,4.8-12.4c0.9-1.6,1.9-3.7,4.5-2.4c0.7,13.9,1.4,27.8,2.2,41.7
		C176.7,582.5,176.6,583.7,177.6,584.5z"/>
	<path class="st18" d="M220.6,261.7c1.3,5.7-3.2,9.4-5.1,13.9c-4.9,11.7,3.5,25.9,16.1,26c4,0,8,2.7,12,0.1c1.1-1,2.3-0.4,3.4,0
		c3.2,1.4,6.4,3.1,9.8,4.2c3.6,1.6,7.1,3.6,10.4,5.8c1.7,1.1,3.9,2.2,3.4,4.9c-1.8,0.3-3.1-0.9-4.5-1.7c-9.9-5.6-20.5-8.9-32-9.3
		c-2.1-0.1-4.3-0.1-6.3,0.8c-4.5,2.1-7.6-0.1-10.2-3.5c-3.7-4.6-7.5-9.2-8.8-15.3c-0.5-2.4-1.9-3.8-4.3-4.1c1.6-6.2,0.8-13,4.2-18.8
		c2.1,2.1-0.4,4.8,0.9,7.4c4.2-1,4.8-6,8.2-7.8C218.7,263.5,219.6,262.6,220.6,261.7z"/>
	<path class="st19" d="M178.9,332.6c3.4,1.3,3,4.8,3.7,7.3c2.6,10,4.4,20.3,7.1,30.3c3,11.2,3.9,22.7,4.4,34.2
		c0,0.9-0.6,1.1-1.3,1.2c-3.7-2.6-2.2-6.7-2.9-10.1c-2.8-10-7.6-19.3-9.5-29.6C178.3,354.8,178.1,343.8,178.9,332.6z"/>
	<path class="st20" d="M429.5,587.5c-8.1,0-8,0-9-8.1c-1-8.2-1.7-16.4-3.1-24.5c-0.9-5.2-3.4-10-6.3-14.5c-1.6-2.5-2.4,0-3.5,0.2
		c-0.6-0.7-0.6-1.3-0.1-2c-0.1-2.3,0-4.6,2.2-6.1c6,2,8.4,7.5,11.7,12.2c2.3,7.6,4.4,15.3,6.1,22.9
		C428.9,574,430.1,580.8,429.5,587.5z"/>
	<path class="st21" d="M328.5,252.7c11.2-1.9,12.4-5,5.6-14.1c-2.8-3.7-6.4-6-10.4-7.9c4.5-2.6,8.3,0.1,11.9,2.1
		c10.1,5.6,16.5,14.8,22.3,24.4c1.3,2.1,2.5,4.2,3.7,6.3c-1.1,3.1-2.4,0.5-3.3-0.1c-2.2-1.5-3-4.3-4.7-6.3c-1.1-1.4-2.2-2.9-3.4-4.3
		c-3.2,7-6.9,8.7-14.1,6.9c-0.9-0.4-1.9-0.8-1.7-2C333.5,254.9,329.6,255.4,328.5,252.7z"/>
	<path class="st22" d="M174.5,539.6c-5.5,3.3-6.8,9.1-7.8,14.7c-1.6,8.8-3.2,17.6-3.8,26.5c-0.4,6.1-3.2,7.4-8.3,6.8
		c-0.8-1.6-0.5-3.3-0.3-4.9c2.3-13.8,3-28,10-40.7c0.2-0.4,0.2-1,0.2-1.5c2.9-3.1,4.6-7.4,9-9C175,534.1,174.6,536.9,174.5,539.6z"
		/>
	<path class="st23" d="M312.5,227.7c-8.4,3.6-16.7,7.6-25.9,9c-5.5-1.4-10.1,1.9-15.1,2.9c-12.9,2.4-25.1,7.2-38,13.6
		c2.2-3.9,5.2-4.2,7.4-5.7c1.8-1.1,1.2-1.7-0.5-2c9.9-6.8,21.4-9.6,32.9-11.7c11.9-2.2,23.9-3.6,35.5-6.9
		C309.9,226.6,311.7,225.4,312.5,227.7z"/>
	<path class="st24" d="M391.3,401.6c-2.6,1-1.9-1.1-1.8-2.1c0.7-5.5,1.5-11.1,2.4-16.6c2-12.8,6-25.3,6-38.3c0-3.2-0.8-6.5-1.3-9.7
		c-0.3-1.8-0.1-3.3,1.6-4.2c0.7,4,1.4,8,2.2,12c2.9,15.9-1.6,30.9-6.1,45.8c-0.9,3-1.3,6.1-1.9,9.2
		C393.6,399.4,392.9,400.6,391.3,401.6z"/>
	<path class="st10" d="M336.5,258.7c7.9,2,12-0.9,12-9.1c3.8,2.9,6,6.4,8.2,9.8c1.2,1.9,1.9,4.5,5,4.1c2.4,3.6,4.7,7.3,7.1,10.9
		c-0.9,3.6-3.2,1.2-5,1.2c-8.4-3.6-16.2-8.5-24.1-13C338.1,261.8,336.1,261.1,336.5,258.7z"/>
	<path class="st25" d="M164.6,540.5c1.5,4-1.2,7.4-2.5,10.5c-4.7,10.5-3.9,21.9-6.4,32.8c-0.3,1.3-0.7,2.5-1,3.8
		c-1.7,0.2-3.5-0.5-5,0.9c-0.8-0.3-1.7-0.7-1.5-1.7C151.9,570.8,154.3,554.2,164.6,540.5z"/>
	<path class="st26" d="M429.5,587.5c-1.4-5.7-2.1-11.5-2.7-17.4c-0.5-5.2-2.6-10.5-4.2-15.6c-1-3.3-1.3-6.5-1.3-9.8
		c7.5,12.6,10.1,26.8,13.3,40.8c0.2,1.1,0.4,2.4-1.1,3C432.4,587.2,430.9,587.7,429.5,587.5z"/>
	<path class="st27" d="M392.4,443.5c-1.9-1.1-3.9-0.9-5.9-0.9c-1.3-1.6-0.7-3.3,0-4.7c2.4-4.8,2.9-10.1,4-15.3
		c0.3-1.3,0.6-2.6,1.3-3.7c0.8-1.4,2-2.3,3.7-1.9c1.9,0.5,2,2,1.6,3.6c-0.3,1.3-0.4,2.6,0.2,3.9
		C395.8,430.9,395.9,437.6,392.4,443.5z"/>
	<path class="st28" d="M198.6,442.6c-2.7,0.1-5.4,0.1-8.2,0.2c-3-5.7-3.3-12.2-4.6-18.3c0.3-0.4,0.2-1,0.4-1.4
		c0.6-1.6-1.5-4.6,1.6-4.7c2.3-0.1,3.9,2.2,4.3,4.7c0.7,3.9,2,7.6,3.8,11.1C195.9,437.2,200.1,439,198.6,442.6z"/>
	<path class="st29" d="M397.3,424.5c-0.9-0.7-0.7-1.8-0.9-2.7c-0.2-1.4,0.9-3.8-1.7-3.9c-2.2-0.1-2.5,2.1-2.7,3.6
		c-1,7.3-3.5,14.1-5.6,21.1c-1.3,0.1-2.6,0.2-4,0.2c-0.1-0.2-0.3-0.3-0.5-0.5c0.2-4.1,2.3-7.6,3.6-11.3c0.8-1.3,0.5-3.2,1.9-4.2
		c0.7-3.7,1.3-7.4,2-11.2c3-4.8,4.8-5.4,8.7-3.1C399.1,416.6,397.7,420.5,397.3,424.5z"/>
	<path class="st30" d="M217.7,264.4c-1.1,3.4-3.6,5.9-5.9,8.5c-0.7,0.8-1.6,2-2.9,1.3c-1.4-0.7-1.4-2.2-1.3-3.5
		c0.2-2,1.4-3.8,0.9-5.9c1.9-5.4,5.4-9.3,11.4-12.1C218.1,256.8,217,260.5,217.7,264.4z"/>
	<path class="st31" d="M195.6,434.6c-3.6-2.2-3.5-6.3-4.2-9.5c-0.6-2.9-1.9-4.5-3.8-6.1c-1.9,1.6,0,4.1-1.8,5.5
		c-0.2-4-1.8-7.9-1.1-11.9c1.2-2.1,2.8-1.1,4.2-0.4c3,1.6,5.1,4.1,6.6,7.1c0.5,3.8,0.8,7.6,1.4,11.4
		C196.9,432.1,196.8,433.6,195.6,434.6z"/>
	<path class="st32" d="M398.3,412.5c-3.9-1.7-6.1,1.2-8.7,3.1c-0.5-2.8,1.1-5.4,1.1-8.1c1.5-2.8,3.2-5.1,6.8-2.9
		C398.6,407.2,398.5,409.8,398.3,412.5z"/>
	<path class="st33" d="M194.4,418.6c-2.9-2.5-4.7-7-9.7-6.1c-0.1-3-0.5-6.1,1.1-8.9c2-1.4,3.3-0.6,4.1,1.5c-1.6,2-1.8,3.8,0.9,5.1
		c1.4,0.7,2,2.1,2.7,3.5c0.4,0.7,0.7,1.4,1,2.1C195.4,416.7,195.4,417.7,194.4,418.6z"/>
	<path class="st34" d="M189.6,405.6c-0.7-1.7-2.1-2.1-3.8-1.9c-0.7-3.7,4.3-4.7,4-8.2c1,3.4,1.9,6.8,2.9,10.1c0,0.7-0.1,1.3-0.1,2
		C190.8,408.1,190.1,407.1,189.6,405.6z"/>
	<path class="st35" d="M397.5,404.6c-3-0.8-4.8,1.4-6.8,2.9c0.2-2,0.4-3.9,0.6-5.9c0.4-1.3,0.8-2.6,1.2-4
		C395.7,398.9,397,401.5,397.5,404.6z"/>
	<path class="st36" d="M363.5,274.7c1.7-0.7,3.5,2.1,5.2-0.2c1.2,1.4,2.7,2.1,4.4,2.4c1.5,0.3,1.4,0.9,0.4,1.8l-0.3,0.1l-0.3,0
		c-3.5,0-7.2,1.1-10.3-1.6C361.9,276,362.5,275.2,363.5,274.7z"/>
	<path class="st6" d="M407.5,527.5c0.5-6-1.1-12,1-17.9C408.1,515.6,409.4,521.6,407.5,527.5z"/>
	<path class="st5" d="M406.5,556.5c-0.5,5.7,1,11.5-1,17c0-3.3-0.1-6.7-0.1-10c0-2.3,0-4.7,0-7C405.8,556.5,406.2,556.5,406.5,556.5
		z"/>
	<path class="st5" d="M407.5,538.6c0,0.7,0,1.3,0.1,2c-0.6,4.3,1,8.8-1,13c0-0.4-0.1-0.8-0.1-1.1c-0.9-3-1.4-5.9,0-8.9
		C406.7,541.9,405.8,540,407.5,538.6z"/>
	<path class="st4" d="M406.5,543.6c0,3,0,5.9,0,8.9C404.5,549.5,403.4,546.5,406.5,543.6z"/>
	<path class="st6" d="M277.5,521.6c-1.7-9.5-8.7-11-16.8-12.3c-4.9-0.8-10.1-2.1-14.9-3.8c-3.4-1.1-6.6-2.3-10.1-1.9
		c-5.9,0.8-10.6-3.9-16.4-3.2c-4.7,0.5-8-2.5-12-3.7c-6.2-1.9-12.6-2.3-19-3c-6.7-0.8-8.9-2.5-10.7-8.9c-2.4-8.5-2.3-17.3-3.9-25.9
		c-0.3-1.6-0.1-3.4-2-4.2c0.4-0.8-1.1-3.7,1.7-1.6c1.6,1.2,2.2,3.2,2.3,5.3c0,1.8-0.1,3.7,0.3,5.5c1.9,9.5,6.4,13,17.5,13.8
		c0.3,0,0.7-0.1,1,0c9.7,4,20.6,2.7,30.3,7.2c4.4,2,9.9,1.9,14.8,2.9c3.9,0.8,7.8,2,11.9,2.6c2.7,0.4,5.4,1.7,8.2,1.2
		c5.6-0.9,10.5,1.8,15.3,3.5c5.6,2,11.1,3,16.8,2.9c2.3,0,1.6,1.5,1.9,2.7c0.6,2.4-0.9,4.4-1.1,6.7c-0.6,1.8-2.1,2.3-3.7,2.5
		c-1.5,0.1-3.1,0.1-4.6,0.2c-3.6,0.6-4.7,3.3-5.2,6.4C278.6,518.2,279.1,520.2,277.5,521.6z"/>
	<path class="st37" d="M291.6,506.5c-0.3-2.3,1.1-4,2-5.9c1.9-0.1,5-3.1,5,1.9c-0.7,1-1.4,2-2,3C295,506.5,293.6,508.3,291.6,506.5z
		"/>
	<path class="st38" d="M277.5,521.6c0-5.3-0.9-10.9,6-13c5.9,7.4,13,13.7,20,20c-1.3,4.6-4.5,5.9-8.8,4.5c-2.2-0.7-4.2-0.7-6.2,0.5
		c-3.4,1.6-5.3-0.5-7-3c-0.3-0.3-0.7-0.7-1-1C280.2,526.7,277,524.8,277.5,521.6z"/>
	<path class="st39" d="M303.6,528.6c-2.6,1.4-3.6-1.1-4.8-2.4c-4.6-4.8-9.2-9.5-14.3-13.7c-1.3-1.1-1.9-2.3-1-3.9c1.7,0,3.3,0,5,0
		c2.9,1.5,5.3-1.3,8-1c1.8,0,3.6-0.2,5.3,0.7c2.3,1.1,3.5,2.4,1.5,4.9c-2.8,3.4-3,7,0.4,10c2,1.8,1.3,3.5,0.7,5.3
		C304.1,528.5,303.9,528.6,303.6,528.6z"/>
	<path class="st8" d="M281.5,530.6c2.2,1.4,3.9,3.7,7,3C284.9,535.6,282.6,534.5,281.5,530.6z"/>
	<path class="st38" d="M296.5,507.6c-2.4,2.2-5.1,2.9-8,1c1.5,0,2.9,0,3.1-2.1c1.6-0.3,3.3-0.6,4.9-1
		C296.5,506.2,295.4,506.9,296.5,507.6z"/>
	<path class="st40" d="M404.4,579.6c0,1,0,2,0,3c-4.6,3.5-9.8,4.1-15.4,4c-34.4-0.1-68.9-0.1-103.3-0.1c-8.8,0-17.5-1.3-26.3-1
		c-20.7,0.5-41.3,0.7-62,1.1c-7,0.1-13.7-0.9-19.7-4.9c0.5-8.3-1.7-16.5-0.9-26.2c2.3,5.1,2.9,9.3,2.8,13.7
		c-0.1,12.2,2.2,14.4,14.6,14.4c42,0,83.9-0.7,125.9,0.3c23.4,0.6,46.9-0.2,70.3,1.1C396,585.3,400.3,582.8,404.4,579.6z"/>
	<path class="st41" d="M349.5,442.6c-13.7,0-27.3,0-41,0c-0.3-0.4-0.8-0.6-1-1.1c-1.9-3-2.8-7.2-6.8-8c-6-1.2-12.1-1-18.2,0
		c-2.2,0.4-3.5,2.3-4.6,4.2c-1,1.7-1.7,3.6-3.3,4.9c-11.3,0-22.7,0-34,0c-8.5-6-11.9-15-14.7-24.3c-0.6-1.9,0.2-3.6,2.5-4
		c3.1,4.1,8.4,5.8,11.6,9.8c1.5,1.8,3.3,1.2,5,1.1c7.2-0.4,14.4-1.5,21.5-2.8c0.8,0.8,0.7,1.8,0.9,2.8c0.5,3.1,2.4,3.3,4.8,2.1
		c3.5-1.7,6.1-4.5,8-7.9c2-3.5,3.7-7,4.7-11c0.5-2.1,1.4-4.1,2.8-5.8c2.7-3.2,5.1-3.2,7.8,0.1c2.4,3.1,3.2,6.9,4.4,10.5
		c1.5,4.8,4.2,8.7,7.8,12c1.6,1.5,3.4,3.3,6.1,2.3s0.7-3.6,1.8-5.2c1.7-1,3.3-0.5,4.7,0.4c4.5,3,9.6,1.5,14.3,2.6
		c0.6,0.1-0.1-0.9-0.2-0.2c-1.1-0.1-2.6-0.1-1.6-2c1.6-1.1,3.4-0.9,5.2-0.6c7.6,0.8,13.6-3.9,16.4-12.6c0.7-2.1,0.1-5.2,3.5-5.8
		c2.2,1.2,2.1,3.4,1.9,5.2c-1.3,10.5-3.6,20.8-8,30.5C351.2,441,350.4,441.8,349.5,442.6z"/>
	<path class="st42" d="M349.5,442.6c2.7-7.1,5.8-14.1,6.8-21.6c0.7-5.4,4.1-10.7,1.1-16.3c-0.3-0.4-0.5-0.8-0.5-1.3
		c1-3.8-0.4-6.2-4-7.8c-2.4-1.1-4.7-2.3-7.2-3.1c-3.9-0.6-8-0.8-11.5-2.6c-4.5-2.3-8.8-5.1-12-9.2c2.7-2.9,6.1-4.1,10-4.3
		c4.3-0.1,8.6-0.4,11,4.5c0.9,1.9,2.6,1.8,4.1,0.4c1.3-1.2,2.8-1.8,4.5-1.7c2.7,0.3,5.4,0.8,8.1,1.1c2.5,0.8,3.7,2.8,4.3,5.1
		c2.7,10.4,4,20.9,1.6,31.5c-1.2,5.5-1.7,11.2-2.6,16.7c-1.1,7.1-1.1,7.1,6.2,7.3c1.8-0.1,3.5-0.1,5.3,0c2.7,0,5.5-0.5,7.8,1.4
		l0.1,0.3c-7.2,1.6-14.5,0.8-21.7,0.4C357.1,443,353.3,442.8,349.5,442.6z"/>
	<path class="st43" d="M230.6,442.6c-2.3,0-4.7,0-7,0c-3.1-14-7.2-28-6.3-42.6c0.3-4.8,2-9.4,2.5-14.2c0.2-2,1.6-3.6,3.4-4.7
		c5.7-1.7,11.3-3.4,17-5.1c5.1-1.5,10.1-1.1,14.7,1.9c2.1,4.7-2,11.9-7.4,12.9c-3.4,0.6-6.8,1-10.2,1.6c-4.6,2.2-10.3,2.7-12.3,8.6
		c-0.5,0.9-1.1,1.8-0.9,2.8c3.1,11.5,2.3,23.7,6.6,35C231.3,440,231.6,441.4,230.6,442.6z"/>
	<path class="st44" d="M220.6,442.6c-1.3,0-2.7,0-4,0c-2.5-4.6-2.5-9.6-2.5-14.6c-0.1-17.3-1.2-34.6-1-51.9
		c0.1-8.1-2.2-16.1-1.9-24.3c0.6-10.3,5.5-18.6,12.1-26.1c1.1-1.2,2.5-2.3,4.4-1.2c0.1,0.3,0.3,0.7,0.1,1c-5.7,7.8-3.7,16.3-2,24.7
		c1.3,6.3,3,12.6,1.6,19.1c-1.8,3.9-4,7.6-5.1,11.8c-2.2,1.1-2.9,3-3.2,5.3c-2,13.9-1.9,27.6,1.2,41.4c0.9,4,1.8,8.1,1.6,12.3
		C221.9,441,221.2,441.9,220.6,442.6z"/>
	<path class="st45" d="M212.5,350.6c0.2,10.8,2.1,21.4,2.8,32.1c0.2,3.1-0.8,6.2-0.7,9.3c0.6,16.9,1.3,33.8,2,50.6c-2,0-4,0-6,0
		c-1.7-4.1-1.5-8.4-1.5-12.7c-0.1-12.9-0.1-25.8-0.1-38.8c0-3-0.1-6,1.9-8.5c0-6.7-2.6-13.2-1.9-20c0.3-3,0.3-5.9,1-8.8
		C210.4,352.5,210.5,350.8,212.5,350.6z"/>
	<path class="st46" d="M274.5,442.6c2.7-9.5,4.7-11,14.3-11c1.8,0,3.7,0,5.5,0c9.8,0,11.5,1.3,14.2,11c-3,0.9-5.9,0.7-9.1,0.4
		c-5.8-0.7-11.8-1.1-17.6,0.4C279.3,444,276.9,443.1,274.5,442.6z"/>
	<path class="st47" d="M211.5,382.5c-1.3,4.2-0.9,8.5-0.9,12.8c0,12.2,0.1,24.5-0.1,36.7c0,3.5,1.9,7.1,0.1,10.6c-1.3,0-2.7,0-4,0
		c-2.3-1.2-2.4-3.4-2.4-5.5c0-4.3-0.3-8.5,0.5-12.8c0.7-3.8,0.2-7.5-1.1-11.1c-0.8-2.9,0.1-5.6,0.6-8.4c0.9-5.6,1.1-11.2,1.1-16.9
		c0-2.4-0.1-5.2,3.5-5.5c0.6,0,1.1,0.1,1.7,0.1C210.8,382.1,211.2,382.1,211.5,382.5z"/>
	<path class="st48" d="M230.6,442.6c-3.9-10.6-5.3-21.8-6-33c-0.1-1.6-0.8-2.8-1.4-4.1c-0.8-1.7-1.8-3.9,1.2-4.8c1,0.4,1.5,1.2,2,2
		c0.8,1.5,1.3,3.2,1.5,4.9c0.1,2.4,2.3,4.6,0.7,7.1c-2.6,1.1-1.7,3-1.2,5c2.4,8.8,7.5,16,13.1,23
		C237.2,442.6,233.9,442.6,230.6,442.6z"/>
	<path class="st49" d="M220.6,442.6c-0.2-9.5-1.9-18.9-3.3-28.3c-1-6.5-0.7-12.8,0.1-19.1c0.4-3,0-6,0.5-8.8
		c0.4-2.2-1.2-7.3,4.5-5.7c0.8,0,1.1,0.4,1.3,1.1c-4.5,5.7-3.8,12.8-4.9,19.4c-1.2,7.6,0.9,15.1,2.2,22.6c1.1,6.2,3.7,12.3,2.6,18.9
		C222.6,442.6,221.6,442.6,220.6,442.6z"/>
	<path class="st50" d="M204.6,413.6c2,3.4,2.1,7,1.6,10.8c-0.9,6.1-1.4,12.2,0.4,18.2c-2,0-4,0-6,0c-2.2-3.6-1.4-8-2.9-11.8
		c-0.4-2.4-0.3-4.7,1.9-6.3c2.7,0,1.5-2.3,2.1-3.6C202.8,418.5,201.4,415.2,204.6,413.6z"/>
	<path class="st51" d="M198.3,430.4c2.7,3.7,2.2,8,2.3,12.1c-0.7,0-1.3,0-2,0c0.1-3.1-4.3-4.4-3-8c0.1-1.4,0.1-2.9,0.2-4.3
		C196.6,429.7,197.5,429.7,198.3,430.4z"/>
	<path class="st52" d="M362.5,276.6c3.2,2,7.3-0.3,10.4,2.1c-1.7,2-4.1,2.4-6.4,3c-0.6,0.5-1.3,0.7-2.1,0.7
		c-2.8-0.7-5.5-0.8-8.4-0.5c-6,0.5-11.9,0.1-17.6-1.9c-1.5-0.5-3-1.4-5-0.5c3,4.1,7.5,4.8,11.7,5.5c4.2,0.8,8.6,1.1,12.7-0.5
		c2.6-1,4.9,0.6,7.3,0.3c1.8,0.5,3.8,0.9,3.5,3.3c-0.2,1.5-1.9,0.9-2.9,1.1c-6.8,1.1-13.4,3.2-20.3,3.9c-2.4,0.3-3.2,2-2.9,4.4
		c0.3,2.3,1.1,4.5,1.1,6.9c0,2.1,0.3,4.5-2.7,5c-2.1-0.2-3.1-1.7-3.9-3.4c-1.9-4.3-4.4-8.4-5.9-12.9c-3.3-8.3-7.7-15.8-14.6-21.6
		c-2.3-1.9-3.9-4.4-2.6-7.4c1.3-3.1,4.3-2.6,6.9-2.6c4.6,0,8.3,2.5,11.8,4.8c5.3,3.4,11,5.4,16.8,7.3c0.5,0.1,1,0.3,1.4,0.4
		c2.5,1.1,5.2,1.6,7.9,1.4C360.3,275.5,361.6,275.6,362.5,276.6z"/>
	<path class="st53" d="M364.5,281.6c0.7,0,1.4,0,2,0.1c0.2,2.5,2.1,3.6,3.8,4.9c0.9,0.7,1.3,1.5,0.8,2.5c-0.4,0.8-1.1,1.4-2,1.1
		c-4.6-1.6-3.7,1.9-3.5,4.1c0.6,10.6,1.1,21.1,2.1,31.7c0.6,6.9,2.5,13.7,2.5,20.5c0.1,7.5-0.8,15.2-3.4,22.4
		c-0.4,1.1-1.2,1.5-2.3,1.6c-3.6-3.5-2-8-2.3-12c1.1-1.4,2.2-2.9,1.9-4.9c-1.1-6.5-1.5-13.1-3.2-19.6c-2-7.9-6-15.3-5.9-24
		c0.1-7.9,4.4-13.7,7.6-20.2c0.5-1,1.7-1.6,3-1.3c0.9-0.1,2.5,0.3,2.4-0.9c-0.1-1.6-1.9-1.9-3.4-2.1c-0.5,0-1-0.1-1.5-0.3
		c-1.2-0.7-3.4-1-2.8-2.9C360.9,280.4,362.9,281.1,364.5,281.6z"/>
	<path class="st54" d="M362.7,358.6c2,3.8-0.1,8.2,1.8,12c-1.2,0.8-0.8,1.5,0,2.3c0.5,4.1,1.2,8.1,2.4,12c0.3,1,0.3,2.1,1,2.8
		c5,4.5,4.2,10.5,4.2,16.2c0,9.8,0,19.5,0,29.3c0,3.3,0,6.7-2.4,9.4c-9.8,0.3-9.3,0.3-7.8-9.6c1.6-10.9,4.7-21.6,3.8-32.8
		c-0.4-5-2-9.6-2.8-14.5c-0.2-1.6-0.9-3.7-3.2-3.9c0.2-3.1-1.2-6.2,0.2-9.3c1.5,0.2,1.4-0.8,1.5-1.9c0-4.3-0.9-8.5-1.5-12.8
		c-0.4-2.8-1.2-5.6,0.7-8.1c2.8,0.1,2.2,2.6,3,4.1C363.8,355.5,363.8,357.1,362.7,358.6z"/>
	<path class="st55" d="M369.6,442.5c1.9-15,0.5-30.1,0.9-45.1c0.1-2.9-0.7-5.1-2.8-7.5c-4.1-4.8-3.5-11.1-3.3-17
		c1.9,1.8,0.4,4.8,2.1,6.7c0.2,0.3,0.5,0.5,0.5,0.8c1.6,4.7,1.6,4.8,5.6,2.1c2.1-1.4,3.4-0.9,3.8,1.5c0.5,2.9,0.1,5.9,0.4,8.9
		c-2.1,11.1,0.6,22.1,0,33.2c-0.3,5.5,0,11.2-2.4,16.5C372.9,442.5,371.2,442.5,369.6,442.5z"/>
	<path class="st56" d="M374.5,348c0-3.4-0.1-6.8,0-10.2c0.4-13.8-0.6-27.4-5.6-40.5c-0.6-1.5-0.7-3.1,0.9-4c1.6-1,2.4,0.6,3.3,1.4
		c4,3.5,6.1,8.3,6.3,13.1c0.6,13.1,0.8,26.2-2.9,39c-0.1,0.4-0.4,0.8-0.7,1.3C375.4,348,374.9,348,374.5,348z"/>
	<path class="st57" d="M384.5,349.6c1.9-0.2,2.8,0.4,2,2.5c-2.1,5.4-3.1,11.1-4.8,16.5c-2.3,7.3-3.4,15-3.2,22.8
		c-0.6,0.4-1.1,0.3-1.6-0.1c-0.6-6.5-3.1-12.9-0.5-19.5c-0.1-3.1,0.5-6,2.3-8.4C381.8,359.3,381.8,353.9,384.5,349.6z"/>
	<path class="st58" d="M376.3,371.9c0.1,4.8,0.1,9.6,0.2,14.5c0,1.8-0.2,3.7,1.1,5.3c-0.7,0.5-1.4,0.6-2,0c0-3,0-6,0-9.2
		c-2.3,0.4-3.1,2-4.1,3.5c-0.7,1-1.3,2.7-3,2c-1.3-0.5-1.9-1.8-1.9-3.3c0-1.7,0-3.3,0-5c3.3,1,5.2-0.9,6.7-3.4
		C374.1,374.6,374.4,372.6,376.3,371.9z"/>
	<path class="st59" d="M198.3,430.4c-0.9,0-1.7-0.1-2.6-0.1c-1.2-3.8-0.9-7.8-1.3-11.7c0-1,0.1-2,0.1-3c0.8-1.1,1.9-1.1,3.1-1.1
		c2,0,2.1-0.9,2.8-2.8c2.6-7.3,0.9-14.8,2-22.2c0.8-5.6,0.2-11.3,0.2-17c1.7,1.7,2.6,3.9,3.1,6.2c1.6,5.9-0.1,11.9-0.3,17.8
		c-0.4,9.4-1.3,18.8-4.9,27.7C199.2,426.1,198.4,428.1,198.3,430.4z"/>
	<path class="st60" d="M189.6,405.6c1,0.7,2,1.4,3,2c1.5,1.8,0.7,4,0.9,6c-1.7-0.9-2.8-2.8-4.9-3.2c-1.5-0.3-2-1.6-1.9-3
		C186.8,405.5,188.3,405.7,189.6,405.6z"/>
	<path class="st61" d="M270.5,316.7c-3.4-5.2-9.5-6.4-14-9.9c-0.3-0.4-0.3-0.9,0-1.3c3.8-1.4,6.6,1.1,9.6,2.7c1.6,0.8,2.7,2.5,5.4,2
		c-1.8-6.4-4.7-12-8.8-17.1c-1.5-1.9-3.6-3.6-2.4-6.5c2.6-1.3,4.6,0.3,6.4,1.6c11.3,8.5,20.7,18.8,27.5,31.3
		c1.7,5.6,4.8,10.8,5.5,16.8c0,0.4,0.7-1.3,1.6-0.8c2.4,2.5,2.2,5.7,2.6,8.8c-0.1,1.9-0.1,3.8-1.6,5.3c-1,0.6-2,1-2.6-0.4
		c-1.5-5.8-6.4-9.4-9.6-14.1c-3.8-5.4-9.4-9.6-14-14.5C274.4,318.8,271.6,319,270.5,316.7z"/>
	<path class="st62" d="M211.5,382.5c-0.4,0-0.7,0-1.1-0.1c0.1-1.7,0.7-3.5-0.8-4.9c-3.1-10.4-5.4-20.9-1.4-31.6
		c4.1-9.8,9.7-18.4,18.4-24.7c9.6-7,19.8-9.6,31.1-3.8c2.9,1.5,6.3,1.9,8.8,4.2c8.9,5.2,17.4,10.9,24,19c-2.1,1.4-3.3-0.4-4.7-1.4
		c-6.4-4.3-12.4-9.4-19.6-12.5c-7.4-3.2-15.1-5.8-23.2-6.7c-4.5-0.5-8.5,0.8-12.3,3c-1,0.6-2,1.4-3.2,1.5c-9.2,6.3-13.2,15.5-15,26
		c-2.7,7.7-2.3,15.7-1.5,23.5C211.3,377,211.6,379.7,211.5,382.5z"/>
	<path class="st63" d="M266.6,321.6c-3.1-1-6.2-2-9.3-3.1c-14.1-5.2-26.6-1.9-36.5,9.6c-4.6,5.3-8.3,11.2-11.4,17.4
		c-1.5-0.1-1.5-0.9-0.8-1.9c1.6-7.1,3.4-14.2,9.5-19.1c1.2-1,2.3-2.5,2.9-3.9c3.3-6.9,10.6-11,18.3-9.8c8.9,1.4,17.3,4.3,25.4,8.1
		C265.8,319.4,267.4,319.8,266.6,321.6z"/>
	<path class="st64" d="M229.6,322.7c6.4-5.7,14-4.5,21.1-2.6c9.9,2.6,19.4,6,27.7,12.5c3.7,2.9,7.6,6.2,12.2,8
		c3.6,2.2,5.2,6.6,9,8.6c0.6,0.7,1.3,0.6,2.1,0.5c1.4-0.1,1.4,0.8,1.3,1.8c-1.8,1.6-1.9,6.2-6.1,3.4c-7.3-10-16.5-17.9-27.1-24.3
		c-2.5-1.5-4.9-2.7-7.8-2.9c-6.4-1.6-12.6-4-19.3-4.7c-2.8-0.3-5.6-0.4-8.4,0.3C232.7,323.5,231,324,229.6,322.7z"/>
	<path class="st65" d="M208.6,343.6c0.3,0.6,0.6,1.3,0.8,1.9c-3.1,8.8-1.3,17.8-0.4,26.7c0.2,1.8,0.4,3.6,0.6,5.4
		c-2.6-3.4-5.9-13.9-6-19c-0.1-3,0-6,0-9C205.2,347.6,206.9,345.6,208.6,343.6z"/>
	<path class="st66" d="M375.5,391.6c0.7,0,1.4,0,2,0c0.3,0,0.6,0,0.9-0.1c0.9,0.4,1.1,1.1,1.1,2c1.7,2,1.2,4.4,1.2,6.7
		c0,10.1,1.1,20.1,1.8,30.1c0.2,2.7,1.4-0.4,2.1,0.1c0.9-0.1,1.4,0.4,1.7,1.2c-1.3,3.7-2.7,7.3-4,11c-2.6,0-5.3,0-7.9-0.1
		C377.2,425.6,373.1,408.5,375.5,391.6z"/>
	<path class="st67" d="M386.5,431.6c-0.4-0.3-0.7-0.6-1.1-0.9c-2.3-1.7-2.5-4.3-2.8-6.7c-1.4-10-3.6-19.9-2.2-30.1
		c0.3-4.7,2.1-9.4,6.9-15.6c-2.3,16.2-1.4,32.4,0.4,48.5C387.3,428.4,388,430.2,386.5,431.6z"/>
	<path class="st58" d="M380.4,393.8c-0.5,12.6,2.8,24.7,5,36.9c-0.2,0.2-0.5,0.4-0.7,0.7c-1,1.1-1,4-2.9,3.5
		c-2.5-0.8-0.3-3.1-0.4-4.7c-0.4-5.6-0.7-11.2-1.2-16.7c-0.7-6.6-0.4-13.2-0.6-19.8C379.8,393.6,380.1,393.7,380.4,393.8z"/>
	<path class="st68" d="M210.5,324.2c-1.4,3.1-3.2,7.3-6.9,8c-3.4,0.6-5-3.6-5.9-6.7c-0.5-1.9,0.1-4-0.2-6c-0.3-2.3-1.1-4.8-4.1-4.8
		c-4.3,0-5.6-2.5-5.2-6c0.5-4.5,4.4-4,7.3-3.8C199.1,305.1,210.7,320.2,210.5,324.2z"/>
	<path class="st69" d="M200.5,424.3c3.6-15,4.3-30.2,5.2-45.5c1,1.2,2,2.4,3,3.5c-1.2,0.7-2.2,1.7-2.1,3.1
		c0.6,9.5-1.4,18.7-2.1,28.1c-1.3,3.8-1.7,7.7-2.1,11.6c-0.1,0.7-0.3,1.9-1.4,1.4C200.6,426.4,200.7,425.1,200.5,424.3z"/>
	<path class="st70" d="M260.5,286.7c0.3,2.4,1.9,4.1,3.4,5.9c3.8,4.5,6.3,9.6,8.1,15.2c0.4,1.3,1.7,2.9,0.4,4.1
		c-1.6,1.4-3.2-0.3-4.4-1.1c-3.6-2.3-7-4.8-11.5-5.1c-2.8,0.9-4.6-1.3-6.7-2.5c-4.1-3.2-9.2-4.5-13.8-6.7c-3.5-1.6-6-4-7.7-7.4
		c-1.4-3-2.8-6-4.1-9c-2.2-5-0.2-9.4,3-13.3c3.7-4.3,8.3-7.5,13.3-10.2c10.6-7,22-11.6,35-12c10.8-0.3,21.5,0,32,2.2
		c5.4,1.1,10.8,2.9,15.7,5.6c3.6,2,7.5,3.5,11.2,5.3c0.4,0.8,1.2,0.9,2,1c7.4,5.8,15.9,9.7,24.2,14.1c1,0.5,1.9,1.2,2.9,1.8
		c-0.3,0.7-0.6,1.3-1,2c-1.3,0-2.6,0-4,0c-2.6-0.9-5.4-1.1-8-2l0,0c-0.8-1.2-3.2,0.4-3.2-2c0.7-1,2-0.9,3.1-1.8
		c-9.7-4.9-19.1-9.6-28.6-14c-1.2-0.5-2.4-1.3-2.4,1c-1.2,0.6-2.3,0.1-3.4-0.4c-3.7-2.3-7.8-3.6-12.1-3.5c-1.3,0-2.8,0.1-3.3,1.6
		c-0.4,1.2,0.5,2.1,1.2,3.1c1.3,1.9,4.2,3.1,2.8,6.2c-6.4-0.5-14.4-7.1-14.8-12.6c-0.2-2.4-1.6-2.6-3.2-2.9
		c-17.5-2.9-33.4,0.6-47.2,11.9c-7.4,6.1-7.7,11.2-1.2,18c1.9,2,3.3,4.1,4.1,6.7c0.6,1.9,1,4.2,3.3,5.4c0.7-2.1-0.6-3.4-1.4-4.8
		c-3.2-5.6-2.1-9.6,3.8-12.4c5-2.4,10.4-2.2,15.7-1.4c17.6,2.8,33.5,10,47.5,20.8c7.6,5.8,14.9,12.3,19.8,20.9
		c0.2,0.3,0.4,0.6,0.6,0.8c2,2.2,3.1,6.2,6.1,6.1c3.3-0.1,1.7-4.8,3.7-6.8c1.4-0.4,1.7,0.6,2.1,1.6c0.4,2.1,0.6,4.3,1.4,6.3
		c0.6,1.7,1,3.6,1,5.4c0,3.4-0.5,7.5-3.7,8.6c-2.9,1-4.7-2.6-6.1-5c-6.1-9.9-12.3-19.8-20.8-28c-4.1-4-8.4-7.6-13.2-10.6
		c-0.4-0.2-0.8-0.5-1.2-0.8c-2.7-2-5.4-4.1-8.8-4.6c-3.2-1.3-6.2-3.3-9.6-4.1c-3.7-1.5-7.2-3.3-11.2-3.8c-0.5-0.1-0.9-0.3-1.3-0.4
		c-4.5-2.4-9.5-0.8-14.1-1.6c-1.3-0.2-2.7,0.7-3,2.1c-0.5,2,1.2,2.5,2.5,3.1c1.4,0.7,2.9,1.4,4.2,2.2
		C260.1,285.4,260.5,286,260.5,286.7z"/>
	<path class="st71" d="M240.5,256.6c-3.9,3.5-8.3,6.5-11.9,10.4c-4.6,5.1-5.3,8.6-2.1,14.7c0.1,0.3,0.4,0.6,0.4,0.9
		c1.9,9.6,9.2,13.4,17.4,16.2c2.3,0.8,4.8,1.4,6.1,3.9c-1.3,0.8-2.7,0.7-4,0c-1-0.3-2-0.6-3-1c-1.4,0.1-2.8-0.4-4-1.1
		c-12-0.9-16.5-9.5-19.8-19.4c-1.7-5.2,0.8-9.5,4.3-13c2.7-2.7,5.4-5.4,8.5-7.6C235.3,259.4,237.1,256.5,240.5,256.6z"/>
	<path class="st72" d="M232.6,260.7c-2.6,2.8-5.2,5.5-7.8,8.3c-4.7,5-4.7,9-2.6,15.3c2.9,8.9,9.1,13.6,17.4,16.4
		c-14.2,1.6-18.9-7.6-22.6-18.9c-1.3-3.9,1.8-7.9,4.2-11.3C224.1,266.2,228,263.1,232.6,260.7z"/>
	<path class="st72" d="M246.6,302.7c1.3,0,2.7,0,4,0c1.7,1.6,3.7,2.5,6,3c0,0.4,0,0.7,0,1C252.7,306.4,249.8,304.1,246.6,302.7z"/>
	<path class="st73" d="M315.5,422.7c1.1,2.1,1.8,4.1-0.5,6c-2.2,1.7-3.9,0.7-5.8-0.6c-4.7-3.2-8-7.4-9.8-12.8
		c-1.2-3.3-2.2-6.6-3.5-9.9c-0.8-2-2.1-4.3-4.4-4.3c-2.2,0.1-3.5,2.4-4.3,4.4c-0.7,1.7-1,3.5-1.6,5.2c-2.5,6.7-5.3,13.3-11.9,17.2
		c-1.9,1.1-3.8,2.6-6,1c-2.3-1.6-1.8-4-1.1-6.3c0.1-2.5,2-2.2,3.7-2.4c0.5,0.2,0.9,0.4,1.3,0.7c2.5,2.3,3.6-0.3,4.7-1.6
		c2.6-3,3.6-6.7,4.2-10.5c0.9-5.9,1.1-11.9,1.1-17.9c0-6.8-2.9-10.9-9.1-13.3c-3.4-1.3-5.2-3.6-3-7.4c4.9-1.3,9.2,1,13.3,2.7
		c5.9,2.5,11.4,2.3,17.4,0.4c5.8-1.9,11.1-5,17.1-6.1c0.8,3.7-2.9,5.5-3.4,8.6c-10.4,3.4-13,11-12,21c0.7,7.1,0.2,14.3,3.9,20.7
		c1.6,2.8,3.5,5.4,7.4,3.4C314.3,421,315.1,421.5,315.5,422.7z"/>
	<path class="st74" d="M270.5,420.6c-1.3,0.7-2.6,1.4-3.9,2c-8.1,4.1-17.1,2.5-25.6,4.2c-0.4,0.1-1.3,0-1.4-0.1
		c-0.9-6.6-10.4-5.4-11-12.1c-0.6-2.3-1.2-4.7-1.8-7c2.6-1.2,2.3,1.3,3.3,2.4c1.9,2.1,2.1,5.8,5.7,6.3c3.1,0.2,4,3.5,6.4,4.6
		c6,2.5,11.6,2.3,16.4-2.6c1-1,1.7-2.1,2.2-3.4c1.9-3.4,1.8-6.9,1.1-10.5c-0.3-0.9-0.7-1.7-1.1-2.5c-0.5-1.3-0.7-2.4,1.1-2.7
		c4.9,1.7,6.4,6.1,8,10.3c0.8,2.7,1.3,5.5,1.7,8.4C271.6,418.9,271.4,419.9,270.5,420.6z"/>
	<path class="st75" d="M357.7,403.4c-0.1,0.4-0.2,0.9-0.3,1.3c-2,4.4-2.6,9.4-5.6,13.4c-2.8,3.7-8.7,6.6-13.3,5.6
		c1.2-2.9,4.9-3.2,6.3-5.9c2.5-3.9,4.4-7.8,2.9-12.6c-0.4-0.9-0.9-1.6-1.5-2.3c-1.4-1.4-1.8-3.4-3-4.9c-2.7-3.6-2.6-3.7,2.2-4.5
		c1.8,0.2,3.4,0.8,5.1,1.4C354,396.8,358.6,397.8,357.7,403.4z"/>
	<path class="st76" d="M315.5,422.7c-0.6-0.4-1.3-0.7-1.9-1.1c-0.8-0.6-1.5-1.3-1.8-2.3c-0.5-2.2,0.6-4.4,0.5-6.6
		c1-5,2.5-9.8,7.5-12.4c0.5,0,0.9,0.2,1.2,0.6c0.7,3.5-1,7,0,10.5c0.2,0.4,0.3,0.9,0.4,1.3c1,3.5,3.2,6,6.2,7.9
		c0.7,0.5,1.5,0.9,2.3,1.3c1,0.5,2.1,0.7,2.6,1.9c1,0.4,2,0.8,3.8,1.5c-6.4,1.4-11.9,1.1-17.1-1.7C318,423,316.9,422.5,315.5,422.7z
		"/>
	<path class="st77" d="M332.5,423.9c-1-0.4-2.4,0-3.1-1.2c1.9-1.9,4-1.5,6.4-0.4c-2.6-2.2-1.2-3.8,0.8-5.2c0.8-0.5,1.6-1,2.5-1.4
		c5.8-2.6,6.6-2.3,6.3,2.9c-1.3,3.1-4.6,3.4-6.9,5.1C336.5,423.8,334.5,423.8,332.5,423.9z"/>
	<path class="st78" d="M313.5,412.6c0.8,2.5-1,4.6-0.8,7c-1.6,3.1-3.6,1.9-5.3,0.2c-1.8-1.8-3.4-3.9-3.7-6.4
		c-1.3-10.3-0.7-20.4,7.3-28.2c2.1-2.1,2.5-4.5,3-7c3.3-0.4,5.6,2.2,8.6,2.7c7.5,4.6,14.6,10.3,24,10.7c-0.5,0.7-1.2,1-2,1.2
		c-3,0.4-6,0.1-9,0.2c-10.5,0.4-18.4,6.3-22,15.9C313.2,410.1,312.6,411.3,313.5,412.6z"/>
	<path class="st79" d="M322.6,380.9c-3.8,1.8-6.1-0.3-8.1-3.1c-1.5-0.1-1.6-0.9-1.1-2.1c-0.8-3.9,2.1-5.7,4.4-7.8
		c2.7-3.9,7.1-2.9,10.9-4.1c1.6-0.4,3.3-0.4,4.9-0.4c1.1,0.1,2.2,0.3,3.2,1c2,3.9,5,7.6,3,12.4c-2.4,0.9-5-0.3-7.3,0.8
		C328.8,377.5,325.8,379.6,322.6,380.9z"/>
	<path class="st80" d="M359.4,372.7c1.3,3,2.6,6,0.1,9c-2.8,0.8-5.3-0.7-7.9-1.2c-2.6-1.6-6.6,1.2-8.4-2.8c2.9-3.1,1-7.5,2.7-10.9
		c0.5-0.6,1.2-1,2-1.1C352.8,366.6,357.2,367.8,359.4,372.7z"/>
	<path class="st81" d="M343.3,377.8c2.5,1.9,6.2-0.1,8.4,2.7c-2.1-0.1-3.1,1.3-4.3,2.7c-1.4,1.7-3.3,2.1-4.2-0.3
		c-2-5.1-6-5.8-10.7-5.3c2.2-1.7,4.8-0.6,7.2-1C341.3,375.6,342.5,376.3,343.3,377.8z"/>
	<path class="st82" d="M344.4,391.8c0.7-0.1,1.4-0.1,2.2-0.2c2.9,0.7,5.4,2.3,8.1,3.5c4.1,1.9,4.7,4.5,3.1,8.3
		c0.1-5-4.6-5.3-7.3-7.6C349.1,393.3,345.2,394.9,344.4,391.8z"/>
	<path class="st83" d="M223.6,381.8c-0.4-0.4-0.9-0.8-1.3-1.1c-1.5-4.8,1.7-7.7,4.5-10.8c4-5.4,10.1-5.6,15.9-6.4
		c4.1-0.6,8.2-0.3,12.3,0c5.1,1.6,11,1.7,14,7.4c0,2.2,0.2,4.4,0.3,6.5c-2.7,5.5-4.8,6.3-10.1,4.1c-1.7-0.7-3.1-1.9-4.6-2.9
		c-7.7-3.6-15.1-1.4-22.4,1.3C229.4,381,226.6,381.8,223.6,381.8z"/>
	<path class="st84" d="M254.6,378.6c1.6,0.5,3.3,0.7,4.6,1.5c4.1,2.4,7.1,1.6,9.3-2.6c1.4,3.4,3.3,6.3,5.8,9
		c6.4,7.2,8,23.2,3.4,31.1c-1.6,2.7-3.4,5.2-7.1,2.9l-0.1,0c0.1-1,0.1-2.1,0.2-3.1c0.4-3.7-0.2-7.3-1.9-10.7
		c-4.9-9.5-12.6-14.2-23.3-13.9c-2.3,0.1-4.6,0.2-7-0.2c-0.8-0.2-1.5-0.5-2-1.2c1.4-1.4,3.1-0.8,4.7-0.9c8.7-0.9,9.1-1.2,13.6-8.7
		C255.6,380.5,255,379.7,254.6,378.6z"/>
	<path class="st85" d="M236.5,391.5c0.7,0.1,1.4,0.2,2.2,0.3c-0.7,3.2-4.9,1.9-5.9,4.6c-2.3,2.2-4.8,4.2-7.4,6
		c-0.3-0.6-0.6-1.2-1-1.8c-0.4-3.4,1.9-4.7,4.4-5.8C231.4,393.7,233.9,392.6,236.5,391.5z"/>
	<path class="st86" d="M255.6,364.8c-10.1-1.1-19.8-0.1-28.8,5.1c-0.2-8.1-1.6-16.1-3.2-24.1c-0.6-3.1-1.4-6.2-1.3-9.3
		c0.2-4.5,1.9-8.6,5.2-11.9c0.7-0.6,1.4-1.2,2.1-1.9c11.6-3.4,22.3,0.4,33,4c4.2,1.3,7.9,3.6,11.3,6.3c0.7,0.5,1.1,1.1,0.6,2
		c-2.3,1.3-4-0.3-5.7-1.3c-1.5-0.9-3.1-1.7-4.8-2.3c-5-3.4-11-3.5-16.5-4.9c-4.6-1.2-6.9,0.5-7.9,5.2c-1.6,7.5,0.1,14.8,1.2,22.2
		c0.1,0.8,0.7,1.6,0.7,2.4c0.1,4.5,1.9,6.4,6.8,5.8C250.6,361.6,254.3,360.9,255.6,364.8z"/>
	<path class="st87" d="M225.4,402.4c0.7-4.1,4.8-4.6,7.3-6.6c1.6-1.4,3.5-2.1,5.6-2.2c3.4,0,4.6,1.2,1.9,4
		c-4.6,4.8-6.3,10.3-3.9,16.7c0,0.8-0.1,1.5-0.7,2.1c-0.2,0.8-0.1,2.1-0.6,2.3c-1.1,0.4-1.7-0.7-2.1-1.5c-1.7-3.4-3.9-6.5-6.2-9.5
		C226.3,405.9,225.8,404.2,225.4,402.4z"/>
	<path class="st36" d="M341.5,314.7c0,3.5,0.2,8.1-3.1,9.2c-2.5,0.8-4.7-3.5-6.4-6.1c-8.9-13.4-20.4-23.9-34.4-31.6
		c-13-7.2-26.7-12.4-41.9-12.5c-2.8,0-5.3,0.7-7.7,1.9c-4.8,2.4-5.6,5.8-2.8,10.2c0.8,1.3,1.7,2.5,2.2,3.9c0.4,1.2,1.7,3-0.6,3.8
		c-1.8,0.6-3.3-0.6-3.6-1.9c-1.5-6.5-6.2-11-9.7-16.3c-2.9-4.3,0-11.6,6.1-15.9c7.4-5,15-9.6,23.9-11.4c9-1.9,18-0.1,27,0.8
		c2.2,0.2,1.8,1.4,0.9,2.7c-1.6,2.3-0.8,4.3,1.1,5.6c3.9,2.7,8,5.1,12,7.6c4.3,0.1,7,3.4,10.3,5.5c7.7,6.1,13,14.1,17.6,22.7
		c2.3,5.5,4.5,11,7.9,16C342.2,310.5,343.1,312.3,341.5,314.7z"/>
	<path class="st88" d="M341.5,314.7c-0.4-2-0.8-3.9-1.2-5.9c3.8-1.3,2.3-4.4,1.8-6.7c-2.6-11-1.8-9.7,9-11.3
		c3.3-0.5,6.5-0.5,9.5-2.4c1.6-1,3.4-1.3,5,0.3c-8.2,7.2-11,23.2-7.2,33.1c3,7.9,6,16,6.3,24.7c0.1,2.3,0.8,4.5,0.9,6.8
		c0.1,2.2,0.7,4.9-2.8,5.4c-0.1-1.7-0.2-3.3-0.3-5c-1-6.6-4.1-12.6-5.9-18.9c-2.3-5.4-6.3-9.4-10.8-13.1c-2-1-2.6-2.9-3.2-4.9
		C342.2,316,341.8,315.4,341.5,314.7z"/>
	<path class="st89" d="M332.4,292.8c-2.5-1.6-3.5-4.4-4.7-6.8c-3.2-6.2-9.1-9.9-13.1-15.3c-1.9-1.1-3.1-2.9-5.1-3.9
		c-3.3-1.7-4.5-4.2-2.7-7.7c1.8-3.6,3.9-4.5,8-3.1c0.6,0.2,1.3,0.2,1.8,0.7c1,0.3,2,0.7,3,1c1.4-0.7,2.6,0,3.7,0.7
		c7.4,4.8,15,9.1,23.1,12.8c0.6,0.3,1,0.9,1.2,1.5c1,0.7,2,1.3,3,2c-6.2-0.7-11.6-3.5-16.9-6.4c-4.4-2.4-8.4-5.9-13.9-5.6
		c-1.9,0.1-4.3-0.5-5,2.1c-0.6,2.3,0.5,4.2,2.3,5.6C324.7,276.2,329,284.2,332.4,292.8z"/>
	<path class="st15" d="M364.5,281.6c-1,0.1-1.9,0.1-2.9,0.3c-0.2,0-0.4,0.4-0.6,0.7c0.5,1.8,2.8,1.6,3.5,3
		c-8.5,0.1-17.1,2.9-25.6-0.9c-0.6-0.3-1.4-0.1-1.9-0.5c-2.2-1.8-6.9-2.9-5.7-5.8c1.1-2.9,5-0.6,7.5,0.2c6.3,2.2,12.6,2.5,19.1,1.6
		C360.4,280,362.5,280.3,364.5,281.6z"/>
	<path class="st89" d="M350.5,274.7c2.9-0.1,5.6,0.1,8,2C355.7,276.8,352.9,276.7,350.5,274.7z"/>
	<path class="st42" d="M359.4,372.7c-3.2-2.7-6.9-4.6-10.9-6.1c-0.6-0.6-0.8-1.4-0.8-2.3c1.1-6.4,0.3-12.9,0.1-19.3
		c-1-6.2-2.1-12.4-2.1-18.6c1.3-2,2.6-0.6,3.6,0.2c1.8,1.4,3.4,3,4.8,4.9c3.3,5.7,6.9,11.2,6.3,18.2c-0.6,8.3,3.2,16.3,1.8,24.8
		C360.9,374.8,360.8,372.6,359.4,372.7z"/>
	<path class="st55" d="M360.5,349.6c-1.1-6.5-3.9-12.3-7-18c2.1-0.8,2.8,0.9,3.8,2.1c2.2,6.5,5.4,12.7,5.1,19.9
		C361,352.7,362.1,350.5,360.5,349.6z"/>
	<path class="st90" d="M302.7,344.6c-0.7-3-1.4-6-2.2-9c-1.3-1.7-2.6-3.5-1.6-5.8c1.9-2.5,3.8-1.3,5.5,0.2
		c6.6,5,12.9,10.3,17.7,17.2c1.1,1.5,2,3,2.5,4.8c1.6,4.9,0.4,7.6-4.5,9.2c-2.8,0.9-5.8,1.5-8.7,2.2c-4,0.9-6-0.5-6.3-4.7
		c-0.2-3.3-0.8-6.6-1.6-9.8C303.5,347.4,303.5,345.9,302.7,344.6z"/>
	<path class="st91" d="M260.5,286.7c-0.3-0.3-0.7-0.7-1-1c-1.6-1.6-2.4-3.4-0.4-5.2c1.9-1.8,4.2-2.3,6.4-1c4.8,2.7,10,4.8,13.8,8.8
		c7.2,7.6,14,15.6,19.2,24.8c0.6,2.6,3.1,4.6,2.1,7.7c-1.7,0.8-3.5,0.2-5.2,0c-0.8-0.1-1.4-0.6-2-1c-7-11.1-15.2-21.1-25.6-29.2
		C265.7,288.8,263.4,287.1,260.5,286.7z"/>
	<path class="st92" d="M293.5,319.8c0.7,0,1.5,0,2.2,0c1.1,1,1.9,2.4,2.5,3.8c0.4,1,0.7,2,1,3c0.4,1,0.4,2.1,0.2,3.1
		c0.4,2,0.8,4,1.1,5.9c-0.6,1,0.8,3.1-1,3.1c-1.4,0-0.8-1.8-1-3c-0.5-3.4-2-6.7-3.3-10C294.5,323.9,293.5,321.9,293.5,319.8z"/>
	<path class="st93" d="M302.7,344.6c1.2,0.6,1.8,1.6,1.8,3c-0.8,2.4,1.8,4.7,0.2,7.1c-2.3,0.1-2.4-1.4-2.1-3.1c0-0.8,0-1.5-0.8-2
		C302.7,348.1,302.4,346.3,302.7,344.6z"/>
	<path class="st94" d="M274.5,334.7c-3.2-3.8-8.2-5-12-8c6.9,0.4,11.5,5.3,16.7,8.9c7.3,5.2,13.9,11.1,18.3,19
		c-0.2,0.1-0.4,0.3-0.5,0.4c-3,0.3-3.7-2.4-5.1-4c-2.6-3.2-4.9-6.6-8.8-8.5C280,340.2,276.1,338.7,274.5,334.7z"/>
	<path class="st94" d="M302.5,351.6c0.7,1,1.3,2,2,3c0.3,0.5,0.4,1,0.2,1.5c-1,2-2.3,3.8-4.8,3c-1.9-0.6-3.4-1.9-2.5-4.4l0.1-0.1
		C300.8,356.3,300.2,351.5,302.5,351.6z"/>
	<path class="st95" d="M297.5,313.7c-8.4-12.9-16.9-25.7-31.4-32.7c-2.1-1-3.9-1.4-6-0.1c-2.4,1.5-0.5,3.2-0.6,4.9
		c-1.6-0.1-2.9-0.8-4-2c-2.5-3.5-1.6-6.1,2.3-6.5c4.3-0.3,8.6-0.1,12.7,1.4l0,0c2.2,0.8,4.6,0.9,6.5,2.4
		c9.1,4.6,16.1,11.4,22.6,19.1c7.7,9.3,14.7,19,24.5,26.5c7.2,5.5,11.5,14,15.4,22.2c1,2,0.5,3.6-2,3.9c-4.2-3.5-6.8-8.1-9.2-12.9
		c-4.6-9.1-12.1-15.2-21.2-19.3C303.3,319,299.8,317.3,297.5,313.7z"/>
	<path class="st96" d="M346.6,325.7c0.9,6.4,1.7,12.7,2.6,19.1c-1.3,2.6-0.4,5.2-0.2,7.8c0.1,1.8,0.4,4-2,4.5c-2.2,0.5-3.4-1.3-4-3
		c-2.5-6.9-5.4-13.5-9-19.9c-0.8-4-2.7-7.4-5-10.7c-7.1-10.2-14.5-20.1-24.7-27.5c-1.4-1-3.3-1.9-2.7-4.3c8.7,3.9,14.7,11,20.9,17.8
		c5.9,6.5,10.1,14.2,14.8,21.6c1.3,2,2.6,3.7,4.9,5c2.8-4.4,3.5-8.8,1.6-13.6c-0.7-1.8-1.4-3.7-1.1-5.8c0.9,1.7,2.2,3.1,3.9,4
		C345.9,322.4,347.5,324,346.6,325.7z"/>
	<path class="st97" d="M301.5,291.7c2.4,3.2,6.1,5,9,7.6c9.3,8.6,16.8,18.6,23.1,29.5c0.9,1.5,1,3.1,0.9,4.8
		c-4.4,1.2-5.2-2.7-6.7-5.1c-4.7-7.5-9.9-14.6-15.8-21.1c-7.7-8.5-17-15.3-26.7-21.5c-1.1-0.7-2.4-1.3-2.9-2.6
		c0.1-0.2,0.1-0.5,0.2-0.7c3.9-0.1,6.7,2.5,10,4C295.9,287.8,298.6,290,301.5,291.7L301.5,291.7z"/>
	<path class="st36" d="M347.5,272.7c-10.2-3.4-18.8-9.7-28-15c-0.5-0.8-0.9-1.7-2-3.6c6.9,2.9,13.1,5,18.7,8.1
		c3.9,2.1,7.9,4.2,11.8,6.2c1.8,0.9,5.1,0.8,4.7,3.3C352.4,273.7,349.3,272.3,347.5,272.7z"/>
	<path class="st98" d="M316.5,256.6c-2.1,0.6-3.9-1.7-6.2-0.3c-3.8,2.5-4.2,7.3-0.4,9.9c1.8,1.2,3.5,2.4,4.6,4.4c-3.3-2-6.6-4-10-6
		c-0.3-2.8-2.8-3.9-4.3-5.8c-1-1.2-2.1-2.3-1.5-3.9c0.6-1.8,2.3-2.2,4-2.3C307.7,252.6,312.5,253.4,316.5,256.6z"/>
	<path class="st97" d="M270.5,278.7c-3.7-0.3-7.4-0.9-11.1-0.9c-3.9,0-5.9,1.8-3.9,6c-2.6,0-5.1-1-4.6-3.8c0.4-2.8,2.9-4.5,6-3.6
		C261.3,277.6,266.5,274.8,270.5,278.7z"/>
	<path class="st97" d="M276.5,281.7c-2-1-4-2-6-3c4.5-0.2,8.4,1.5,12,4l0,0C280.2,284.5,278.6,281.9,276.5,281.7z"/>
	<path class="st96" d="M301.5,291.7c-3.5-0.7-6.1-3.1-9-5C296.4,286.8,299.1,289,301.5,291.7z"/>
	<path class="st99" d="M304.5,355.6c0-0.3,0-0.6,0-1c1.1-2.4-2.2-4.7,0-7c1.5,3.5,2.2,7.2,2.1,11.1c-0.1,3,1.3,4.4,4.3,3.6
		c3.2-0.8,6.4-1.7,9.5-2.6c3.6-1,4.8-3,3.4-6.7c-3-8-9.3-13.1-15.4-18.5c-1.6-1.4-3.9-1.9-4.9-4c2.1-1.7,3.8-0.2,5.4,0.9
		c10.2,6.6,17.1,16,22.7,26.5c2.6,4.9,2.1,5.5-3.1,6.8c-3.6,1-7.2,2-10.8,3c-6.6,3-13.3,5.4-20.2,7.8c-4.6,1.6-9,1.4-13.5-0.6
		c-4.7-2.1-9.6-3.3-14.6-4.3c-0.3,0.5-0.7,0.5-1.1,0c-3.5-3.6-8.4-4.4-12.9-5.9c-2.3-2-5.7-2.3-7.9-1.7c-6.1,1.6-6.6-0.7-7.6-6
		c-1.2-7-2.5-13.8-2.6-20.9c0-0.7,0-1.3,0-2c0.8-9,4.7-11.4,13.3-8.4c4.6,1.6,9.9,1.1,13.7,4.9c-0.2,0.2-0.4,0.4-0.5,0.5
		c-1.3,0.7-2.6,0.4-3.9,0.3c-5.7-0.6-6.7,0.1-7.8,5.6c-2,9.4,2.4,17.2,11.6,20.2c4.6,1.5,9.1,3.1,13.4,5.3c4.9,2.5,10.1,3,15.5,2.8
		c3.9-0.2,4.3-1.2,2.4-4.6c-1.6-2.8-5-4.7-4.3-8.6c0.8-1.3,1.8-0.9,2.3,0c1,1.8,2.5,3.1,3.8,4.6C300.7,361,302.3,360.8,304.5,355.6z
		"/>
	<path class="st100" d="M313.4,375.6c0.4,0.7,0.7,1.4,1.1,2.1c0.9,3.3,1,5.8-2.6,8.3c-7.5,5.2-10.3,26.2-4.5,32.1
		c1.8,1.8,3,2.8,5.2,1.4c0.3,0.7,0.6,1.4,0.9,2c-2.2,2.6-4.2,2.4-6.6,0c-5.1-4.8-5.5-11.2-6.2-17.3c-0.6-5.7-0.6-11.6,0-17.4
		C301.3,380.8,306,377.1,313.4,375.6z"/>
	<path class="st101" d="M268.5,370.7c0.4,0,0.7,0,1.1,0c-0.4,3.2,0.5,5.1,4,6.3c5.7,1.9,9.2,5.4,9.2,12.5c0.1,7.1-0.2,14.1-1.3,21.1
		c-0.8,4.7-2.5,9-6.4,12c-2.2,1.7-4.5,2.2-4.4-1.9c5.2,0.7,7.1-3.3,7.5-6.8c0.7-7.4,1.8-15.1-2.1-22.3c-1.3-2.4-2.5-4.8-4.7-6.2
		c-3.1-2-3.5-4.6-2.8-7.8C268.5,375.2,268.5,373,268.5,370.7z"/>
	<path class="st102" d="M235.5,414.6c-3.2-7.5-1.6-13.2,5.7-19.5c-0.6-1-1.8-0.4-2.6-0.8c4.1-3.4,8.9-1.8,13.3-1.2
		c3.9,0.6,8.2,1.4,9.7,6.2c-1.9,0.8,0.2,1.4,0.1,2.1c0.9,2.4-0.3,2.6-2.1,2c-1.3-0.4-2.1-1.6-3-2.5c-4.2-4-7.6-4.2-13.9-0.8
		c-1.2,0.8-1.9,2-2.6,3.2c-2,2.9-2.1,6-1.8,9.4C238.4,414.4,238.5,417.2,235.5,414.6z"/>
	<path class="st103" d="M261.6,399.4c-6.6-6.6-14.6-6.7-23-5.1c-2,0.5-3.9,0.9-5.9,1.4c0.5-3.5,4.3-2.3,6-4
		c6.7-0.7,13.3-0.8,19.5,2.2c5.5,2.7,9.1,7.1,11.5,12.6c0.3,1.2,1.3,2.6-1,3C267.3,405.5,265.6,401.6,261.6,399.4z"/>
	<path class="st104" d="M235.5,414.6c2,0.7,2.3-0.1,1.7-1.8c-1.3-3.8-0.6-7.3,2.2-10.3c1.1,0.3,1.6,1.1,1.7,2.2
		c-0.4,8.2,1.1,10.1,9.3,11.7c0.8,0.2,1.6,0.4,2.2,1c0.3,1.3-0.6,1.7-1.5,2.1c-2.3,0.6-4.6,0.1-7.1-0.3c-0.3-0.2,0.4,0.9,0.4,0.3
		c1.9,0.5,3,1.4,1.9,3.5c-1.8,0.3-3.2-1.1-4.9-1.2c-2.8-0.9-3.6-3.8-5.8-5.4C235.6,415.8,235.6,415.2,235.5,414.6z"/>
	<path class="st105" d="M241.5,399.5c7.2-4.6,11.3-4.2,16.8,1.7c1,1,1.9,3.4,3.3,0.3c0.9,0.4,0.9,1.3,1,2.1c0.5,1.4,1.1,3.1-0.4,4
		c-1.3,0.8-2.4-0.7-3.3-1.3c0.8,2,1.7,4.2-1.3,5.6c-1.1-0.7-1.2-1.9-1.4-3c-1.4-7.2-3.6-8.9-11.2-8.1
		C243.8,400.8,242.5,400.7,241.5,399.5z"/>
	<path class="st106" d="M250.7,418.7c0.8-0.1,1.5-0.4,1.8-1.2c0.1-2,1.7-2.3,3.3-2.7c2.5,0.1,3.7,1.6,4,3.9
		c-5.4,5.7-11.6,6.7-18.3,3.1c1.8-0.6,3.3,0.9,5.1,0.7c0.1-0.1,0.2-0.3,0.4-0.3C249.9,421.5,250.3,421.1,250.7,418.7z"/>
	<path class="st107" d="M257.7,411.7c1.7-1.8,0.4-4.1,1.2-6.4c2.2,1.7,4.2,2.3,3.7-1.7c1.7,4.2,1.5,8.3-1,12.1
		c-1.8-0.4-3.7-0.6-5.4-1.3C255.8,413,256.3,412.1,257.7,411.7z"/>
	<path class="st108" d="M256.4,414.5c2.2-1.7,4.1-2,5.2,1.2c0.1,1.4-0.8,2.3-1.9,3.1c-1.5-1.1-2.1-3.4-4.4-3.3
		C255.3,414.8,255.6,414.5,256.4,414.5z"/>
	<path class="st109" d="M268.6,409.5c1.5-0.6,0.6-2,1-3c2.1,3.5,2.8,7.1,1,10.9C270,414.9,269.3,412.2,268.6,409.5z"/>
	<path class="st110" d="M345.5,394.5c-1.1,0.1-2.3,0.1-4.2,0.3c3.4,2.2,4.6,5.2,6.2,8c0.7,1.1,0.6,2-0.8,1.9
		c-1.2-0.1-1.9-1.3-2.6-2.1c-5-5.5-9.3-6.1-16.2-2.3c-0.6,0.7-1.1,1.5-1.7,2.3c-2.7,2.6-2.6,5.9-2.5,9.2c0,1.1-0.1,2.6-1.4,2.9
		c-1.3,0.4-0.9-1.5-1.8-1.9l0,0c-1.6-4,1.1-8,0-12.1l0.1-0.1c-0.3-2.7,1.8-4.2,3.5-4.9c6.4-2.4,13-3.9,19.9-2.8
		C344.8,393,345.6,393.4,345.5,394.5z"/>
	<path class="st111" d="M345.5,394.5c-9.2-1.5-18-1.5-24.9,6.1c-4.4,2.8-6.1,7.2-7.1,12c-2-1.5-0.7-3.3-0.2-4.9
		c3-9.6,11.9-16,22.7-16.2c2.8-0.1,5.6,0.2,8.5,0.3c1.5,2.1,5.6,0.2,6,4C348.8,395.3,347.1,394.9,345.5,394.5z"/>
	<path class="st112" d="M326.6,399.7c6.6-4.8,14.6-4.4,18.6,2.1c0.5,0.8,0.4,2.5,2.1,1.9c0.2-0.1,0.2-0.6,0.3-0.9
		c1,0.2,1,1.1,1.1,1.8c0.7,1.6,0.4,3.2,0.3,4.9c0,1-1.1,1.7-1.5,0.9c-1.9-3.5-2.4,0.9-3.6,0.6c-1-0.5-1.2-1.5-1.5-2.5
		c-2.4-7.3-4.2-8.5-12.1-7.5C328.9,400.8,327.5,400.8,326.6,399.7z"/>
	<path class="st113" d="M343.3,410.5c2.1-0.7,0.4-3.1,1.8-4.1c1.8,0.3,2,2,3,3.6c0.2-2.1,0.3-3.8,0.4-5.5c1.9,5.3,0.4,9.9-3.1,14
		c-0.5-5.3-3.5-2.8-6-2C339.6,413.8,340.8,411.8,343.3,410.5z"/>
	<path class="st114" d="M320.4,412.7c0.9,0.2,2.4,2.5,2.1-0.7c-0.4-3.8-0.6-7.6,2.7-10.4c1.5,0.8,1.7,2.2,1.8,3.7
		c-2.3,3.6,0.5,6.7,1,10c-0.6,1.8,0.7,3.1,1.3,4.6c0.7,1.8,0,2.5-1.8,1.7C323.7,419.8,321.1,417,320.4,412.7z"/>
	<path class="st115" d="M327.5,421.6c3-0.7,0.7-1.8,0.1-2.5c-1.2-1.3-2.5-2.5,0.1-3.6c3.5,0.1,6.9,0.3,9.9,2.1c-0.8,1.4-5.1,2,0.5,5
		c-3.9,0-6.3,0-8.7,0C328.7,422.5,327.8,422.5,327.5,421.6z"/>
	<path class="st114" d="M320.5,400.7c2.1,4-0.9,8,0,12.1C318.3,408.7,320.7,404.7,320.5,400.7z"/>
	<path class="st116" d="M337.6,417.7c-3.5,0.1-7,0.4-9.9-2.1c-1-3.3-5.8-6.1-1-10c2.5-1.2,3.7-3.2,3.8-5.9c8.3-2,13,2,12.9,10.9
		c-1,2.2-2.2,4.3-3.9,6.1C338.8,417,338.2,417.3,337.6,417.7z"/>
	<path class="st117" d="M329.5,340.1c2.7,4.2,5.5,8.4,8.2,12.5c1.9,0.7,3.2,2.2,4.1,4c1.6,3.3,4,5.8,6.8,8.1c0,0.6,0,1.3,0.1,1.9
		c-0.7,0-1.4,0-2.1,0.1c-3.4-0.4-6.9,0-10-2c-1,0-2.1-0.1-3.1-0.1c-0.2-0.7,0.2-1.3,0.6-1.8c-1-7-5.4-12.3-9.4-17.7
		c-7.1-9.5-16.6-16.1-27.2-21.3c-1-1.1-1.7-2.4-1.7-3.9c1.7-0.3,3.3,0.1,4.8,0.8c2.5-1.8,4.9-0.5,7.1,0.5
		C316.8,325.2,323.8,331.8,329.5,340.1z"/>
	<path class="st118" d="M336.5,364.6c3.4,0.1,7.1-0.9,10,2c0,2.6-0.1,5.3,0,7.9c0.1,2.4-1.1,3.2-3.2,3.3c-1.3-0.4-2.5-0.9-3.8-1.3
		C340,372.2,336.6,368.8,336.5,364.6z"/>
	<path class="st119" d="M334.4,363.5c-0.4,0.3-0.7,0.6-1,1c-1.6,0.1-3.2,0.2-4.8,0.3c3.6-1.2,3.7-3.3,2-6.4
		c-6-10.7-13.2-20.3-23.7-26.9c-1.1-0.7-2.1-0.9-3.3-0.9c-1.1-1.4-2.5-1.9-4.1-1c-1.2-0.7-0.8-1.9-1-2.9c1.8-1.8,2.6-1.9,5.4-0.2
		c5.5,3.4,10.7,7.2,15.4,11.8c6.6,6.5,11.1,14.4,15.3,22.5C335,361.7,335.5,362.6,334.4,363.5z"/>
	<path class="st99" d="M274.5,334.7c3,2.3,6,4.7,9,7c2.7,2.8,7.1,4.3,7.1,9.1c-2,0.5-3.1-0.9-4.2-2c-5-5.7-11.3-9.5-17.7-13.3
		c-1.8-1.1-4.5-1.7-4.2-4.8l0,0C268.6,330.3,270.5,335,274.5,334.7z"/>
	<path class="st120" d="M346.6,325.7c0.1-1.7-2.6-3.2-0.2-5c4.4,3.7,8.8,7.5,10.9,13c-1.3-0.7-2.6-1.4-3.8-2.1
		C351.2,329.7,348.9,327.7,346.6,325.7z"/>
	<path class="st121" d="M348.5,364.7c-3.4,0.2-4.7-2.5-6.3-4.7c-1.7-2.3-3.1-4.9-4.6-7.4c1.3-0.7,2.1-1.5,1.1-3.1
		c-5.9-10.3-11.8-20.4-22.1-27.2c-5.9-3.9-9.3-10.3-13.6-15.7c-7.6-9.7-15.9-18.5-26.6-24.8c2,0.3,4,0.7,6,1
		c11.1,7.2,22.2,14.5,31,24.6c5.4,6.2,10.5,12.7,14.8,19.8c1.6,2.6,2.4,6,6.2,6.6c4.3,5.3,6.6,11.6,8.9,18c0.7,1.9,0.9,5.1,3.5,4.4
		c2.5-0.6,1.6-3.5,1-5.5c-0.6-2.1-1-4.2,1.3-5.7C348.8,351.4,351.6,358.1,348.5,364.7z"/>
	<path class="st122" d="M329.5,340.1c-5.5-5.5-10.6-11.4-17.4-15.5c-3.6-2.2-7.3-3.9-11.6-4c-1-2.3-2-4.6-3-6.9
		c8.5,6.4,19.6,9,26.4,17.9C326,334.3,328.9,336.4,329.5,340.1z"/>
	<path class="st123" d="M334.4,363.5c-6.5-15.7-16.8-28.1-31.6-36.5c-1.1-0.6-2.9-2.2-4.4-0.3c-1.1-0.8-0.9-2-1-3.1
		c2.2-0.1,4.3,0.6,6.2,1.7c14.3,8.4,25,20,31.9,35.1C336,361.7,337.4,363.4,334.4,363.5z"/>
	<path class="st93" d="M290.5,350.6c-0.8-4.2-5.3-5.5-7-9c5.1,1.6,7.1,6.5,10.4,10c1.1,1.2,1.6,2.9,3.5,3.1c2.5,4.8,2.9,4.8,7.1,0.9
		c-0.2,1.9,0.9,4.4-1.7,5.2c-2.5,0.7-4.4-1-6-2.7c-1.8-2.1-3-4.7-5.3-6.4C291,351.5,290.6,351.2,290.5,350.6z"/>
	<path class="st124" d="M290.5,350.6c0.3,0.3,0.7,0.7,1,1c-0.2,3.6,2.9,5.4,4.6,8c1,1.7,2.9,3.2,2.1,5.3c-0.9,2.5-3.3,1.6-5.2,1.7
		c-6.8,0.4-13.1-1-19.1-4.2c-3.8-2-7.9-3.6-12.1-4.5c-9.3-2-14.1-16.5-9.2-26.2c1-2,2.8-2.2,4.6-2c2.5,0.2,4.9,0.6,7.3,1
		c2,2.8,5.1,4.1,8,5.5C279.6,339.7,284.7,345.7,290.5,350.6z"/>
	<path class="st125" d="M241.5,399.5c1.3,0.1,2.5,0.1,3.7,0.2c2.9,1.4,2.6,3.6,0.9,5.5c-1.8,2-4.1,2.5-5.9-0.4
		c-0.3-0.7-0.6-1.5-0.9-2.2C239.7,401.3,240.4,400.2,241.5,399.5z"/>
	<path class="st126" d="M240.3,404.8c1.8,1.3,3.6,1.6,5.3-0.2c1.6-1.7,0.6-3.3-0.3-4.9c6.1-2.3,13.8,1.3,12.4,12
		c-0.4,0.9-0.9,1.9-1.3,2.8c-0.4,0.3-0.7,0.7-1,1c-0.9,0.7-1.9,1.3-2.9,2C242.2,417.9,238.1,413.5,240.3,404.8z"/>
	<path class="st127" d="M250.7,418.7c2,4.9-1.4,4-4.1,3.8c-1.1-1.4-2.2-2.7-3.5-4.4C245.8,418.4,248.2,418.5,250.7,418.7z"/>
	<path class="st128" d="M330.4,399.6c2,4.8,1.3,5.9-3.8,5.9c-1-1.1-1.4-2.5-1.4-4c0.4-0.6,0.9-1.3,1.3-1.9
		C327.9,399.7,329.1,399.6,330.4,399.6z"/>
</g>
</svg>
