<svg id="Capa_1" data-name="Capa 1" xmlns="http://www.w3.org/2000/svg" viewBox="0 0 335.98 363.25"><defs><style>.cls-1{fill:#e88100;}.cls-2{fill:#bcbdc3;}.cls-3{fill:#9c9da3;}.cls-4{fill:#b2b3b9;}.cls-5{fill:#94959a;}.cls-6{fill:#a2a3a9;}.cls-7{fill:#adaeb4;}.cls-8{fill:#8f9096;}.cls-9{fill:#a5a6ab;}.cls-10{fill:#dad7d9;}.cls-11{fill:#4a3428;}.cls-12{fill:#3b281d;}.cls-13{fill:#321f13;}.cls-14{fill:#3d291d;}.cls-15{fill:#737377;}.cls-16{fill:#261408;}.cls-17{fill:#cdcdcd;}.cls-18{fill:#cecece;}.cls-19{fill:#402d21;}.cls-20{fill:#2e1e14;}.cls-21{fill:#bbb;}.cls-22{fill:#3e2a1f;}.cls-23{fill:#bcbcbd;}.cls-24{fill:#5a4438;}.cls-25{fill:#2b1c12;}.cls-26{fill:#acacac;}.cls-27{fill:#a8a8a8;}.cls-28{fill:#dfbaa7;}.cls-29{fill:#e0b9a6;}.cls-30{fill:#cda690;}.cls-31{fill:#24150a;}.cls-32{fill:#cea892;}.cls-33{fill:#a98169;}.cls-34{fill:#b68f79;}.cls-35{fill:#c8a796;}.cls-36{fill:#c7a592;}.cls-37{fill:#775b4f;}.cls-38{fill:#d6d7dc;}.cls-39{fill:#c0c1c7;}.cls-40{fill:#d4d5da;}.cls-41{fill:#818287;}.cls-42{fill:#f7d2bf;}.cls-43{fill:#d9b19a;}.cls-44{fill:#d9b19b;}.cls-45{fill:#cca48c;}.cls-46{fill:#bd947c;}.cls-47{fill:#e7c0ab;}.cls-48{fill:#ae836a;}.cls-49{fill:#eac4b1;}.cls-50{fill:#cda48e;}.cls-51{fill:#a0755d;}.cls-52{fill:#c3967e;}.cls-53{fill:#311e12;}.cls-54{fill:#432d20;}.cls-55{fill:#c69e86;}.cls-56{fill:#b38a71;}.cls-57{fill:#63483c;}.cls-58{fill:#2b1609;}.cls-59{fill:#926850;}.cls-60{fill:#321c0e;}.cls-61{fill:#987057;}.cls-62{fill:#664a3e;}.cls-63{fill:#8f664e;}.cls-64{fill:#220d03;}.cls-65{fill:#a9816a;}.cls-66{fill:#321e10;}.cls-67{fill:#a77b62;}.cls-68{fill:#2e190b;}.cls-69{fill:#5c4135;}.cls-70{fill:#8a654e;}.cls-71{fill:#6f5447;}.cls-72{fill:#664b3f;}.cls-73{fill:#543d30;}.cls-74{fill:#e6c0ab;}.cls-75{fill:#eae7e6;}.cls-76{fill:#eae8e7;}.cls-77{fill:#e7e5e5;}.cls-78{fill:#a48870;}.cls-79{fill:#c79f88;}.cls-80{fill:#604c40;}.cls-81{fill:#5d473b;}.cls-82{fill:#b28e79;}.cls-83{fill:#857063;}.cls-84{fill:#614c41;}.cls-85{fill:#caa18b;}.cls-86{fill:#8a7467;}.cls-87{fill:#e3bba5;}.cls-88{fill:#eae9e9;}.cls-89{fill:#3b261a;}.cls-90{fill:#442c20;}.cls-91{fill:#fbd7c4;}.cls-92{fill:#2d1b0e;}.cls-93{fill:#4c2f1f;}.cls-94{fill:#ddb8a5;}.cls-95{fill:#c8a08b;}.cls-96{fill:#493226;}.cls-97{fill:#684d40;}.cls-98{fill:#5c4235;}.cls-99{fill:#5a4033;}.cls-100{fill:#efcab5;}.cls-101{fill:#dbb49e;}.cls-102{fill:#dbb49f;}.cls-103{fill:#43301b;}.cls-104{fill:#24170f;}.cls-105{fill:#60482a;}.cls-106{fill:#584320;}.cls-107{fill:#a48a73;}.cls-108{fill:#745941;}.cls-109{fill:#907557;}.cls-110{fill:#846a5b;}.cls-111{fill:#41331d;}.cls-112{fill:#23150f;}.cls-113{fill:#584121;}.cls-114{fill:#7e6346;}.cls-115{fill:#59462b;}.cls-116{fill:#74573d;}.cls-117{fill:#030303;}.cls-118{fill:#90644c;}.cls-119{fill:#402a1e;}.cls-120{fill:#caa58f;}.cls-121{fill:#89644e;}.cls-122{fill:#523a2c;}.cls-123{fill:#361a0b;}.cls-124{fill:#b38872;}.cls-125{fill:#fdd9c6;}.cls-126{fill:#efeee8;}.cls-127{fill:#030202;}.cls-128{fill:#826345;}.cls-129{fill:#f8f4ed;}</style></defs><title>image1</title><ellipse class="cls-1" cx="167.99" cy="197.4" rx="167.99" ry="160.8"/><path class="cls-2" d="M409.39,446.73c3.25,5.47,2.42,11.23,1.19,17-1.94-3.09-1.13-6.21-.57-9.37-.72,9-.55,18-2.46,26.88-1.1,4.85-1.22,9.9-2.94,14.63-2.35,6.51-5.11,7.58-11.86,6.34-14-2.59-27.51-7.47-41.76-9.07-7.73-.87-14.72-5-22.56-5.94-2.78-.33-5.47-1.24-8.34-.75a4.62,4.62,0,0,1-2.95-.22c-8.48-4.74-18.14-4.74-27.29-6.19-12.64-2-24.69-6.35-37.37-8.11-6.53-.9-12.84-3.25-19.57-3.39-8.06-.16-15.74-3.15-23.14-5.48-8.46-2.67-16.92-4-25.52-5.29-5.48-.81-9.43-3.85-12.6-8.18a2.9,2.9,0,0,1,1.91-3.05,169.51,169.51,0,0,1,26.85-.17c3.81.24,7.61.62,11.45.62q56.69,0,113.36,0c10.32,0,20.61,2,30.91.89,11.8-1.31,23.61-.63,35.41-.85C397.49,446.91,403.46,448,409.39,446.73Z" transform="translate(-120.59 -226.35)"/><path class="cls-3" d="M406.75,529.4l2.87,3c.29,2.17-1.18,4-1.29,6.05-.53,1.55-.57,3.22-1,4.79-1.79,3-1.52,6.06-.1,9.11a7.39,7.39,0,0,1,.28,1.4,4.16,4.16,0,0,1-.65,2.72,4.22,4.22,0,0,1-1.25.68c-1.94,3.79-2.1,8-2.71,12a26,26,0,0,1-2.35,8.1c-.85,1.68-2,3.39-3.94,3.51-4.13.25-8.46,1.3-12.38.27-11-2.91-22.36-3.06-33.4-5.29-10.08-2-20.12-4.41-30.11-6.89-9.34-2.33-18.56-5.35-28.38-5.11a14.76,14.76,0,0,1-6.79-1.51c-8.45-4.19-17.62-4.68-26.73-5.31-4.69-.33-8.52-2.72-12.68-4.3-2.37-.89-4.65-1.79-7.22-1.72-4.9.14-9.62-.48-13.94-3.07a7.9,7.9,0,0,0-4.36-.9c-6.19.16-12.07-1.26-18.11-2.44a131.22,131.22,0,0,1-14.94-4.12c-4.63-1.48-7-4-8.29-8.25-2.23-7.53-3.21-15.28-4.12-23-.41-3.59-.09-7.36-2.39-10.53q-.1-8.43-.22-16.87c-.13-2.24-1.87-5.77,1.1-6.19,2.8-.39,2,3.4,2.42,5.52a38.6,38.6,0,0,1,1.07,8.76c0,7.88,2.08,15.42,4.07,22.95A5.71,5.71,0,0,0,185.6,517a314.86,314.86,0,0,0,35.89,8c7.63,1.2,15.23,2.75,22.8,4.21,10.39,2,20.8,3.88,30.91,7.46,6.1,2.17,12.92,2.51,19.39,3.93,13.61,3,27.4,5.19,41,8.15,13.45,2.92,27,5.15,40.4,8.4,5.15,1.25,10.46,1.57,15.54,3.42,4.29,1.57,7.5-.69,8.27-5.38,1.08-6.56,2.79-13,3.42-19.66C403.46,533.13,403,529.94,406.75,529.4Z" transform="translate(-120.59 -226.35)"/><path class="cls-4" d="M171.65,449.61c1.93,0,2.94,1.44,4,2.63a11,11,0,0,0,6.4,3.62c5.34.86,10.7,1.63,16,2.59,3.68.67,7.63-.33,10.39,3.35,1,1.28,2.81.83,4.27.77a11.87,11.87,0,0,1,6.32,1.08,32.27,32.27,0,0,0,14.83,3.67c12.55.29,24.07,5.85,36.55,6.49,3.52.19,6.77,3.07,10.72,3.21,7.36.26,14.18,5,21.89,2.68,1.36-.41,2.58.47,3.77,1.05,5.33,2.63,10.77,3.72,16.85,4.35,7.19.76,14.88,1.62,21.8,5.48a26.35,26.35,0,0,0,13.9,2.73c6.67-.44,12.13,2.75,18.09,4.28s12.08,1.67,17.89,3.83c3,1.12,5.56-.21,7.11-3.64,2.35-5.2,2.05-10.95,4-16.2,1.63,1.58,1.47,3.67,1.39,5.62a196.84,196.84,0,0,1-3.29,28.65c-.71,3.7-4,6.15-8.19,5.77-7.11-.65-14.23-1.5-21-4.12a10.3,10.3,0,0,0-2.79-1c-10.12-.73-19.75-4.09-29.74-5.55-6.21-.9-12.36-2.29-18.52-3.51-8.23-1.64-16.26-4.89-24.9-4-1.91-1.52-4.22-2.06-6.54-2.63-12.27-1.11-23.31-7.51-35.8-8-6.93-.28-13.51-3.41-20.46-4.22-9.65-1.13-18.69-4.82-28.42-6.19a121.12,121.12,0,0,1-26.85-6.87c-3.66-1.43-4.8-4.8-6-8.12-1.33-3.67-.68-7.61-1.75-11.3-.18-.64.13.1-.26-.41-.18-.24-.53.11-.41.62-.33,2.91.93,6-1.49,8.53C170.32,459.71,170,454.65,171.65,449.61Z" transform="translate(-120.59 -226.35)"/><path class="cls-5" d="M172.75,498.6c4.93,2.28,3.05,7.11,3.7,10.77,1.34,7.63,1.93,15.41,4.22,22.86,1.08,3.53,2.36,7,7.35,6.47,1.62-.18,3.16,1,4.35,2.18,2.06,2.07,4.34,3,7.14,1.59,1.57-.77,2.89,0,4.23.64a27.35,27.35,0,0,0,14,2.49c3.58-.19,7.07-.42,10.31,2.36,1.64,1.4,4.78,1.72,7.13,1.48,6.82-.71,12.48,2.15,18.22,5,4.64,2.32,9.78.74,14.68,1.89,5.73,1.36,11.74,1.29,17.14,4.37a14.68,14.68,0,0,0,7.65,1.71c9.31-.49,17.91,2.69,26.72,4.69,16.36,3.71,32.53,8.13,49.37,9.72,4.74.44,9.8.57,14.69,2.51,3.91,1.56,9.22,1.19,13.4,0,3.32-1,3.74-5.57,4.36-9,.85-4.7,1.39-9.46,2.13-14.19.13-.85.15-2.26,1.66-1.51.32.16.19,1.24.27,1.89,1.77,2.17,1.43,4.57.84,7-1.3,2-1.41,4.34-1.5,6.7-.39,10.4-4.73,14.32-15,13.71-.5,0-1-.05-1.5,0-25.3.5-50.57-1.1-75.86-1.2-14.93-.06-30-.06-44.79-2.13-8.14-1.13-16.66-.52-24.51-3.94a20.07,20.07,0,0,0-7.84-1.37A28.54,28.54,0,0,1,219,570.36c-4.42-2.92-10.36-1.63-15.6-2.19-4.41-.46-8.56-.95-12.29-3.44a6.16,6.16,0,0,0-2.68-1.28c-6.08-.54-7.76-4.52-8.46-9.87-.86-6.59-2.67-13-3.08-19.72a5.34,5.34,0,0,0-2.18-4.31C173,519.29,174.06,508.87,172.75,498.6Z" transform="translate(-120.59 -226.35)"/><path class="cls-6" d="M406.75,529.4c-3.66,3.77-2.05,8.84-3,13.24a104,104,0,0,0-2.51,13.63c-.41,5.26-5.77,7.82-11,5.56-6.34-2.76-13.42-2.09-19.71-4.4-9.05-3.33-18.78-2.78-27.93-6-7.81-2.75-16.35-3.55-24.63-4.81-9.12-1.4-18-4.08-27-5.5-4.2-.66-8.2-3.85-12.83-1.76-.58.25-1.63-.25-2.34-.64-6.74-3.76-14.47-4-21.64-6.22-7.74-2.35-15.79-3.13-23.6-5.19-5.61-1.48-12.3-1-18.15-2.87-7.06-2.31-14.88-1.26-21.52-5.17a3.93,3.93,0,0,0-2.35-.64c-6.86,1.18-8.57-3.22-9.65-8.57-1.31-6.46-2.88-12.88-3.28-19.49,2.68.27,2.63,2.62,3.22,4.38.84,2.51,1.26,5.16,2.36,7.61a5.94,5.94,0,0,0,4.91,3.62c13,2.28,26,4.72,38.92,7.67,10.63,2.43,21,6.27,32.08,6.83,8.22.42,15.83,3.63,23,7.71a7.07,7.07,0,0,1,1.71,1.42c1.64,2.52,3.44,4.63,6.83,2.58a6.81,6.81,0,0,1,5.27-.72c4.11,1.26,7.07-.13,9.27-3.63a8.26,8.26,0,0,1,1.15-1.06c2.35-4.51,5.53-5.47,10.64-4.09,8.31,2.23,17.12,2.77,25.39,4.75,8.64,2.06,17.86,2,26,6.2a8.4,8.4,0,0,0,3.32,1c7.84.4,15.41,2.48,23.1,3.75,4.72.78,6.42-.19,7.72-4.83a177,177,0,0,0,4-21c.66-4.26.66-8.71,3.74-12.94a9.73,9.73,0,0,1,.31,6.8l-.12,2.89c-1.33,5.92.45,12-.95,17.91C407.24,528.13,407,528.77,406.75,529.4Z" transform="translate(-120.59 -226.35)"/><path class="cls-7" d="M408.55,506.7v-5.92c-4.39,6.84-2.48,13.86-4,20.24-1.3,5.44-1.5,11.1-3.88,16.33-1.28,2.84-3.27,3.93-5.89,3.12-10.86-3.37-22.72-2-33.21-7.23-2-1-4.52-.76-6.81-1.08-9.21-1.32-18.08-4.32-27.51-4.94a47.3,47.3,0,0,1-13.9-3.09c-4-1.54-5.75-.92-7.09,2.81-.23.66-1.19,1-1.82,1.57-1-1.87-1.21-4-2.67-5.79-1.85-2.21-1.73-4.94-.93-7.57,1.66-5.51,1.7-5.5-4.07-6.72-1.44-.54-1.72-1.58-1.24-2.93a4.32,4.32,0,0,1,3-2.92c5.31-2.06,10.32-.07,15.43,1,12.27,2.67,24.66,4.78,36.93,7.3,7.41,1.52,15.25,1.46,22.13,4.07,7.08,2.69,14.26,3.67,21.48,5.11,5.67,1.13,8.14-1,9.07-6.51a184.82,184.82,0,0,0,2.91-32l2.79-27.9,1.3.05v10q-.58,19.58-1.19,39.16C409.35,504.22,409.51,505.59,408.55,506.7Z" transform="translate(-120.59 -226.35)"/><path class="cls-8" d="M174.68,529.55c1.76-2.11,2.66-1.27,3,1,.67,4.23,1.37,8.47,1.87,12.72.54,4.61,2.1,9,2.4,13.68.2,3,1.89,5.36,5.63,4.65s4.82,3.71,8.18,4.09c6.37.74,12.68,2,19.12,1.87,2.64-.06,4.8.4,6.71,2.47,2.6,2.81,5.92,3.82,9.88,3.65A36,36,0,0,1,248,576.71c.6.27,1.28.76,1.85.68,7.39-1,14.36,1.84,21.62,2.23,25.89,1.38,51.8,1.58,77.71,2.22,12.61.31,25.24.45,37.86.65,14.78.24,15.2-.28,16.47-15.23.14-1.6.41-3,2-3.7,2.45,3,1.05,6.46,1.36,9.72-.35,2.44-.74,4.87-2.23,7-4.05,5.42-9.65,6.53-16,5.79a44.6,44.6,0,0,0-4.48-.08c-63.37-.66-126.73-1.33-190.1-.92a26.29,26.29,0,0,1-6.44-.54c-6.81-1.63-8.85-4.08-9-11.12a94.47,94.47,0,0,0-1-11.28A175.86,175.86,0,0,1,179,581.27a4.73,4.73,0,0,1-1.39,3.41c-2.22-.36-2.28-2.23-2.37-3.8q-1.17-20.28-2-40.57c.11-2.91-.49-5.87.42-8.75Z" transform="translate(-120.59 -226.35)"/><path class="cls-9" d="M280.52,529.57c-7.65-3.14-15.12-7.24-23.51-7.58-13.2-.52-25.66-4.87-38.12-8.11-9.28-2.42-19.18-1.69-27.94-6a1.75,1.75,0,0,0-1-.21c-9.46,1.81-10.85-5-12.33-11.61-.43-1.93-.65-3.92-2.06-5.47.26-4.9-1.07-9.58-1.56-15.41-2,2.69-1.13,4.75-1.51,6.56-1.61-5.57-.72-11.3-1.05-17,.05-3.37.11-6.75.16-10.13,3.25.13,2.68,2.61,3,4.66,1.12,8.21,2.39,16.4,4.25,24.49,1.18,5.15,4.11,8,9.61,8.48,8.76.82,17.21,3,25.74,5.4,7.8,2.19,15.91,4.34,24.33,4.78,6.31.33,12.63,2.35,18.71,4.45a30.88,30.88,0,0,0,6.78,1.41c8.09.93,12.94,5.23,14.35,12.63C278.37,524,282,526.16,280.52,529.57Z" transform="translate(-120.59 -226.35)"/><path class="cls-10" d="M409.39,446.73c-3.05,2.31-6.17,2.44-10.12,2.27-13.09-.57-26.22-.92-39.35.2a148.67,148.67,0,0,1-21.42.06c-2.6-.15-5.24-.64-7.89-.64-40.95,0-81.91.43-122.85-.33-11.35-.21-22.9.64-34.2-1.73,3.29-3.84,7.7-1.11,11.49-2,1.82-.42,4.44,1.48,5.36-1.74,2.13-2.34,5-1.49,7.55-1.62h2.59c2-.08,3.93,0,5.89,0,1.39,0,2.77,0,4.16,0,1.93,0,3.85-.06,5.78,0,1.39,0,2.77-.06,4.16,0,1.13-.06,2.26,0,3.39,0,2.32-.11,4.64,0,7,0,3.33-.29,6.67.14,10-.13,11.06.08,22.11-.28,33.16.17,5.25,1.38,10.49,0,15.72-.19,6.41-.24,12.78,1.64,19.18.2,13.38-.39,26.76-.26,40.13-.1,9-.15,17.84,1.77,26.83,1.09,2-.15,4,.11,5.95-.42a14.55,14.55,0,0,1,4.4-.54c2.27.14,4.78-.36,6.14,2.26,3.26,2.27,6.92.68,10.38,1C405.19,444.82,407.74,444.32,409.39,446.73Z" transform="translate(-120.59 -226.35)"/><path class="cls-11" d="M373.53,278.67c.31,4.78,4.44,7.17,6.8,10.63,3.37,4.94,6.89,9.75,9,15.41.61,7.58,1.39,15.24.78,22.74-.59,7.33-2.75,14.57-4.58,21.77-1.43,8-6.63,14.57-8.32,22.46q-1.54,2.82-3.24,5.55c-1.75,2.81-4,4.36-7.44,3-2.7-1.58-1.78-4.79-3.13-7a2.87,2.87,0,0,1,.73-3.62c2.62-2.72,2.74-6.35,3.37-9.73a66,66,0,0,0-.35-25.25c-1.55-7.84-1-15.91-1.89-23.85-.54-4.76-.21-9.61-.9-14.42-.54-3.69-.58-7.51,4.56-8.24-.89-2.18-3-3.24-3-5.48,1.24-3.12,4.29-3.31,6.89-4.23Z" transform="translate(-120.59 -226.35)"/><path class="cls-12" d="M178.85,332.63a45.9,45.9,0,0,1,4.07-17.89c.5-.05,1.1-.18,1.44.16,3,3,5.56,6.47,11,4.37,1.87-.72,2.53,2.24,2.25,4.07-.4,2.63-.41,5.27-.65,7.89-1.36,14.35,2.13,27.86,6.87,41.18,0,6.93.08,13.84-.51,20.79-.49,5.68.08,11.3-1.3,17.1-1.13,4.74-3.11,6.06-7.3,5.83a2.64,2.64,0,0,1-2.15-2.2c-.37-2.06-.3-4.18-.72-6.25a6.65,6.65,0,0,1,.18-2.35c1.32-10.07-.14-20.11-2.53-29.67-3.42-13.71-6-27.63-9.82-41.24A4.29,4.29,0,0,0,178.85,332.63Z" transform="translate(-120.59 -226.35)"/><path class="cls-13" d="M196.65,297.81c-.7-4-3.53-5.13-7.12-5.27-1.07,0-2.53.85-3.14-.45s.54-2.38,1.31-3.45c2.68-3.68,6.63-4.56,10.79-4.91,1.95-.17,3.93-.1,5.89-.14,4.08-1.34,5,1.94,5.71,4.44,1.62,5.62,5.1,10,8.68,14.34,2.2,2.7,4.73,3.55,8.31,2.92,8.78-1.57,17.29-.43,25.81,2.53a137.85,137.85,0,0,1,17.55,8c9.42,5,16.11,12.94,22.41,21.22,1.71,2.24,3.73,4.21,5.22,6.6.93,1.49,2.58,2.72,1.75,4.85-2.31,1.21-3.67-.43-4.91-1.85-1.6-1.83-3.19-3.65-5-5.33a94.35,94.35,0,0,0-20.46-16.56c-1.25-.79-2.71-1.31-3.55-2.66-2.37-3.44-6.44-4.06-9.85-5.39-8-3.13-16.29-5.67-25.2-3.58-3.86.91-6.78,2.53-8.13,6.43-.6,1.73-1.3,3.58-2.73,4.7-6.33,4.93-8.13,12.29-10.62,19.29-1.55,2.47-2.47,5.55-5.89,6.25-1.61-7.51.81-14.09,5.48-19.65,7.07-8.4,7.14-8.12,1-17A52.92,52.92,0,0,0,198.47,301C197.44,300.22,196.21,299.46,196.65,297.81Z" transform="translate(-120.59 -226.35)"/><path class="cls-14" d="M384.48,349.62c-.13-6,2-11.66,3.35-17.3,1.86-7.65,0-15,.45-22.51.11-1.82-.16-3.56,1-5.1a96.86,96.86,0,0,1,9,26,5.17,5.17,0,0,0-.73,3.82c3.67,13.72-.21,26.87-2.88,40.13-1.47,7.29-2.36,14.68-3.71,22a5.92,5.92,0,0,0,1,5.19c.9,2.08-.32,4.1-.13,6.16-.08,2.72-1.11,5.31-1.12,8-1.52,3.45.77,8-3,10.8-2.16-1.57-2.45-4.07-2.4-6.27.29-12.57-2.95-25.21.72-37.75a43.51,43.51,0,0,0-5,10.44,1.47,1.47,0,0,1-1.37.67,4.13,4.13,0,0,1-2-2.45c-1.13-8.43.93-16.49,3.06-24.51C382.28,361.24,385,355.78,384.48,349.62Z" transform="translate(-120.59 -226.35)"/><path class="cls-15" d="M177.58,584.55l.13-2.91a1.63,1.63,0,0,1,1.85-.36c6.57,4.15,13.91,3.75,21.23,3.8,14.8.11,29.59-.44,44.38-.49q38.86-.12,77.73.63c22.61.43,45.22-.25,67.82.55,4.55.16,8.91-.59,12.53-3.69,2.43,2.61,2.25,3.23-1.86,6.36a17.42,17.42,0,0,1-7.33,1.14q-103,0-206,0a20.51,20.51,0,0,1-7.34-1.14C179.26,587.46,176.94,587.18,177.58,584.55Z" transform="translate(-120.59 -226.35)"/><path class="cls-11" d="M196.65,297.81c7.87,5.14,12.83,13,18.66,20,3.43,4.14.78,7.08-1.9,9.31-7.17,5.94-8.94,14-9.83,22.51,1.57,1.59,1.39,3.64,1.34,5.58-.21,7.91,2.42,15.1,5.47,22.19,1.56,1.48,1.53,3.17.7,5a2.21,2.21,0,0,1-2.06.82c-2.15-.62-3.05-2.43-4.05-4.17-.92-2.09-1.44-4.33-2.4-6.41-5.52-13.6-8.25-27.65-7-42.37.2-2.31.1-4.61.86-6.86.36-1.05.51-2.44-.53-3.24s-2.15,0-3.09.72c-3.12,2.34-5.35,2.28-6.34-2.11-.41-1.84-2.1-2.9-3.53-4C185.19,307.22,190.22,302,196.65,297.81Z" transform="translate(-120.59 -226.35)"/><path class="cls-11" d="M220.61,261.7a112.76,112.76,0,0,1,15.78-14.32,7.1,7.1,0,0,1,4-1.79c.77-.4,1.62-.68,2.11.3a1.62,1.62,0,0,1-.79,2.12,47.69,47.69,0,0,1-7,3.49c7.54-3.51,14.92-7.34,22.94-9.73,7.63-2.27,15.48-3.67,23.06-6.12,1.95-.64,4.66-1.52,6.17,1.34-.82,3.49-4,2.61-7.13,3.6,18.07-1.55,33.95,2.77,48.88,11.12,1.39,1.11,3,1.9,4.36,3,1,.82,2.62,1.63,1.17,3.38-2.35.65-4.25-.62-6.07-1.67-18.08-10.49-38-11.49-58-10.08-10.27.72-19.7,5.57-28.63,10.82-3.15.91-5.66,3-8.51,4.54-5.51,3.52-10.5,7.5-13.33,13.69a12,12,0,0,0,0,10.53c3.93,8.81,9.72,14.64,20.18,13.79,1.48.42,3,.7,4,2.1-1.19,3-3.84,2.18-6,2-3.29-.32-6.57-.74-9.89-.94a11.26,11.26,0,0,1-9.43-5.62c-1.28-2.13-2.64-4.21-3.78-6.43-2.66-5.16-3.12-10.25-.46-15.71C216.41,270.66,219.3,266.55,220.61,261.7Z" transform="translate(-120.59 -226.35)"/><path class="cls-16" d="M328.52,252.7c-8.32-3.52-16.33-7.81-25.31-9.62-8.49-1.72-17.1-1.37-25.94-1.45.67-2.84,2.62-2.93,4.61-2.91s3.71.05,4.71-2c8.4-3.63,16.81-7.26,25.87-9,.27,4-2.28,7.13-3.08,10.81-.36,1.67-.87,3.3.68,4.5,1.36,1.07,2.39-.42,3.5-.9,5.15-2.19,8-6.52,10.16-11.38,6.37.43,15.07,8.75,15.7,15C339.91,250.61,334.43,254.1,328.52,252.7Z" transform="translate(-120.59 -226.35)"/><path class="cls-17" d="M401.39,588.44c.75-2.09,3.06-3.38,3-5.88a2.29,2.29,0,0,1,0-3q.57-3,1.12-6c1.33-5.62-.42-11.42.95-17.05,0-1,0-1.95,0-2.93a52.45,52.45,0,0,1,.52-12.64c1.83-3.75,3.94-3,5.76-.13,2.93,4.64,5.27,9.55,6,15.1,1.06,7.88,1.87,15.78,3.08,23.64.94,6.07,1.3,6.3,7.65,6.61,1.57.3,3.63-.21,3.94,2.27Z" transform="translate(-120.59 -226.35)"/><path class="cls-18" d="M177.58,584.55l3.09,3.92-31.1-.05c.74-2.73,3.09-1.94,4.93-2.29,4.6.56,6.58-1.7,7.12-6.11,1-8.53,2.06-17.08,3.53-25.56A36.79,36.79,0,0,1,170,542c.95-1.61,1.92-3.69,4.53-2.43q1.09,20.85,2.17,41.71C176.72,582.46,176.58,583.67,177.58,584.55Z" transform="translate(-120.59 -226.35)"/><path class="cls-19" d="M220.61,261.7c1.26,5.71-3.24,9.37-5.15,13.89-5,11.74,3.51,25.88,16.13,26,4,0,8,2.71,12,.11,1.15-1.05,2.26-.42,3.38,0a103.76,103.76,0,0,0,9.76,4.18,72.8,72.8,0,0,1,10.44,5.79c1.72,1.13,3.89,2.16,3.37,4.92-1.81.26-3.06-.88-4.5-1.7a68.21,68.21,0,0,0-32-9.29c-2.15-.07-4.31-.16-6.34.79-4.51,2.09-7.58-.15-10.23-3.48-3.69-4.65-7.53-9.21-8.75-15.28a4.69,4.69,0,0,0-4.33-4.12c1.58-6.23.76-13,4.23-18.82,2.15,2.14-.35,4.8.94,7.41,4.22-1,4.75-6,8.17-7.76Z" transform="translate(-120.59 -226.35)"/><path class="cls-20" d="M178.85,332.63c3.45,1.29,3,4.75,3.67,7.31,2.56,10.05,4.45,20.28,7.09,30.31,3,11.24,3.91,22.66,4.35,34.18,0,.86-.58,1.06-1.26,1.18-3.68-2.6-2.21-6.68-2.89-10.13-2.84-10-7.64-19.3-9.53-29.65A132.91,132.91,0,0,1,178.85,332.63Z" transform="translate(-120.59 -226.35)"/><path class="cls-21" d="M429.48,587.54c-8.07,0-8,0-9-8.13s-1.72-16.42-3.1-24.53c-.89-5.23-3.42-10-6.33-14.48-1.59-2.46-2.36,0-3.51.19a1.39,1.39,0,0,1-.08-2c-.1-2.34,0-4.62,2.17-6.14,6.05,2,8.45,7.54,11.7,12.23,2.24,7.6,4.38,15.26,6.12,23C428.9,574.05,430.13,580.76,429.48,587.54Z" transform="translate(-120.59 -226.35)"/><path class="cls-22" d="M328.52,252.7c11.18-1.85,12.36-5,5.63-14.08-2.75-3.72-6.37-6-10.43-7.86,4.53-2.55,8.26.15,11.86,2.14,10.12,5.61,16.48,14.78,22.31,24.37,1.26,2.07,2.47,4.17,3.7,6.25-1.09,3.14-2.42.51-3.26-.06-2.24-1.52-3-4.29-4.66-6.32-1.15-1.39-2.17-2.88-3.42-4.28-3.24,7-6.9,8.72-14.08,6.93-.9-.4-1.86-.74-1.69-2C333.49,254.9,329.61,255.44,328.52,252.7Z" transform="translate(-120.59 -226.35)"/><path class="cls-23" d="M174.49,539.61c-5.47,3.35-6.79,9.07-7.81,14.66a234.81,234.81,0,0,0-3.76,26.45c-.41,6.08-3.2,7.41-8.32,6.82-.83-1.58-.53-3.27-.27-4.87,2.3-13.81,3-28,10-40.67a3.37,3.37,0,0,0,.23-1.46c2.87-3.13,4.61-7.39,9-9C175,534.12,174.58,536.88,174.49,539.61Z" transform="translate(-120.59 -226.35)"/><path class="cls-24" d="M312.46,227.73c-8.42,3.6-16.7,7.59-25.87,9-5.5-1.4-10.1,1.95-15.16,2.9-12.92,2.45-25.09,7.19-38,13.58,2.2-3.85,5.19-4.24,7.41-5.67,1.76-1.13,1.16-1.66-.47-2,9.93-6.79,21.35-9.58,32.88-11.72,11.87-2.2,23.89-3.6,35.55-6.91C309.89,226.64,311.68,225.42,312.46,227.73Z" transform="translate(-120.59 -226.35)"/><path class="cls-25" d="M391.32,401.6c-2.59,1-1.91-1.08-1.78-2.09.7-5.55,1.52-11.08,2.37-16.61,1.95-12.78,5.94-25.25,6-38.31a58,58,0,0,0-1.28-9.66c-.3-1.81-.1-3.29,1.65-4.24q1.1,6,2.17,12c2.9,15.93-1.63,30.85-6.09,45.81-.89,3-1.29,6.11-1.92,9.17C393.6,399.41,392.87,400.63,391.32,401.6Z" transform="translate(-120.59 -226.35)"/><path class="cls-11" d="M336.47,258.72c7.88,2,12-.88,12-9.08,3.81,2.87,5.95,6.36,8.16,9.82,1.19,1.86,1.89,4.48,5,4.06l7.12,10.94c-.9,3.63-3.2,1.2-5,1.15-8.42-3.59-16.16-8.48-24.12-13C338.14,261.8,336.13,261.15,336.47,258.72Z" transform="translate(-120.59 -226.35)"/><path class="cls-26" d="M164.57,540.54c1.53,4-1.18,7.41-2.54,10.45-4.71,10.52-3.91,21.94-6.44,32.76-.29,1.27-.65,2.53-1,3.79-1.69.22-3.54-.49-5,.88-.82-.28-1.71-.7-1.48-1.68C151.94,570.76,154.3,554.24,164.57,540.54Z" transform="translate(-120.59 -226.35)"/><path class="cls-27" d="M429.48,587.54a133.46,133.46,0,0,1-2.67-17.39c-.52-5.21-2.64-10.47-4.23-15.63a32.74,32.74,0,0,1-1.26-9.86c7.54,12.6,10.11,26.82,13.26,40.85.25,1.08.35,2.37-1.08,3C432.39,587.19,430.86,587.69,429.48,587.54Z" transform="translate(-120.59 -226.35)"/><path class="cls-28" d="M392.42,443.52c-1.85-1.11-3.9-.88-5.92-.92-1.26-1.55-.71-3.3,0-4.69,2.43-4.83,2.94-10.11,4-15.27a11.31,11.31,0,0,1,1.34-3.71c.84-1.36,2-2.34,3.68-1.89,1.86.5,2,1.95,1.64,3.57a6.17,6.17,0,0,0,.17,3.89C395.75,430.86,395.85,437.65,392.42,443.52Z" transform="translate(-120.59 -226.35)"/><path class="cls-29" d="M198.57,442.6l-8.16.23c-3-5.74-3.27-12.18-4.64-18.33a7.27,7.27,0,0,0,.35-1.41c.59-1.6-1.51-4.62,1.61-4.7,2.34-.06,3.88,2.23,4.33,4.67a37.29,37.29,0,0,0,3.83,11.05C195.85,437.23,200.06,439,198.57,442.6Z" transform="translate(-120.59 -226.35)"/><path class="cls-30" d="M397.33,424.5c-.89-.72-.72-1.75-.87-2.72-.23-1.44.94-3.77-1.69-3.89-2.21-.09-2.45,2.15-2.67,3.64-1,7.25-3.48,14.12-5.6,21.07l-4,.25-.46-.51c.21-4.08,2.25-7.59,3.56-11.33.83-1.32.48-3.19,1.95-4.22q1-5.58,2-11.16c3-4.75,4.84-5.42,8.71-3.12C399.13,416.6,397.67,420.5,397.33,424.5Z" transform="translate(-120.59 -226.35)"/><path class="cls-31" d="M217.72,264.42c-1.09,3.42-3.57,5.89-5.89,8.46-.74.82-1.56,2-2.92,1.27s-1.37-2.18-1.25-3.52c.17-2,1.35-3.79,1-5.86,1.85-5.38,5.38-9.25,11.41-12.15C218.1,256.83,217,260.51,217.72,264.42Z" transform="translate(-120.59 -226.35)"/><path class="cls-32" d="M195.57,434.62c-3.6-2.15-3.52-6.28-4.21-9.51a9.91,9.91,0,0,0-3.83-6.09c-1.86,1.57,0,4.1-1.76,5.48-.17-4-1.8-7.86-1.06-11.94,1.22-2.13,2.8-1.14,4.24-.4a15.12,15.12,0,0,1,6.56,7.14c.54,3.78.82,7.59,1.37,11.37C196.88,432.14,196.77,433.56,195.57,434.62Z" transform="translate(-120.59 -226.35)"/><path class="cls-33" d="M398.3,412.51c-3.9-1.74-6.12,1.2-8.71,3.12-.46-2.82,1.08-5.37,1.08-8.13,1.5-2.82,3.22-5.12,6.85-2.89C398.65,407.16,398.53,409.83,398.3,412.51Z" transform="translate(-120.59 -226.35)"/><path class="cls-34" d="M194.43,418.65c-2.92-2.54-4.67-7-9.72-6.09-.15-3-.51-6.07,1.1-8.87,2-1.44,3.26-.59,4.05,1.44-1.55,2-1.83,3.78.93,5.06,1.44.67,2,2.14,2.69,3.45l1,2.06A1.89,1.89,0,0,1,194.43,418.65Z" transform="translate(-120.59 -226.35)"/><path class="cls-35" d="M189.61,405.6c-.73-1.71-2.13-2.08-3.8-1.91-.71-3.74,4.3-4.68,4-8.21q1.44,5.06,2.89,10.13c0,.67-.07,1.34-.1,2C190.8,408.12,190.06,407.07,189.61,405.6Z" transform="translate(-120.59 -226.35)"/><path class="cls-36" d="M397.52,404.61c-3-.76-4.79,1.39-6.85,2.89.22-2,.44-3.93.65-5.9.39-1.31.77-2.63,1.16-3.94C395.69,398.86,397,401.49,397.52,404.61Z" transform="translate(-120.59 -226.35)"/><path class="cls-37" d="M363.51,274.66c1.71-.67,3.55,2.12,5.2-.2a7.73,7.73,0,0,0,4.42,2.43c1.51.32,1.35.94.4,1.78l-.28.13-.3-.05c-3.52,0-7.21,1.09-10.32-1.57C361.85,276,362.46,275.23,363.51,274.66Z" transform="translate(-120.59 -226.35)"/><path class="cls-7" d="M407.48,527.5c.53-6-1.14-12,.95-17.91C408.08,515.56,409.42,521.62,407.48,527.5Z" transform="translate(-120.59 -226.35)"/><path class="cls-6" d="M406.49,556.55c-.45,5.68,1,11.46-.95,17.05l-.09-10c0-2.33,0-4.67,0-7Z" transform="translate(-120.59 -226.35)"/><path class="cls-6" d="M407.45,538.57c0,.67.05,1.35.08,2-.58,4.33,1,8.81-1,13l-.09-1.13c-.85-3-1.4-5.94,0-8.91C406.73,541.9,405.84,540,407.45,538.57Z" transform="translate(-120.59 -226.35)"/><path class="cls-5" d="M406.47,543.58l0,8.91C404.48,549.51,403.37,546.54,406.47,543.58Z" transform="translate(-120.59 -226.35)"/><path class="cls-7" d="M277.54,521.57c-1.71-9.51-8.69-11-16.84-12.31a95.15,95.15,0,0,1-14.9-3.78c-3.37-1.14-6.58-2.35-10.08-1.86-5.89.83-10.65-3.87-16.39-3.21-4.65.53-8-2.49-12-3.72-6.19-1.91-12.64-2.34-19-3.05-6.74-.74-8.91-2.46-10.73-8.94-2.38-8.48-2.25-17.31-3.92-25.89-.32-1.65-.12-3.35-2-4.16.39-.76-1-3.72,1.71-1.64a6.5,6.5,0,0,1,2.25,5.34,29,29,0,0,0,.26,5.45c1.88,9.55,6.38,13,17.54,13.78a3.6,3.6,0,0,1,1,0c9.7,4,20.6,2.72,30.32,7.16,4.45,2,9.86,1.85,14.8,2.87,3.91.81,7.84,2.05,11.87,2.65,2.7.41,5.41,1.69,8.2,1.25,5.62-.89,10.46,1.84,15.31,3.55A48.09,48.09,0,0,0,291.71,498c2.33,0,1.61,1.54,1.87,2.67.6,2.39-.85,4.42-1.11,6.67-.61,1.78-2.06,2.31-3.74,2.5s-3.08.08-4.62.2c-3.56.65-4.7,3.27-5.2,6.41C278.63,518.2,279.1,520.16,277.54,521.57Z" transform="translate(-120.59 -226.35)"/><path class="cls-38" d="M291.59,506.53c-.33-2.29,1.07-4,2-5.86,1.93-.07,5-3.11,5,1.91l-2,3C295,506.51,293.65,508.33,291.59,506.53Z" transform="translate(-120.59 -226.35)"/><path class="cls-39" d="M277.54,521.57c0-5.25-.86-10.91,6-13,5.9,7.43,13,13.71,20,20-1.34,4.62-4.49,5.88-8.82,4.51a7.33,7.33,0,0,0-6.21.48c-3.42,1.56-5.29-.52-7-3l-1-1C280.18,526.66,277,524.8,277.54,521.57Z" transform="translate(-120.59 -226.35)"/><path class="cls-40" d="M303.57,528.59c-2.64,1.37-3.56-1.08-4.79-2.36a171.28,171.28,0,0,0-14.27-13.73c-1.3-1.07-1.86-2.31-.95-3.91h5c2.91,1.54,5.27-1.28,8-1,1.8,0,3.6-.2,5.32.66,2.27,1.14,3.53,2.45,1.5,4.92-2.81,3.41-3,6.94.36,10,1.95,1.76,1.25,3.45.71,5.32Z" transform="translate(-120.59 -226.35)"/><path class="cls-9" d="M281.54,530.6c2.17,1.39,3.93,3.7,7,3C284.92,535.61,282.64,534.5,281.54,530.6Z" transform="translate(-120.59 -226.35)"/><path class="cls-39" d="M296.55,507.6c-2.45,2.16-5.07,2.92-8,1,1.47,0,2.94,0,3.06-2.06l4.93-1C296.45,506.23,295.44,506.93,296.55,507.6Z" transform="translate(-120.59 -226.35)"/><path class="cls-41" d="M404.42,579.56v3c-4.57,3.49-9.78,4.07-15.4,4-34.43-.14-68.86-.08-103.29-.07-8.79,0-17.5-1.29-26.32-1-20.66.55-41.34.68-62,1.07-7,.13-13.73-.9-19.7-4.92.46-8.3-1.66-16.51-.93-26.17a31.35,31.35,0,0,1,2.84,13.66c-.08,12.24,2.18,14.42,14.55,14.42,42,0,83.94-.73,125.87.29,23.43.57,46.88-.23,70.28,1.12C396,585.28,400.27,582.78,404.42,579.56Z" transform="translate(-120.59 -226.35)"/><path class="cls-42" d="M349.53,442.59h-41a7.91,7.91,0,0,1-1-1.06c-1.95-3-2.77-7.16-6.84-8a50.21,50.21,0,0,0-18.17,0c-2.24.37-3.53,2.3-4.64,4.19-1,1.7-1.68,3.6-3.29,4.88h-34c-8.45-5.95-11.94-14.94-14.68-24.32a2.88,2.88,0,0,1,2.53-4c3.14,4.12,8.36,5.81,11.6,9.8,1.47,1.81,3.26,1.15,5,1.05a172.93,172.93,0,0,0,21.51-2.81c.79.77.7,1.81.86,2.79.52,3.1,2.42,3.25,4.77,2.1a18.68,18.68,0,0,0,8-7.94,42.92,42.92,0,0,0,4.69-11,14,14,0,0,1,2.78-5.81c2.69-3.2,5.15-3.2,7.77.11,2.44,3.09,3.23,6.92,4.35,10.55a27.3,27.3,0,0,0,7.74,12c1.65,1.55,3.44,3.32,6.15,2.33s.68-3.64,1.81-5.18c1.66-1,3.33-.46,4.67.44,4.46,3,9.59,1.52,14.32,2.59.65.08-.11-.88-.17-.22-1.14-.15-2.59-.06-1.56-1.95,1.64-1.06,3.41-.85,5.19-.59,7.61.76,13.62-3.94,16.42-12.56.69-2.13.14-5.2,3.52-5.78,2.22,1.16,2.1,3.34,1.87,5.21-1.27,10.52-3.56,20.8-8,30.49A9.37,9.37,0,0,1,349.53,442.59Z" transform="translate(-120.59 -226.35)"/><path class="cls-43" d="M349.53,442.59c2.66-7.08,5.83-14.09,6.84-21.6.72-5.36,4.11-10.69,1.1-16.34a1.91,1.91,0,0,1-.48-1.27c1-3.78-.43-6.18-4-7.81a75.18,75.18,0,0,0-7.19-3.14c-3.93-.57-8.05-.81-11.55-2.56-4.5-2.26-8.8-5.09-12-9.23a14.25,14.25,0,0,1,10-4.32c4.29-.07,8.64-.44,11,4.45.93,1.9,2.57,1.76,4.08.37a6.33,6.33,0,0,1,4.49-1.73c2.71.25,5.37.78,8.07,1.15,2.54.75,3.71,2.8,4.3,5.09,2.69,10.39,4,20.89,1.57,31.53-1.24,5.53-1.71,11.16-2.59,16.74-1.13,7.1-1.13,7.1,6.16,7.27,1.75-.08,3.5-.06,5.25,0,2.69,0,5.47-.5,7.81,1.39l.07.27c-7.19,1.63-14.48.84-21.67.42C357.11,443.05,353.31,442.77,349.53,442.59Z" transform="translate(-120.59 -226.35)"/><path class="cls-44" d="M230.57,442.6h-7c-3.08-14.05-7.17-28-6.27-42.58.29-4.78,2-9.38,2.51-14.17a6.76,6.76,0,0,1,3.38-4.75c5.66-1.69,11.32-3.42,17-5.08a17.14,17.14,0,0,1,14.67,1.86c2.1,4.69-2,11.89-7.38,12.92-3.37.65-6.8,1-10.18,1.64-4.56,2.2-10.28,2.73-12.29,8.59a3.67,3.67,0,0,0-.85,2.79c3.11,11.49,2.29,23.73,6.64,35C231.27,440.05,231.62,441.4,230.57,442.6Z" transform="translate(-120.59 -226.35)"/><path class="cls-45" d="M220.57,442.62h-4c-2.48-4.56-2.47-9.62-2.5-14.56-.1-17.29-1.18-34.56-1-51.85.07-8.16-2.18-16.16-1.89-24.34.61-10.28,5.49-18.6,12.13-26.07,1.1-1.24,2.49-2.31,4.36-1.24.1.32.27.73.11.95-5.69,7.84-3.72,16.25-2,24.72,1.25,6.29,3,12.58,1.58,19.1-1.83,3.87-4,7.59-5,11.82-2.21,1.06-2.89,3-3.21,5.25a114.1,114.1,0,0,0,1.23,41.35,47.93,47.93,0,0,1,1.6,12.25A4.35,4.35,0,0,1,220.57,442.62Z" transform="translate(-120.59 -226.35)"/><path class="cls-46" d="M212.52,350.58c.22,10.75,2.11,21.35,2.8,32.06.2,3.08-.79,6.23-.69,9.34.56,16.88,1.29,33.76,2,50.64l-6,0c-1.66-4.08-1.49-8.43-1.53-12.69-.14-12.91-.06-25.83,0-38.75,0-3-.05-6,1.93-8.54,0-6.72-2.63-13.17-1.9-20,.31-3,.3-5.93,1-8.82C210.44,352.47,210.53,350.78,212.52,350.58Z" transform="translate(-120.59 -226.35)"/><path class="cls-47" d="M274.55,442.6c2.68-9.47,4.66-11,14.26-11h5.5c9.77,0,11.5,1.34,14.21,11-3,.94-5.94.74-9.12.37-5.81-.68-11.78-1.12-17.61.42C279.27,444.05,276.93,443.15,274.55,442.6Z" transform="translate(-120.59 -226.35)"/><path class="cls-48" d="M211.51,382.55c-1.31,4.18-.92,8.49-.92,12.77,0,12.23,0,24.46-.05,36.69,0,3.55,1.92,7.09.06,10.64l-4,0c-2.28-1.2-2.37-3.39-2.39-5.54,0-4.27-.28-8.55.47-12.79a21.27,21.27,0,0,0-1.1-11.14c-.8-2.86.14-5.61.61-8.37a104.69,104.69,0,0,0,1.08-16.87c0-2.42-.15-5.24,3.47-5.53l1.69.12A.65.65,0,0,1,211.51,382.55Z" transform="translate(-120.59 -226.35)"/><path class="cls-49" d="M230.57,442.6c-3.85-10.66-5.29-21.75-6-33a11.56,11.56,0,0,0-1.38-4.15c-.76-1.68-1.82-3.88,1.21-4.81a4.11,4.11,0,0,1,2,2,14.44,14.44,0,0,1,1.51,4.88c.08,2.37,2.25,4.55.67,7.08-2.6,1.15-1.74,2.95-1.18,5,2.42,8.8,7.51,16,13.14,23Z" transform="translate(-120.59 -226.35)"/><path class="cls-50" d="M220.57,442.62c-.18-9.54-1.86-18.92-3.33-28.31a68.24,68.24,0,0,1,.07-19.15c.37-3,0-6,.48-8.82.38-2.2-1.19-7.26,4.52-5.7a1.22,1.22,0,0,1,1.28,1.15c-4.47,5.71-3.81,12.82-4.86,19.34-1.23,7.59,1,15.09,2.21,22.62,1.05,6.23,3.67,12.32,2.64,18.86Z" transform="translate(-120.59 -226.35)"/><path class="cls-51" d="M204.61,413.6c2,3.39,2.13,7,1.58,10.82-.88,6.07-1.38,12.17.4,18.2l-6,0c-2.19-3.62-1.36-8-2.88-11.76-.38-2.42-.25-4.7,1.94-6.32,2.65,0,1.51-2.31,2.09-3.57C202.84,418.55,201.39,415.16,204.61,413.6Z" transform="translate(-120.59 -226.35)"/><path class="cls-52" d="M198.33,430.43c2.67,3.69,2.17,8,2.25,12.15l-2,0c.1-3.07-4.33-4.44-3-8,.05-1.43.11-2.86.16-4.29A2,2,0,0,1,198.33,430.43Z" transform="translate(-120.59 -226.35)"/><path class="cls-53" d="M362.53,276.63c3.21,2,7.29-.28,10.42,2.12-1.68,2-4.11,2.35-6.43,3a3,3,0,0,1-2.12.67,25.64,25.64,0,0,0-8.34-.53,41.74,41.74,0,0,1-17.63-1.94c-1.47-.51-3-1.43-5-.45,3,4.08,7.52,4.75,11.73,5.52s8.6,1.08,12.74-.49c2.58-1,4.87.61,7.33.34,1.75.5,3.82.9,3.51,3.28-.19,1.54-1.86.88-2.92,1.07-6.8,1.07-13.4,3.19-20.29,3.92-2.38.25-3.21,2-2.87,4.37s1.06,4.53,1.06,6.86c0,2.11.26,4.5-2.75,5-2.09-.18-3.15-1.73-3.87-3.35-1.91-4.33-4.38-8.39-5.86-12.91-3.26-8.29-7.68-15.78-14.6-21.6-2.3-1.93-3.9-4.35-2.61-7.41s4.3-2.62,6.93-2.62c4.57,0,8.29,2.51,11.83,4.79,5.26,3.38,11,5.39,16.8,7.31A11.77,11.77,0,0,1,351,274a17.16,17.16,0,0,0,7.94,1.4A4.89,4.89,0,0,1,362.53,276.63Z" transform="translate(-120.59 -226.35)"/><path class="cls-54" d="M364.48,281.65l2,.06c.18,2.5,2.14,3.62,3.83,4.93a1.86,1.86,0,0,1,.76,2.55,1.68,1.68,0,0,1-2,1.11c-4.64-1.59-3.67,1.93-3.55,4.11.57,10.58,1.15,21.16,2.07,31.7.59,6.86,2.46,13.67,2.51,20.5A65.83,65.83,0,0,1,366.76,369a2.37,2.37,0,0,1-2.31,1.59c-3.59-3.47-2-7.94-2.3-12.05,1.14-1.44,2.2-2.9,1.87-4.92-1.09-6.52-1.53-13.08-3.2-19.58-2-7.94-6-15.33-5.88-24,.06-7.92,4.44-13.69,7.58-20.16a2.54,2.54,0,0,1,3-1.27c.89-.15,2.5.31,2.39-.89-.15-1.65-1.91-1.9-3.37-2.11a3.7,3.7,0,0,1-1.45-.32c-1.23-.72-3.4-1-2.81-2.89C360.94,280.35,362.9,281.11,364.48,281.65Z" transform="translate(-120.59 -226.35)"/><path class="cls-55" d="M362.66,358.63c2,3.79-.13,8.19,1.79,12-1.24.75-.83,1.51,0,2.26a68.27,68.27,0,0,0,2.35,12c.28.95.34,2.12,1,2.75,5,4.51,4.17,10.46,4.18,16.2,0,9.77.05,19.53,0,29.29,0,3.3,0,6.67-2.4,9.39-9.8.26-9.31.34-7.83-9.56,1.63-10.88,4.74-21.61,3.84-32.83-.4-5-2-9.65-2.75-14.54-.24-1.57-.9-3.67-3.25-3.91.2-3.09-1.17-6.21.19-9.26,1.48.16,1.45-.78,1.46-1.86,0-4.33-.94-8.54-1.55-12.79-.39-2.76-1.17-5.57.7-8.15,2.76.09,2.21,2.62,3.06,4.12A5.65,5.65,0,0,1,362.66,358.63Z" transform="translate(-120.59 -226.35)"/><path class="cls-56" d="M369.57,442.51c1.9-15,.49-30.09.94-45.13a10.16,10.16,0,0,0-2.8-7.5c-4.13-4.81-3.46-11.07-3.27-17,1.94,1.83.42,4.77,2.13,6.68a3.06,3.06,0,0,1,.55.81c1.57,4.73,1.59,4.77,5.63,2.06,2.13-1.43,3.39-.92,3.8,1.53.49,2.93.15,5.92.39,8.88-2.07,11.07.55,22.13,0,33.17-.25,5.55,0,11.23-2.44,16.48Z" transform="translate(-120.59 -226.35)"/><path class="cls-57" d="M374.51,348c0-3.41-.09-6.82,0-10.22.39-13.81-.62-27.41-5.64-40.46-.57-1.47-.69-3.06.87-4s2.35.63,3.29,1.44a18.31,18.31,0,0,1,6.27,13.14c.55,13.05.81,26.19-2.87,39a6,6,0,0,1-.66,1.25Z" transform="translate(-120.59 -226.35)"/><path class="cls-58" d="M384.48,349.62c1.94-.17,2.82.45,2,2.52-2.1,5.37-3.11,11.06-4.82,16.56a71.74,71.74,0,0,0-3.19,22.8,1.19,1.19,0,0,1-1.62-.13c-.62-6.48-3.07-12.92-.53-19.49a12.72,12.72,0,0,1,2.31-8.44C381.79,359.3,381.75,353.89,384.48,349.62Z" transform="translate(-120.59 -226.35)"/><path class="cls-59" d="M376.33,371.88q.07,7.25.16,14.47c0,1.82-.19,3.68,1.07,5.25a1.37,1.37,0,0,1-2,0v-9.24c-2.34.42-3.14,2-4.16,3.49-.71,1-1.25,2.67-2.94,2a3.32,3.32,0,0,1-1.92-3.25c0-1.67,0-3.33.05-5,3.32,1,5.18-.85,6.69-3.43C374.14,374.62,374.41,372.65,376.33,371.88Z" transform="translate(-120.59 -226.35)"/><path class="cls-60" d="M198.33,430.43l-2.6-.1c-1.21-3.81-.94-7.78-1.3-11.68l.09-2.95c.77-1.13,1.95-1.11,3.11-1.08,2,.05,2.12-.91,2.8-2.8,2.6-7.3.95-14.83,2-22.19.76-5.57.18-11.32.19-17a12.43,12.43,0,0,1,3.13,6.21c1.56,5.93-.07,11.88-.34,17.77-.43,9.36-1.29,18.82-4.87,27.71A10.6,10.6,0,0,0,198.33,430.43Z" transform="translate(-120.59 -226.35)"/><path class="cls-61" d="M189.61,405.6l3,2c1.46,1.84.7,4,.88,6-1.72-.92-2.76-2.79-4.88-3.22-1.48-.3-2-1.56-1.93-3C186.82,405.46,188.32,405.69,189.61,405.6Z" transform="translate(-120.59 -226.35)"/><path class="cls-62" d="M270.53,316.67c-3.35-5.2-9.55-6.36-14-9.94a1.05,1.05,0,0,1,0-1.29c3.84-1.4,6.59,1.15,9.61,2.67,1.56.79,2.73,2.46,5.42,2.05a48.19,48.19,0,0,0-8.77-17.07c-1.5-1.88-3.62-3.63-2.38-6.55,2.59-1.28,4.61.31,6.38,1.64a96.3,96.3,0,0,1,27.46,31.26c1.72,5.62,4.74,10.84,5.45,16.82,0,.37.7-1.26,1.61-.76,2.36,2.5,2.17,5.73,2.59,8.8-.07,1.9-.09,3.82-1.59,5.29-1,.62-1.95,1-2.64-.41-1.47-5.83-6.38-9.42-9.61-14.06-3.79-5.44-9.39-9.6-13.95-14.55C274.44,318.8,271.6,319,270.53,316.67Z" transform="translate(-120.59 -226.35)"/><path class="cls-63" d="M211.51,382.55l-1.09-.05c.1-1.7.72-3.47-.79-4.9-3.07-10.43-5.43-20.89-1.41-31.63,4.06-9.78,9.69-18.42,18.4-24.71,9.64-7,19.84-9.61,31.12-3.84,2.9,1.49,6.33,1.89,8.84,4.22,8.93,5.16,17.39,10.91,24,19-2.12,1.43-3.3-.39-4.74-1.35-6.44-4.32-12.42-9.4-19.58-12.53A79.2,79.2,0,0,0,243.06,320a19.83,19.83,0,0,0-12.3,3c-1,.61-2,1.42-3.24,1.46-9.18,6.28-13.18,15.53-15,26.05-2.7,7.7-2.25,15.66-1.48,23.55A69.89,69.89,0,0,1,211.51,382.55Z" transform="translate(-120.59 -226.35)"/><path class="cls-64" d="M266.58,321.64c-3.11-1-6.24-2-9.31-3.15-14-5.24-26.55-1.93-36.51,9.62a82,82,0,0,0-11.37,17.42c-1.53-.08-1.47-.85-.82-1.88,1.6-7.14,3.38-14.16,9.51-19.09a11.26,11.26,0,0,0,2.94-3.94,17.25,17.25,0,0,1,18.3-9.8,96.08,96.08,0,0,1,25.42,8.07C265.76,319.36,267.38,319.79,266.58,321.64Z" transform="translate(-120.59 -226.35)"/><path class="cls-65" d="M229.58,322.68c6.42-5.72,14-4.51,21.11-2.65,9.87,2.57,19.39,6,27.74,12.54,3.74,2.91,7.58,6.19,12.18,8,3.59,2.24,5.21,6.56,9,8.57a2,2,0,0,0,2.06.49c1.36-.08,1.35.81,1.25,1.77-1.77,1.59-1.87,6.23-6.12,3.38a90.82,90.82,0,0,0-27.09-24.32,18,18,0,0,0-7.78-2.94c-6.41-1.63-12.63-4-19.26-4.73a24.94,24.94,0,0,0-8.4.27C232.72,323.45,231,324,229.58,322.68Z" transform="translate(-120.59 -226.35)"/><path class="cls-66" d="M208.57,343.65c.27.63.54,1.26.82,1.88-3,8.84-1.29,17.76-.4,26.66.18,1.8.42,3.61.64,5.41-2.59-3.39-6-13.86-6-19-.05-3,0-6,0-9Z" transform="translate(-120.59 -226.35)"/><path class="cls-67" d="M375.54,391.59h2a1.93,1.93,0,0,0,.92-.1,1.94,1.94,0,0,1,1.08,2c1.69,2,1.24,4.39,1.24,6.67,0,10.07,1.11,20.08,1.84,30.11.2,2.74,1.42-.37,2.15.09a1.5,1.5,0,0,1,1.69,1.17q-2,5.51-4,11l-7.93-.08C377.18,425.57,373.09,408.52,375.54,391.59Z" transform="translate(-120.59 -226.35)"/><path class="cls-68" d="M386.48,431.57l-1.09-.9c-2.31-1.66-2.45-4.33-2.78-6.72-1.36-10-3.58-19.94-2.23-30.14.25-4.75,2.13-9.43,6.86-15.56-2.32,16.23-1.4,32.39.35,48.54C387.33,428.41,388,430.24,386.48,431.57Z" transform="translate(-120.59 -226.35)"/><path class="cls-59" d="M380.38,393.81c-.53,12.58,2.76,24.65,5,36.86-.24.22-.49.43-.71.67-1.06,1.15-1,4.05-2.89,3.45-2.51-.82-.29-3.1-.4-4.74-.36-5.57-.67-11.18-1.22-16.69-.67-6.65-.42-13.22-.61-19.83A7.92,7.92,0,0,1,380.38,393.81Z" transform="translate(-120.59 -226.35)"/><path class="cls-69" d="M210.51,324.21c-1.39,3.14-3.23,7.34-6.93,8-3.43.56-5-3.58-5.88-6.7-.52-1.86.08-4-.21-6-.34-2.33-1.06-4.8-4.09-4.78-4.26,0-5.59-2.53-5.22-6.05.48-4.54,4.41-3.95,7.33-3.76C199.05,305.14,210.68,320.2,210.51,324.21Z" transform="translate(-120.59 -226.35)"/><path class="cls-70" d="M200.5,424.33c3.64-14.94,4.26-30.23,5.21-45.49l3,3.55a3.34,3.34,0,0,0-2.06,3.14c.59,9.45-1.4,18.71-2.06,28.07-1.32,3.77-1.67,7.71-2.14,11.64-.08.7-.32,1.91-1.4,1.35C200.61,426.35,200.67,425.12,200.5,424.33Z" transform="translate(-120.59 -226.35)"/><path class="cls-71" d="M260.54,286.73c.3,2.44,1.87,4.1,3.39,5.89a44.86,44.86,0,0,1,8.13,15.16c.44,1.31,1.74,2.91.39,4.11-1.61,1.43-3.15-.27-4.39-1.07-3.6-2.31-7.05-4.83-11.52-5.14-2.84.85-4.56-1.34-6.67-2.45-4.14-3.18-9.19-4.55-13.82-6.71a15.24,15.24,0,0,1-7.68-7.39c-1.44-3-2.79-6-4.12-9.05-2.21-5-.23-9.4,3-13.26a44.83,44.83,0,0,1,13.25-10.18c10.65-7,22-11.63,35-12,10.77-.31,21.53,0,32,2.24a58.33,58.33,0,0,1,15.71,5.6c3.62,2,7.47,3.54,11.21,5.28a2.11,2.11,0,0,0,2,1c7.43,5.79,15.94,9.71,24.16,14.13,1,.54,1.92,1.2,2.88,1.81-.33.66-.65,1.32-1,2l-4,0c-2.63-.86-5.4-1.12-8-2h0c-.75-1.18-3.24.44-3.21-2,.68-1,2-.9,3.14-1.77-9.67-4.89-19.06-9.63-28.63-14-1.21-.55-2.41-1.26-2.37,1-1.22.62-2.28.12-3.34-.42A22,22,0,0,0,304,254c-1.31,0-2.79.1-3.31,1.61-.41,1.22.55,2.12,1.22,3.06,1.33,1.88,4.15,3.12,2.76,6.22-6.37-.47-14.39-7.09-14.8-12.65-.18-2.43-1.6-2.63-3.22-2.91-17.47-2.95-33.35.57-47.16,11.93-7.45,6.12-7.74,11.23-1.21,18a16.62,16.62,0,0,1,4.13,6.68c.62,1.94,1,4.17,3.31,5.37.74-2.16-.62-3.39-1.41-4.75-3.23-5.56-2-9.57,3.78-12.37,5-2.43,10.41-2.24,15.67-1.42a103.23,103.23,0,0,1,47.47,20.81c7.56,5.82,14.91,12.28,19.8,20.85a4.72,4.72,0,0,0,.59.8c1.95,2.21,3.13,6.22,6.08,6.14,3.34-.08,1.73-4.83,3.72-6.8,1.37-.35,1.71.65,2.11,1.58a35,35,0,0,0,1.4,6.32,15,15,0,0,1,1,5.38c0,3.4-.48,7.47-3.71,8.61-2.86,1-4.69-2.61-6.14-5-6.13-9.92-12.29-19.77-20.77-28a82.52,82.52,0,0,0-13.17-10.65,12.27,12.27,0,0,1-1.16-.77c-2.69-2-5.34-4.11-8.83-4.61-3.21-1.34-6.16-3.27-9.59-4.11-3.66-1.48-7.2-3.34-11.22-3.78a7.65,7.65,0,0,1-1.33-.43c-4.5-2.35-9.46-.84-14.15-1.63a2.76,2.76,0,0,0-3,2.12c-.5,2,1.16,2.46,2.5,3.09a42.33,42.33,0,0,1,4.22,2.21A2.43,2.43,0,0,1,260.54,286.73Z" transform="translate(-120.59 -226.35)"/><path class="cls-72" d="M240.54,256.64c-3.93,3.49-8.31,6.45-11.87,10.39-4.64,5.13-5.25,8.64-2.11,14.68a4,4,0,0,1,.44.88c1.91,9.61,9.17,13.39,17.43,16.22,2.27.78,4.8,1.44,6.13,3.86a3.9,3.9,0,0,1-4,0l-3-.95a7.37,7.37,0,0,1-4-1.07c-12-.91-16.54-9.54-19.75-19.35-1.71-5.21.77-9.49,4.28-13a74,74,0,0,1,8.46-7.64C235.25,259.38,237.14,256.53,240.54,256.64Z" transform="translate(-120.59 -226.35)"/><path class="cls-73" d="M232.56,260.69c-2.59,2.75-5.17,5.52-7.77,8.26-4.72,5-4.71,9-2.62,15.29,3,8.9,9.06,13.65,17.4,16.42-14.24,1.58-18.92-7.65-22.61-18.94-1.29-3.92,1.76-7.86,4.17-11.27A31.77,31.77,0,0,1,232.56,260.69Z" transform="translate(-120.59 -226.35)"/><path class="cls-73" d="M246.56,302.68h4a11.42,11.42,0,0,0,6,3l-.06,1.05C252.74,306.44,249.83,304.12,246.56,302.68Z" transform="translate(-120.59 -226.35)"/><path class="cls-74" d="M315.52,422.66c1.11,2.11,1.83,4.14-.55,6-2.22,1.72-3.92.67-5.83-.64a25.45,25.45,0,0,1-9.83-12.75c-1.16-3.29-2.18-6.63-3.47-9.87-.8-2-2.08-4.34-4.36-4.28s-3.47,2.37-4.31,4.4c-.69,1.67-1,3.5-1.65,5.2-2.54,6.72-5.25,13.34-11.89,17.23-1.86,1.1-3.76,2.56-6,1s-1.8-4-1.12-6.3c.13-2.48,2.05-2.22,3.68-2.41a3.73,3.73,0,0,1,1.28.74c2.5,2.26,3.64-.33,4.74-1.61,2.56-3,3.63-6.68,4.18-10.52A123.9,123.9,0,0,0,281.56,391c0-6.82-2.93-10.92-9.11-13.26-3.44-1.3-5.22-3.6-3-7.37,4.87-1.34,9.17,1,13.3,2.67,5.91,2.46,11.36,2.33,17.36.36,5.77-1.9,11.1-5,17.14-6.1.81,3.66-2.93,5.5-3.45,8.63-10.38,3.36-13,11-12,21,.68,7.06.24,14.28,3.9,20.73,1.59,2.81,3.51,5.41,7.42,3.41A2.26,2.26,0,0,1,315.52,422.66Z" transform="translate(-120.59 -226.35)"/><path class="cls-75" d="M270.47,420.62l-3.92,2c-8.09,4.07-17.1,2.52-25.58,4.22a2.7,2.7,0,0,1-1.36-.1c-.9-6.58-10.36-5.37-11-12.11-.61-2.34-1.21-4.69-1.82-7,2.55-1.23,2.33,1.3,3.26,2.34,1.9,2.13,2.13,5.77,5.74,6.33,3.12.21,4,3.47,6.44,4.64,6,2.52,11.57,2.3,16.36-2.66a9.62,9.62,0,0,0,2.18-3.4c1.93-3.35,1.85-6.92,1.11-10.54a24.94,24.94,0,0,0-1.1-2.54c-.47-1.25-.74-2.43,1.14-2.66,4.86,1.71,6.36,6.06,8,10.26a59.5,59.5,0,0,1,1.73,8.35A3.39,3.39,0,0,1,270.47,420.62Z" transform="translate(-120.59 -226.35)"/><path class="cls-76" d="M357.72,403.37c-.08.42-.17.85-.25,1.28-2,4.41-2.6,9.35-5.6,13.43-2.76,3.74-8.72,6.57-13.34,5.6,1.21-2.93,4.9-3.19,6.32-5.89,2.48-3.85,4.44-7.82,2.9-12.58a8.63,8.63,0,0,0-1.52-2.26c-1.35-1.44-1.8-3.39-3-4.95-2.74-3.59-2.63-3.74,2.23-4.51a22,22,0,0,1,5.11,1.36C354,396.82,358.61,397.8,357.72,403.37Z" transform="translate(-120.59 -226.35)"/><path class="cls-77" d="M315.52,422.66l-1.94-1.06a4.33,4.33,0,0,1-1.78-2.32c-.47-2.23.56-4.36.48-6.57,1-5,2.45-9.81,7.5-12.38A1.4,1.4,0,0,1,321,401c.72,3.52-.95,7,0,10.55.16.43.29.88.42,1.32a13,13,0,0,0,6.23,7.87A16.48,16.48,0,0,0,330,422c.95.5,2.13.7,2.56,1.9l3.76,1.55c-6.4,1.37-11.9,1.1-17.11-1.74A5.86,5.86,0,0,0,315.52,422.66Z" transform="translate(-120.59 -226.35)"/><path class="cls-78" d="M332.55,423.87c-1.05-.35-2.37,0-3.11-1.16,1.95-1.85,4-1.49,6.37-.44-2.59-2.24-1.2-3.76.82-5.17a14.71,14.71,0,0,1,2.48-1.39c5.85-2.59,6.58-2.26,6.34,2.85-1.28,3.1-4.64,3.38-6.92,5.12Z" transform="translate(-120.59 -226.35)"/><path class="cls-79" d="M313.48,412.58c.77,2.45-1.05,4.6-.84,7-1.64,3.1-3.65,1.87-5.31.21s-3.35-3.89-3.66-6.38c-1.27-10.33-.65-20.34,7.29-28.22,2.13-2.11,2.54-4.48,3-7,3.26-.36,5.61,2.19,8.59,2.73,7.52,4.62,14.56,10.31,24,10.68a3.12,3.12,0,0,1-2,1.19c-3,.38-6,.09-9,.22-10.45.44-18.44,6.25-21.95,15.88C313.17,410.11,312.62,411.29,313.48,412.58Z" transform="translate(-120.59 -226.35)"/><path class="cls-80" d="M322.57,380.86c-3.8,1.82-6.08-.27-8.07-3.12-1.55-.09-1.64-.94-1.1-2.12-.82-3.91,2.11-5.7,4.42-7.84,2.67-3.88,7.15-2.92,10.85-4.08a20.09,20.09,0,0,1,4.9-.35,5.58,5.58,0,0,1,3.16,1c1.95,3.91,5,7.56,3,12.43-2.37.93-5-.27-7.31.76C328.75,377.52,325.82,379.65,322.57,380.86Z" transform="translate(-120.59 -226.35)"/><path class="cls-81" d="M359.43,372.66c1.29,3,2.63,6,.15,9-2.8.75-5.27-.72-7.89-1.21-2.57-1.62-6.64,1.21-8.39-2.83,2.94-3.11,1-7.46,2.74-10.87a3.14,3.14,0,0,1,2-1.08C352.75,366.56,357.22,367.77,359.43,372.66Z" transform="translate(-120.59 -226.35)"/><path class="cls-82" d="M343.34,377.78c2.47,1.87,6.16-.08,8.35,2.68-2.11-.15-3.15,1.26-4.32,2.7-1.41,1.74-3.27,2.11-4.22-.3-2-5.13-6-5.8-10.74-5.33,2.21-1.66,4.81-.58,7.18-1C341.29,375.62,342.46,376.28,343.34,377.78Z" transform="translate(-120.59 -226.35)"/><path class="cls-83" d="M344.39,391.77l2.15-.23c2.9.73,5.42,2.32,8.1,3.53,4.14,1.85,4.75,4.53,3.08,8.3.11-5-4.61-5.33-7.32-7.6C349.13,393.33,345.21,394.88,344.39,391.77Z" transform="translate(-120.59 -226.35)"/><path class="cls-84" d="M223.59,381.79l-1.28-1.15c-1.5-4.84,1.68-7.74,4.47-10.8,4-5.41,10.14-5.61,15.88-6.41a59.19,59.19,0,0,1,12.34,0c5.12,1.59,11.05,1.67,14,7.4,0,2.19.22,4.36.34,6.55-2.7,5.44-4.79,6.24-10.14,4.11a26.71,26.71,0,0,1-4.6-2.87c-7.7-3.65-15.09-1.37-22.38,1.34A24.52,24.52,0,0,1,223.59,381.79Z" transform="translate(-120.59 -226.35)"/><path class="cls-85" d="M254.56,378.63a22.07,22.07,0,0,1,4.64,1.49c4.11,2.42,7.12,1.6,9.27-2.61a31.37,31.37,0,0,0,5.81,9c6.45,7.17,8,23.15,3.4,31.12-1.57,2.73-3.37,5.17-7.06,2.92l-.15,0,.18-3.12a18.46,18.46,0,0,0-1.88-10.66c-4.87-9.5-12.59-14.19-23.3-13.93a42.72,42.72,0,0,1-7-.17,3,3,0,0,1-2-1.23c1.35-1.38,3.11-.77,4.7-.93,8.7-.93,9.05-1.2,13.6-8.74C255.61,380.55,255,379.67,254.56,378.63Z" transform="translate(-120.59 -226.35)"/><path class="cls-86" d="M236.53,391.51l2.18.28c-.68,3.21-4.85,1.92-5.93,4.62a67.85,67.85,0,0,1-7.4,6l-1-1.78c-.44-3.37,1.91-4.66,4.39-5.79S234,392.63,236.53,391.51Z" transform="translate(-120.59 -226.35)"/><path class="cls-87" d="M255.57,364.77c-10.09-1.1-19.81-.11-28.79,5.07-.16-8.16-1.62-16.13-3.18-24.11-.6-3.06-1.39-6.19-1.26-9.26a17.78,17.78,0,0,1,5.18-11.94l2.06-1.85c11.56-3.38,22.26.35,33,4a35.17,35.17,0,0,1,11.3,6.28c.68.55,1.15,1.12.59,2-2.31,1.32-4-.27-5.71-1.34a24.56,24.56,0,0,0-4.76-2.3c-5-3.36-11-3.5-16.54-4.91-4.62-1.17-6.84.52-7.85,5.19-1.6,7.48.06,14.82,1.17,22.18a19.33,19.33,0,0,1,.68,2.38c.1,4.48,1.87,6.35,6.76,5.78C250.59,361.65,254.26,360.94,255.57,364.77Z" transform="translate(-120.59 -226.35)"/><path class="cls-88" d="M225.38,402.44c.68-4.14,4.76-4.55,7.32-6.64a9.34,9.34,0,0,1,5.61-2.19c3.36,0,4.57,1.23,1.95,4-4.6,4.84-6.3,10.27-3.88,16.7a2.7,2.7,0,0,1-.72,2.11c-.17.79-.14,2.1-.56,2.27-1.1.44-1.73-.68-2.14-1.51a60,60,0,0,0-6.19-9.55C226.31,405.9,225.84,404.17,225.38,402.44Z" transform="translate(-120.59 -226.35)"/><path class="cls-37" d="M341.51,314.67c0,3.49.23,8.15-3.09,9.17-2.46.76-4.7-3.45-6.43-6.08a97,97,0,0,0-34.43-31.6c-13-7.19-26.71-12.42-41.91-12.51a16.87,16.87,0,0,0-7.66,1.88c-4.77,2.36-5.65,5.81-2.81,10.19a17.1,17.1,0,0,1,2.16,3.89c.4,1.22,1.67,3-.57,3.79a2.73,2.73,0,0,1-3.59-1.91c-1.5-6.54-6.16-11.05-9.73-16.29-2.93-4.31,0-11.64,6.15-15.86,7.34-5,15-9.56,23.86-11.43,9-1.91,18.05-.08,27,.82,2.23.22,1.8,1.38.87,2.71-1.59,2.25-.83,4.28,1.14,5.63,3.91,2.68,8,5.08,12,7.6,4.34.12,7,3.42,10.31,5.45,7.75,6.1,13,14.12,17.56,22.69,2.29,5.49,4.53,11,7.89,16C342.16,310.45,343.14,312.3,341.51,314.67Z" transform="translate(-120.59 -226.35)"/><path class="cls-89" d="M341.51,314.67c-.4-2-.79-3.93-1.19-5.89,3.82-1.34,2.3-4.42,1.77-6.67-2.61-11-1.78-9.7,9-11.33,3.29-.5,6.53-.49,9.46-2.41,1.58-1,3.42-1.27,5,.29-8.21,7.17-11,23.23-7.22,33.06,3,7.86,6,16,6.26,24.7.07,2.29.78,4.55.9,6.85s.68,4.9-2.79,5.36c-.1-1.67-.2-3.33-.31-5-1-6.6-4.1-12.57-5.92-18.93-2.28-5.43-6.33-9.42-10.76-13.09-2-1-2.63-2.93-3.18-4.89Z" transform="translate(-120.59 -226.35)"/><path class="cls-90" d="M332.42,292.81c-2.55-1.59-3.48-4.34-4.74-6.8-3.17-6.17-9.1-9.94-13.16-15.32-1.85-1.09-3.12-2.91-5.09-3.9-3.31-1.67-4.49-4.18-2.71-7.73s3.93-4.47,8-3.05a5.52,5.52,0,0,1,1.84.64l3,1c1.42-.69,2.61,0,3.71.74a181.1,181.1,0,0,0,23.06,12.76,2.35,2.35,0,0,1,1.19,1.52l3,2c-6.19-.69-11.57-3.49-16.91-6.42-4.41-2.41-8.4-5.89-13.91-5.57-1.91.11-4.28-.54-4.95,2.11-.58,2.31.52,4.24,2.35,5.61C324.72,276.17,329,284.17,332.42,292.81Z" transform="translate(-120.59 -226.35)"/><path class="cls-16" d="M364.48,281.65c-1,.09-1.93.13-2.88.28-.22,0-.39.44-.6.71.55,1.74,2.75,1.56,3.53,3-8.53.13-17.15,2.87-25.55-.91-.59-.26-1.45-.09-1.91-.45-2.22-1.78-6.85-2.89-5.73-5.82s5-.65,7.52.22A41.26,41.26,0,0,0,358,280.33,9.1,9.1,0,0,1,364.48,281.65Z" transform="translate(-120.59 -226.35)"/><path class="cls-90" d="M350.52,274.68c2.85-.06,5.64.12,8,2C355.68,276.78,352.86,276.68,350.52,274.68Z" transform="translate(-120.59 -226.35)"/><path class="cls-43" d="M359.43,372.66a35.4,35.4,0,0,0-10.86-6.11,2.91,2.91,0,0,1-.77-2.25c1.11-6.42.26-12.86.14-19.29-.95-6.18-2.08-12.35-2.11-18.64,1.31-2,2.56-.61,3.63.2a23.54,23.54,0,0,1,4.75,4.86c3.27,5.66,6.87,11.22,6.3,18.22-.6,8.32,3.18,16.3,1.78,24.81C360.88,374.81,360.78,372.6,359.43,372.66Z" transform="translate(-120.59 -226.35)"/><path class="cls-56" d="M360.51,349.65c-1.09-6.48-3.86-12.3-7.05-17.95,2.07-.79,2.8.93,3.84,2.06,2.23,6.49,5.35,12.74,5.05,19.87C361,352.66,362.06,350.54,360.51,349.65Z" transform="translate(-120.59 -226.35)"/><path class="cls-91" d="M302.72,344.63l-2.16-9c-1.33-1.73-2.65-3.46-1.59-5.84,1.94-2.5,3.74-1.26,5.55.2,6.62,5,12.9,10.32,17.74,17.16a18.46,18.46,0,0,1,2.55,4.8c1.64,4.89.37,7.61-4.48,9.22a88.4,88.4,0,0,1-8.66,2.17c-4,.91-6-.54-6.3-4.74a50,50,0,0,0-1.62-9.75A11.14,11.14,0,0,0,302.72,344.63Z" transform="translate(-120.59 -226.35)"/><path class="cls-92" d="M260.54,286.73l-1-1c-1.57-1.61-2.35-3.35-.43-5.18a5.19,5.19,0,0,1,6.44-1c4.77,2.69,10,4.77,13.84,8.82,7.24,7.6,14,15.61,19.24,24.76.56,2.58,3.13,4.63,2.1,7.66-1.74.8-3.48.17-5.23,0a5.31,5.31,0,0,1-2-1c-7-11.12-15.2-21.1-25.57-29.24C265.67,288.75,263.43,287.13,260.54,286.73Z" transform="translate(-120.59 -226.35)"/><path class="cls-93" d="M293.46,319.75l2.22,0a10.52,10.52,0,0,1,2.47,3.76c.38,1,.67,2,1,3a5.86,5.86,0,0,1,.24,3.13l1.14,5.94c-.61,1,.83,3.1-1,3.13-1.34,0-.82-1.75-1-2.95-.54-3.4-2-6.67-3.3-10C294.49,323.85,293.53,321.94,293.46,319.75Z" transform="translate(-120.59 -226.35)"/><path class="cls-94" d="M302.72,344.63a3.13,3.13,0,0,1,1.78,3c-.76,2.38,1.79,4.68.17,7.09-2.31.08-2.35-1.4-2.13-3.07a1.93,1.93,0,0,0-.85-2C302.71,348.13,302.42,346.32,302.72,344.63Z" transform="translate(-120.59 -226.35)"/><path class="cls-95" d="M274.53,334.66c-3.22-3.82-8.23-5-12-8,6.91.41,11.52,5.28,16.66,8.93,7.27,5.16,13.92,11.06,18.34,19l-.55.43c-3,.3-3.72-2.35-5.09-4-2.6-3.17-4.86-6.65-8.75-8.46C280,340.2,276.11,338.71,274.53,334.66Z" transform="translate(-120.59 -226.35)"/><path class="cls-95" d="M302.54,351.65l2,3a1.65,1.65,0,0,1,.21,1.52c-1,2-2.29,3.8-4.84,2.95-1.92-.64-3.44-1.92-2.45-4.39l.14-.14C300.8,356.28,300.2,351.5,302.54,351.65Z" transform="translate(-120.59 -226.35)"/><path class="cls-96" d="M297.54,313.69c-8.38-12.9-16.85-25.7-31.39-32.73-2.13-1-3.88-1.38-6-.1-2.41,1.46-.5,3.24-.63,4.85a5.84,5.84,0,0,1-4-2c-2.47-3.54-1.63-6.16,2.29-6.45a30.15,30.15,0,0,1,12.74,1.41h0c2.16.82,4.61.86,6.49,2.43,9.06,4.57,16.15,11.37,22.58,19.13,7.69,9.26,14.72,19,24.55,26.55,7.18,5.5,11.46,14,15.41,22.24,1,2,.46,3.56-2,3.94-4.21-3.48-6.81-8.12-9.22-12.9-4.65-9.08-12.13-15.23-21.17-19.3C303.29,319,299.82,317.33,297.54,313.69Z" transform="translate(-120.59 -226.35)"/><path class="cls-97" d="M346.61,325.7l2.61,19.07c-1.31,2.57-.35,5.19-.25,7.81.08,1.78.4,3.95-2,4.45-2.23.46-3.34-1.33-4-3a121.74,121.74,0,0,0-9.05-19.86,29.25,29.25,0,0,0-5-10.7c-7.1-10.2-14.49-20.11-24.71-27.52-1.39-1-3.25-1.91-2.71-4.25,8.75,3.86,14.71,11,20.89,17.84,5.89,6.52,10.11,14.23,14.78,21.62a14,14,0,0,0,4.85,5c2.81-4.37,3.49-8.81,1.58-13.62a12.09,12.09,0,0,1-1.14-5.79,9.7,9.7,0,0,0,3.88,4C345.9,322.42,347.54,324,346.61,325.7Z" transform="translate(-120.59 -226.35)"/><path class="cls-98" d="M301.53,291.67c2.45,3.19,6.09,5,9,7.66a124.7,124.7,0,0,1,23.13,29.51,8.62,8.62,0,0,1,.92,4.8c-4.43,1.24-5.2-2.7-6.69-5.08A148.42,148.42,0,0,0,312,307.45c-7.73-8.55-17-15.28-26.71-21.48-1.1-.7-2.38-1.25-2.92-2.6.05-.24.11-.47.17-.71,3.9-.1,6.72,2.49,10,4,3.32,1.08,6,3.29,9,5Z" transform="translate(-120.59 -226.35)"/><path class="cls-37" d="M347.49,272.69c-10.18-3.4-18.8-9.72-28-15-.47-.83-.93-1.67-2-3.6,6.94,2.93,13.11,5,18.72,8.09,3.9,2.14,7.86,4.16,11.81,6.22,1.78.93,5.13.81,4.7,3.29C352.4,273.74,349.31,272.28,347.49,272.69Z" transform="translate(-120.59 -226.35)"/><path class="cls-99" d="M316.55,256.65c-2.07.61-3.91-1.71-6.17-.26-3.84,2.47-4.19,7.28-.42,9.92,1.78,1.24,3.52,2.42,4.56,4.38l-10-6c-.26-2.79-2.76-3.93-4.32-5.75-1-1.16-2.06-2.28-1.5-3.9.64-1.83,2.33-2.23,4-2.28C307.72,252.61,312.51,253.35,316.55,256.65Z" transform="translate(-120.59 -226.35)"/><path class="cls-98" d="M270.55,278.68c-3.7-.33-7.4-.93-11.09-.93-3.89,0-5.89,1.83-3.94,6-2.59,0-5.08-1-4.65-3.8a4.42,4.42,0,0,1,5.95-3.57C261.33,277.65,266.52,274.76,270.55,278.68Z" transform="translate(-120.59 -226.35)"/><path class="cls-98" d="M276.55,281.68l-6-3c4.52-.24,8.37,1.55,12,4l0,0C280.17,284.54,278.56,281.92,276.55,281.68Z" transform="translate(-120.59 -226.35)"/><path class="cls-97" d="M301.53,291.67c-3.54-.69-6.14-3.06-9-5C296.38,286.82,299.11,289,301.53,291.67Z" transform="translate(-120.59 -226.35)"/><path class="cls-100" d="M304.53,355.64q0-.48,0-1c1.06-2.35-2.17-4.7,0-7.05a25.21,25.21,0,0,1,2.06,11.11c-.13,3,1.32,4.37,4.33,3.63,3.2-.8,6.37-1.7,9.55-2.57,3.58-1,4.78-3,3.39-6.72-3-8-9.3-13.08-15.36-18.45-1.58-1.4-3.9-1.9-4.92-4,2.1-1.66,3.75-.19,5.38.85,10.2,6.57,17.11,16,22.73,26.48,2.62,4.86,2.11,5.49-3.07,6.82l-10.77,3a213,213,0,0,1-20.18,7.75,17.59,17.59,0,0,1-13.46-.58,66.53,66.53,0,0,0-14.64-4.3c-.34.49-.7.5-1.06,0-3.53-3.65-8.38-4.43-12.91-5.9a9.21,9.21,0,0,0-7.85-1.7c-6.1,1.65-6.62-.69-7.58-6.05-1.24-7-2.54-13.84-2.57-20.93a18.68,18.68,0,0,1,0-2c.78-9,4.74-11.36,13.32-8.38,4.57,1.59,9.89,1.06,13.66,4.9l-.52.53c-1.26.67-2.57.4-3.89.26-5.67-.6-6.67.13-7.81,5.57-1.95,9.39,2.46,17.16,11.58,20.24a101.39,101.39,0,0,1,13.39,5.32c4.86,2.45,10.13,3,15.5,2.75,3.92-.2,4.34-1.21,2.41-4.56-1.59-2.77-5-4.66-4.26-8.57.8-1.27,1.81-.85,2.34,0a32.91,32.91,0,0,0,3.79,4.59C300.73,361,302.32,360.77,304.53,355.64Z" transform="translate(-120.59 -226.35)"/><path class="cls-101" d="M313.4,375.62l1.1,2.12c.89,3.31,1,5.81-2.6,8.3-7.55,5.24-10.28,26.24-4.5,32.11,1.76,1.79,3,2.8,5.24,1.41.32.68.63,1.36.94,2-2.19,2.64-4.16,2.36-6.61,0-5.06-4.78-5.48-11.21-6.17-17.34a84.13,84.13,0,0,1,0-17.38C301.34,380.8,306,377.06,313.4,375.62Z" transform="translate(-120.59 -226.35)"/><path class="cls-102" d="M268.48,370.67l1.06,0c-.35,3.17.52,5.07,4,6.25,5.68,1.91,9.16,5.42,9.24,12.47a119.71,119.71,0,0,1-1.3,21.09c-.77,4.68-2.51,9-6.43,12-2.23,1.71-4.45,2.22-4.44-1.89,5.2.71,7.15-3.31,7.49-6.82.7-7.45,1.79-15.12-2.07-22.3-1.27-2.36-2.52-4.77-4.73-6.16-3.14-2-3.52-4.61-2.84-7.8Q268.49,374.09,268.48,370.67Z" transform="translate(-120.59 -226.35)"/><path class="cls-103" d="M235.5,414.65c-3.22-7.5-1.57-13.17,5.7-19.51-.65-1-1.78-.39-2.6-.76,4.14-3.42,8.88-1.81,13.28-1.16,3.93.57,8.24,1.39,9.68,6.22-1.89.75.16,1.37.07,2.06.93,2.42-.28,2.65-2.15,2-1.29-.43-2.06-1.6-3-2.5-4.21-4-7.61-4.18-13.87-.8A9.66,9.66,0,0,0,240,403.4c-2,2.88-2.13,6-1.75,9.41C238.4,414.38,238.54,417.21,235.5,414.65Z" transform="translate(-120.59 -226.35)"/><path class="cls-104" d="M261.56,399.44c-6.58-6.57-14.58-6.69-23-5.06l-5.9,1.42c.53-3.54,4.27-2.28,6-4,6.66-.73,13.25-.8,19.46,2.24,5.46,2.67,9.06,7.08,11.46,12.56.3,1.19,1.26,2.6-1,3C267.28,405.49,265.65,401.6,261.56,399.44Z" transform="translate(-120.59 -226.35)"/><path class="cls-105" d="M235.5,414.65c2,.74,2.29-.08,1.71-1.81a9.48,9.48,0,0,1,2.2-10.26,2.2,2.2,0,0,1,1.66,2.23c-.41,8.18,1.12,10.1,9.34,11.69a4.19,4.19,0,0,1,2.24,1c.29,1.28-.61,1.68-1.53,2.06-2.28.6-4.54.06-7.09-.29-.29-.19.35.91.36.24,1.88.47,3,1.37,2,3.48-1.81.27-3.22-1.05-4.93-1.18-2.77-.88-3.6-3.84-5.75-5.38C235.61,415.83,235.55,415.24,235.5,414.65Z" transform="translate(-120.59 -226.35)"/><path class="cls-106" d="M241.54,399.49c7.22-4.61,11.31-4.18,16.84,1.71,1,1,1.88,3.43,3.25.3.9.41.85,1.28,1,2.06.5,1.41,1.11,3.12-.36,4-1.25.75-2.36-.73-3.26-1.32.75,2,1.73,4.2-1.28,5.58-1.09-.71-1.16-1.88-1.37-3-1.38-7.21-3.64-8.85-11.18-8.1C243.8,400.75,242.46,400.73,241.54,399.49Z" transform="translate(-120.59 -226.35)"/><path class="cls-107" d="M250.67,418.72c.77-.15,1.52-.35,1.79-1.24.16-2,1.73-2.32,3.26-2.67,2.53.09,3.71,1.56,4,3.93-5.38,5.67-11.63,6.71-18.32,3.06,1.83-.63,3.35.9,5.11.75.12-.11.22-.29.36-.32C249.89,421.49,250.34,421.08,250.67,418.72Z" transform="translate(-120.59 -226.35)"/><path class="cls-108" d="M257.69,411.67c1.71-1.76.43-4.07,1.24-6.4,2.24,1.69,4.23,2.31,3.68-1.71a12.25,12.25,0,0,1-1,12.1,42,42,0,0,1-5.41-1.26A2,2,0,0,1,257.69,411.67Z" transform="translate(-120.59 -226.35)"/><path class="cls-109" d="M256.36,414.5c2.21-1.69,4.1-2,5.23,1.16.06,1.44-.84,2.3-1.86,3.08-1.49-1.05-2.06-3.37-4.42-3.26C255.33,414.8,255.65,414.45,256.36,414.5Z" transform="translate(-120.59 -226.35)"/><path class="cls-110" d="M268.65,409.55c1.49-.6.63-2,1-3,2.12,3.47,2.77,7.08,1,10.91C270,414.85,269.32,412.2,268.65,409.55Z" transform="translate(-120.59 -226.35)"/><path class="cls-111" d="M345.48,394.48l-4.17.25c3.42,2.16,4.62,5.2,6.19,8,.73,1.09.58,2-.84,1.91-1.22-.06-1.85-1.27-2.62-2.13-5-5.52-9.26-6.12-16.23-2.3-.58.74-1.15,1.48-1.69,2.26-2.67,2.58-2.57,5.89-2.49,9.23,0,1.13-.14,2.56-1.44,2.91s-.9-1.51-1.79-1.9l0,0c-1.64-4,1.1-8,0-12.06l.1-.09c-.26-2.66,1.76-4.2,3.55-4.88,6.37-2.41,13-3.89,19.89-2.78C344.77,393,345.62,393.36,345.48,394.48Z" transform="translate(-120.59 -226.35)"/><path class="cls-112" d="M345.48,394.48c-9.17-1.49-18-1.49-24.93,6.09-4.36,2.83-6.09,7.2-7.07,12-2-1.54-.71-3.33-.22-4.91,3-9.6,11.86-16,22.68-16.23,2.81-.07,5.63.21,8.45.33,1.51,2.07,5.64.21,6,4Z" transform="translate(-120.59 -226.35)"/><path class="cls-113" d="M326.56,399.68c6.65-4.81,14.65-4.37,18.57,2.09.48.79.35,2.51,2.1,1.85.18-.07.19-.6.27-.91,1,.23,1,1.08,1.09,1.83.75,1.58.38,3.24.33,4.86,0,1-1.09,1.72-1.55.87-1.92-3.51-2.37.87-3.61.56-1-.52-1.17-1.53-1.48-2.47-2.37-7.32-4.24-8.48-12.07-7.54C328.87,400.82,327.55,400.78,326.56,399.68Z" transform="translate(-120.59 -226.35)"/><path class="cls-114" d="M343.34,410.5c2.07-.71.43-3.08,1.8-4.12,1.8.31,1.94,2,3,3.61.16-2.11.29-3.78.41-5.45,1.92,5.34.43,9.91-3.14,14-.47-5.3-3.49-2.83-6-2A6.66,6.66,0,0,1,343.34,410.5Z" transform="translate(-120.59 -226.35)"/><path class="cls-115" d="M320.4,412.69c.85.19,2.43,2.47,2.13-.71-.37-3.8-.6-7.56,2.73-10.38,1.54.78,1.66,2.23,1.74,3.69-2.28,3.6.48,6.72,1,10.06-.59,1.84.73,3.09,1.34,4.59.74,1.81.05,2.51-1.84,1.71C323.71,419.78,321.09,417,320.4,412.69Z" transform="translate(-120.59 -226.35)"/><path class="cls-116" d="M327.49,421.65c3-.72.66-1.78.06-2.46-1.17-1.32-2.55-2.48.09-3.64,3.44.07,6.87.25,9.94,2.11-.83,1.4-5.09,2,.54,5h-8.68C328.72,422.48,327.84,422.54,327.49,421.65Z" transform="translate(-120.59 -226.35)"/><path class="cls-115" d="M320.45,400.66c2.12,4-.87,8,0,12.06C318.27,408.69,320.68,404.68,320.45,400.66Z" transform="translate(-120.59 -226.35)"/><path class="cls-117" d="M337.58,417.66c-3.48.08-7,.37-9.95-2.11-1-3.26-5.77-6.13-1-10a6.35,6.35,0,0,0,3.83-5.93c8.33-1.95,13,1.95,12.9,10.86a20.8,20.8,0,0,1-3.87,6.09Z" transform="translate(-120.59 -226.35)"/><path class="cls-118" d="M329.47,340.06q4.08,6.26,8.17,12.52a7.35,7.35,0,0,1,4.08,4,23.36,23.36,0,0,0,6.8,8.1c0,.63,0,1.26.05,1.89l-2.06.08c-3.38-.43-6.92-.05-10-2l-3.12-.14a2.35,2.35,0,0,1,.56-1.83c-1-7-5.4-12.3-9.41-17.67-7.1-9.52-16.6-16.13-27.16-21.32a5.9,5.9,0,0,1-1.71-3.9,7.9,7.9,0,0,1,4.85.78c2.48-1.75,4.84-.53,7.07.48C316.79,325.17,323.82,331.83,329.47,340.06Z" transform="translate(-120.59 -226.35)"/><path class="cls-119" d="M336.52,364.63c3.43.13,7.1-.91,10,2,0,2.62-.12,5.26,0,7.87.16,2.44-1.13,3.18-3.21,3.28l-3.75-1.3C340,372.17,336.62,368.82,336.52,364.63Z" transform="translate(-120.59 -226.35)"/><path class="cls-120" d="M334.43,363.51l-1,1-4.81.29c3.57-1.23,3.73-3.32,2-6.4-6-10.66-13.16-20.26-23.73-26.89a5.88,5.88,0,0,0-3.3-.86c-1.13-1.37-2.46-1.89-4.13-1-1.18-.67-.81-1.88-1-2.9,1.79-1.79,2.62-1.91,5.39-.22a85.72,85.72,0,0,1,15.37,11.77c6.61,6.48,11.11,14.4,15.34,22.5C335,361.68,335.46,362.65,334.43,363.51Z" transform="translate(-120.59 -226.35)"/><path class="cls-100" d="M274.53,334.66l9,7c2.68,2.8,7.07,4.26,7.14,9.1-2,.51-3.15-.85-4.18-2-5-5.7-11.32-9.49-17.7-13.29-1.82-1.08-4.5-1.72-4.25-4.77l0,0C268.59,330.26,270.51,335.05,274.53,334.66Z" transform="translate(-120.59 -226.35)"/><path class="cls-121" d="M346.61,325.7c.06-1.66-2.58-3.19-.24-5,4.42,3.69,8.74,7.46,10.93,13l-3.84-2.06Z" transform="translate(-120.59 -226.35)"/><path class="cls-122" d="M348.52,364.66c-3.38.16-4.68-2.55-6.25-4.7-1.72-2.33-3.1-4.91-4.63-7.38,1.29-.71,2.1-1.46,1.14-3.13-5.9-10.26-11.82-20.39-22.06-27.24-5.85-3.91-9.31-10.3-13.57-15.71-7.64-9.71-15.92-18.48-26.6-24.82l6,1c11.1,7.2,22.17,14.51,31,24.56a143.2,143.2,0,0,1,14.83,19.83c1.55,2.57,2.38,6.05,6.2,6.56,4.28,5.34,6.6,11.64,8.87,18,.68,1.91.85,5.1,3.51,4.43s1.6-3.48,1-5.55-1-4.23,1.27-5.72C348.84,351.4,351.64,358.13,348.52,364.66Z" transform="translate(-120.59 -226.35)"/><path class="cls-123" d="M329.47,340.06c-5.52-5.47-10.59-11.43-17.35-15.52-3.6-2.18-7.32-3.87-11.59-4-1-2.29-2-4.58-3-6.86,8.51,6.4,19.56,9,26.41,17.89C326,334.26,328.88,336.42,329.47,340.06Z" transform="translate(-120.59 -226.35)"/><path class="cls-124" d="M334.43,363.51C328,347.8,317.64,335.44,302.82,327c-1.1-.62-2.85-2.2-4.41-.25-1.1-.78-.89-2-1-3.1a11.53,11.53,0,0,1,6.16,1.69,76.9,76.9,0,0,1,31.88,35.12C336,361.72,337.41,363.37,334.43,363.51Z" transform="translate(-120.59 -226.35)"/><path class="cls-94" d="M290.54,350.65c-.84-4.16-5.28-5.51-7-9,5.13,1.59,7.11,6.46,10.34,10,1.08,1.19,1.6,2.92,3.54,3.08,2.55,4.79,2.86,4.83,7.11.88-.22,1.86.94,4.41-1.69,5.17-2.47.71-4.44-.95-6-2.71-1.84-2.08-3-4.74-5.32-6.44A1.21,1.21,0,0,1,290.54,350.65Z" transform="translate(-120.59 -226.35)"/><path class="cls-125" d="M290.54,350.65l1,1c-.16,3.6,2.94,5.37,4.56,8,1,1.68,2.85,3.16,2.08,5.28-.89,2.45-3.33,1.62-5.23,1.73a35.74,35.74,0,0,1-19.12-4.23,48,48,0,0,0-12.08-4.47c-9.35-2-14.08-16.45-9.19-26.22,1-2,2.79-2.2,4.65-2,2.46.24,4.9.65,7.34,1,2,2.79,5.12,4.07,8,5.53C279.61,339.74,284.69,345.66,290.54,350.65Z" transform="translate(-120.59 -226.35)"/><path class="cls-126" d="M241.54,399.49l3.74.22c2.95,1.38,2.57,3.63.91,5.47s-4.09,2.5-5.86-.39l-.92-2.21A5,5,0,0,1,241.54,399.49Z" transform="translate(-120.59 -226.35)"/><path class="cls-127" d="M240.33,404.79c1.8,1.25,3.62,1.57,5.27-.17s.62-3.33-.32-4.91c6.12-2.29,13.77,1.25,12.41,12-.44.95-.89,1.89-1.33,2.83l-1.05,1-2.85,2C242.23,417.87,238.1,413.55,240.33,404.79Z" transform="translate(-120.59 -226.35)"/><path class="cls-128" d="M250.67,418.72c2,4.9-1.44,4-4.15,3.83L243,418.17Z" transform="translate(-120.59 -226.35)"/><path class="cls-129" d="M330.44,399.64c2,4.76,1.28,5.85-3.83,5.93a5.28,5.28,0,0,1-1.35-4l1.3-1.92Z" transform="translate(-120.59 -226.35)"/></svg>